/* XPM */
static char *result[] = {
/* columns rows colors chars-per-pixel */
"64 64 8 1 ",
"  c #30204A",
". c #6856BE",
"X c #8773B7",
"o c #957FFF",
"O c #A58F9F",
"+ c #CBB5FF",
"@ c #F9E5ED",
"# c None",
/* pixels */
"################################################################",
"################################################################",
"################################################################",
"################################################################",
"################################################################",
"################################################################",
"################################################################",
"################################                        ########",
"################################                        ########",
"################################                        ########",
"##############################  OOO@@@@@@@@@@@@@@@@@@OOO   #####",
"##############################  OOO@@@@@@@@@@@@@@@@@@OOO   #####",
"##############################  OOO@@@@@@@@@@@@@@@@@@OOO   #####",
"###########################   OO@@@@@@@@@@@@@@@@@@@@@@@@   #####",
"###########################   OO@@@@@@@@@@@@@@@@@@@@@@@@   #####",
"###########################   OO@@@@@@@@@@@@@@@@@@@@@@@@   #####",
"########################   OOO@@@@@@@@@@@@@@@@@@@@@@@@@@   #####",
"########################   OOO@@@@@@@@@@@@@@@@@@@@@@@@@@   #####",
"########################   OOO@@@@@@@@@@@@@@@@@@@@@@@@@@   #####",
"#####################   OOO@@@@@@@@OOO   @@@@@@@@@@@@OOO   #####",
"#####################   OOO@@@@@@@@OOO   @@@@@@@@@@@@OOO   #####",
"#####################   OOO@@@@@@@@OOO   @@@@@@@@@@@@OOO   #####",
"##################   OOO@@@@@@@@OOO      @@@@@@@@@@@@   ########",
"##################   OOO@@@@@@@@OOO      @@@@@@@@@@@@   ########",
"##################   OOO@@@@@@@@OOO      @@@@@@@@@@@@   ########",
"###############   XXX+++++++++XX      XXX++++++++++++   ########",
"###############   XXX+++++++++XX      XXX++++++++++++   ########",
"###############   XXX+++++++++XX      XXX++++++++++++   ########",
"############   XXX+++++++++XXX  ###   +++++++++++++++   ########",
"############   XXX+++++++++XXX  ###   +++++++++++++++   ########",
"############   XXX+++++++++XXX  ###   +++++++++++++++   ########",
"#########   XXX+++++++++XXX   #####   ++++++++++++XXX   ########",
"#########   XXX+++++++++XXX   #####   ++++++++++++XXX   ########",
"######   XXX++++++++++++           XXX++++++++++++         #####",
"######   XXX++++++++++++           XXX++++++++++++         #####",
"######   XXX++++++++++++           XXX++++++++++++         #####",
"######   +++++++++++++++++++++++++++++++++++++++++++++++   #####",
"######   +++++++++++++++++++++++++++++++++++++++++++++++   #####",
"######   +++++++++++++++++++++++++++++++++++++++++++++++   #####",
"######   ooooooooooooooooooooooooooooooooooooooooooooooo   #####",
"######   ooooooooooooooooooooooooooooooooooooooooooooooo   #####",
"######   ooooooooooooooooooooooooooooooooooooooooooooooo   #####",
"######   ...ooooooooooooooooooooooooooooooooooooooooo...   #####",
"######   ...ooooooooooooooooooooooooooooooooooooooooo...   #####",
"######   ...ooooooooooooooooooooooooooooooooooooooooo...   #####",
"#########                       ooooooooooooooo         ########",
"#########                       ooooooooooooooo         ########",
"#########                       ooooooooooooooo         ########",
"##############################  ooooooooooooooo   ##############",
"##############################  ooooooooooooooo   ##############",
"##############################  ooooooooooooooo   ##############",
"##############################  oooooooooooo...   ##############",
"##############################  oooooooooooo...   ##############",
"##############################  oooooooooooo...   ##############",
"################################               #################",
"################################               #################",
"################################               #################",
"################################################################",
"################################################################",
"################################################################",
"################################################################",
"################################################################",
"################################################################",
"################################################################"
};
