/* XPM */
static char *result[] = {
/* columns rows colors chars-per-pixel */
"64 64 6 1 ",
"  c #080000",
". c #484800",
"X c #909000",
"o c #FCFC00",
"O c gray99",
"+ c None",
/* pixels */
"++++++++++++++++++++++++++++++++++++++++++++++++++++++++++++++++",
"++++++++++++++++++++++++++++++++++++++++++++++++++++++++++++++++",
"++++++++++++++++++++++++++++++++++++++++++++++++++++++++++++++++",
"++++++++++++++++++++++++++++++++++++++++++++++++++++++++++++++++",
"++++++++++++++++++++++++++++++++++++++++++++++++++++++++++++++++",
"++++++++++++++++++++++++++++++++++++++++++++++++++++++++++++++++",
"++++++++++++++++++++++++++++++++++++++++++++++++++++++++++++++++",
"++++++++++++++++++++++++++++++++++++++++++++++++++++++++++++++++",
"++++++++++++++++++++++++++++++++++++++++++++++++++++++++++++++++",
"++++++++++++++++++++++++++++++++++++++++++++++++++++++++++++++++",
"++++++++++++++++++++++++++++++++++++++++++++++++++++++++++++++++",
"++++++++++++++++++++++++++++++++++++++++++++++++++++++++++++++++",
"++++++++++++++++++++++++++++++++++++++++++++++++++++++++++++++++",
"++++++++++++++++++++++++++             +++++++++++++++++++++++++",
"++++++++++++++++++++++++++             +++++++++++++++++++++++++",
"++++++++++++++++++++++    XXXooOOOOOOOO    +++++++++++++++++++++",
"++++++++++++++++++++++    XXXooOOOOOOOO    +++++++++++++++++++++",
"++++++++++++++++++++  XXoooooooooooooooOOOO  +++++++++++++++++++",
"++++++++++++++++++++  XXoooooooooooooooOOOO  +++++++++++++++++++",
"++++++++++++++++++  XXooooXXX........XXooOOOO  +++++++++++++++++",
"++++++++++++++++++  XXooooXXX........XXooOOOO  +++++++++++++++++",
"++++++++++++++++  ..XXooXX...        ....XXOOOO  +++++++++++++++",
"++++++++++++++++  ..XXooXX...        ....XXOOOO  +++++++++++++++",
"++++++++++++++++  ..ooXX                 ..ooOO  +++++++++++++++",
"++++++++++++++++  ..ooXX                 ..ooOO  +++++++++++++++",
"++++++++++++++  ..XXoo..     ++++++++    ..XXooOO  +++++++++++++",
"++++++++++++++  ..XXoo..     ++++++++    ..XXooOO  +++++++++++++",
"++++++++++++++  ..oooo    +++++++++++++    ..ooOO  +++++++++++++",
"++++++++++++++  ..oooo    +++++++++++++    ..ooOO  +++++++++++++",
"++++++++++++++  ..ooOO  +++++++++++++++++  ..ooOO  +++++++++++++",
"++++++++++++++  ..ooOO  +++++++++++++++++  ..ooOO  +++++++++++++",
"++++++++++++++  ..ooOO  +++++++++++++++++  ..ooOO  +++++++++++++",
"++++++++++++++  ..ooOO  +++++++++++++++++  ..ooOO  +++++++++++++",
"++++++++++++++  ..ooOO  +++++++++++++++++  ..ooOO  +++++++++++++",
"++++++++++++++  ..ooOO  +++++++++++++++++  ..oooo  +++++++++++++",
"++++++++++++++  ..ooOO  +++++++++++++++++  ..oooo  +++++++++++++",
"++++++++++++++  ..XXOOoo  +++++++++++++  ..XXooXX  +++++++++++++",
"++++++++++++++  ..XXOOoo  +++++++++++++  ..XXooXX  +++++++++++++",
"++++++++++++++    ..ooOO     ++++++++    XXoooo    +++++++++++++",
"++++++++++++++    ..ooOO     ++++++++    XXoooo    +++++++++++++",
"++++++++++++++++  ..XXooOOooo        ..XXooooXX  +++++++++++++++",
"++++++++++++++++  ..XXooOOooo        ..XXooooXX  +++++++++++++++",
"++++++++++++++++    ..XXooOOOOOOOOOooooooXXXX    +++++++++++++++",
"++++++++++++++++    ..XXooOOOOOOOOOooooooXXXX    +++++++++++++++",
"++++++++++++++++++    ....XXXooooooooXX....    +++++++++++++++++",
"++++++++++++++++++    ....XXXooooooooXX....    +++++++++++++++++",
"++++++++++++++++++++      .............      +++++++++++++++++++",
"++++++++++++++++++++      .............      +++++++++++++++++++",
"++++++++++++++++++++++                     +++++++++++++++++++++",
"++++++++++++++++++++++                     +++++++++++++++++++++",
"++++++++++++++++++++++++++             +++++++++++++++++++++++++",
"++++++++++++++++++++++++++             +++++++++++++++++++++++++",
"++++++++++++++++++++++++++++++++++++++++++++++++++++++++++++++++",
"++++++++++++++++++++++++++++++++++++++++++++++++++++++++++++++++",
"++++++++++++++++++++++++++++++++++++++++++++++++++++++++++++++++",
"++++++++++++++++++++++++++++++++++++++++++++++++++++++++++++++++",
"++++++++++++++++++++++++++++++++++++++++++++++++++++++++++++++++",
"++++++++++++++++++++++++++++++++++++++++++++++++++++++++++++++++",
"++++++++++++++++++++++++++++++++++++++++++++++++++++++++++++++++",
"++++++++++++++++++++++++++++++++++++++++++++++++++++++++++++++++",
"++++++++++++++++++++++++++++++++++++++++++++++++++++++++++++++++",
"++++++++++++++++++++++++++++++++++++++++++++++++++++++++++++++++",
"++++++++++++++++++++++++++++++++++++++++++++++++++++++++++++++++",
"++++++++++++++++++++++++++++++++++++++++++++++++++++++++++++++++"
};
