/* XPM */
static char *result[] = {
/* columns rows colors chars-per-pixel */
"64 64 6 1 ",
"  c #080000",
". c #484800",
"X c #909000",
"o c #FCFC00",
"O c gray99",
"+ c None",
/* pixels */
"++++++++++++++++++++++++++++++++++++++++++++++++++++++++++++++++",
"++++++++++++++++++++++++++++++++++++++++++++++++++++++++++++++++",
"++++++++++++++++++++++++++++++++++++++++++++++++++++++++++++++++",
"++++++++++++++++++++++++++++++++++++++++++++++++++++++++++++++++",
"++++++++++++++++++++++++++++++++++++++++++++++++++++++++++++++++",
"++++++++++++++++++++++++++++++++++++++++++++++++++++++++++++++++",
"++++++++++++++++++++++++++++++++++++++++++++++++++++++++++++++++",
"++++++++++++++++++++++++++++++++++++++++++++++++++++++++++++++++",
"++++++++++++++++++++++++++++++++++++++++++++++++++++++++++++++++",
"++++++++++++++++++++++++++++++++++++++++++++++++++++++++++++++++",
"++++++++++++++++++++++++++++++++++++++++++++++++++++++++++++++++",
"++++++++++++++++++++++++++++++++++++++++++++++++++++++++++++++++",
"+++++++++++++++++++++++++++++       ++++++++++++++++++++++++++++",
"+++++++++++++++++++++++++++++       ++++++++++++++++++++++++++++",
"++++++++++++++++++++++++++   XXXoooo     +++++++++++++++++++++++",
"++++++++++++++++++++++++++   XXXoooo     +++++++++++++++++++++++",
"++++++++++++++++++++++++  XXXoooooooOOOoo  +++++++++++++++++++++",
"++++++++++++++++++++++++  XXXoooooooOOOoo  +++++++++++++++++++++",
"++++++++++++++++++++++  XXoooX.....XoooOOoo  +++++++++++++++++++",
"++++++++++++++++++++++  XXoooX.....XoooOOoo  +++++++++++++++++++",
"++++++++++++++++++++  XXooXXX.     .XXXooOO  +++++++++++++++++++",
"++++++++++++++++++++  XXooXXX.     .XXXooOO  +++++++++++++++++++",
"++++++++++++++++++++  XXooXXX.     .XXXooOO  +++++++++++++++++++",
"++++++++++++++++++++  XXoo...       XXXooOOoo  +++++++++++++++++",
"++++++++++++++++++  ..ooXX... +++++ ...XXOOoo  +++++++++++++++++",
"++++++++++++++++++  ..ooXX... +++++ ...XXOOoo  +++++++++++++++++",
"++++++++++++++++++  ..ooXX... +++++ ...XXOOoo  +++++++++++++++++",
"++++++++++++++++++  ..ooXX    +++++ ...XXooOO  +++++++++++++++++",
"++++++++++++++++++  ..ooXX    +++++ ...XXooOO  +++++++++++++++++",
"++++++++++++++++++  ..ooXX   ++++++ ...XXooOO  +++++++++++++++++",
"++++++++++++++++++  ..ooXX   ++++++ ...XXooOO  +++++++++++++++++",
"++++++++++++++++++  ..ooXX   ++++++ ...XXooOO  +++++++++++++++++",
"++++++++++++++++++  ..ooXX   ++++++ ...XXooOO  +++++++++++++++++",
"++++++++++++++++++  ..ooXX   ++++++ ...XXooOO  +++++++++++++++++",
"++++++++++++++++++  ..ooXX   ++++++ ...XXooOO  +++++++++++++++++",
"++++++++++++++++++  ..ooXX... +++++ ...XXOOXX  +++++++++++++++++",
"++++++++++++++++++  ..ooXX... +++++ ...XXOOXX  +++++++++++++++++",
"++++++++++++++++++    ..ooXXX +++++ XXXoooo..  +++++++++++++++++",
"++++++++++++++++++    ..ooXXX +++++ XXXoooo..  +++++++++++++++++",
"++++++++++++++++++    ..ooXXX +++++ XXXoooo..  +++++++++++++++++",
"++++++++++++++++++++  ..ooXXXX     .XXXooXX    +++++++++++++++++",
"++++++++++++++++++++    ..ooooXXXXXXooooo..  +++++++++++++++++++",
"++++++++++++++++++++    ..ooooXXXXXXooooo..  +++++++++++++++++++",
"++++++++++++++++++++    ..ooooXXXXXXooooo..  +++++++++++++++++++",
"++++++++++++++++++++++    ...Xoooooo.....    +++++++++++++++++++",
"++++++++++++++++++++++    ...Xoooooo.....    +++++++++++++++++++",
"++++++++++++++++++++++++     .......       +++++++++++++++++++++",
"++++++++++++++++++++++++     .......       +++++++++++++++++++++",
"++++++++++++++++++++++++++               +++++++++++++++++++++++",
"++++++++++++++++++++++++++               +++++++++++++++++++++++",
"+++++++++++++++++++++++++++++       ++++++++++++++++++++++++++++",
"+++++++++++++++++++++++++++++       ++++++++++++++++++++++++++++",
"++++++++++++++++++++++++++++++++++++++++++++++++++++++++++++++++",
"++++++++++++++++++++++++++++++++++++++++++++++++++++++++++++++++",
"++++++++++++++++++++++++++++++++++++++++++++++++++++++++++++++++",
"++++++++++++++++++++++++++++++++++++++++++++++++++++++++++++++++",
"++++++++++++++++++++++++++++++++++++++++++++++++++++++++++++++++",
"++++++++++++++++++++++++++++++++++++++++++++++++++++++++++++++++",
"++++++++++++++++++++++++++++++++++++++++++++++++++++++++++++++++",
"++++++++++++++++++++++++++++++++++++++++++++++++++++++++++++++++",
"++++++++++++++++++++++++++++++++++++++++++++++++++++++++++++++++",
"++++++++++++++++++++++++++++++++++++++++++++++++++++++++++++++++",
"++++++++++++++++++++++++++++++++++++++++++++++++++++++++++++++++",
"++++++++++++++++++++++++++++++++++++++++++++++++++++++++++++++++"
};
