/* XPM */
static char *result[] = {
/* columns rows colors chars-per-pixel */
"64 64 6 1 ",
"  c #080000",
". c #484800",
"X c #909000",
"o c #FCFC00",
"O c gray99",
"+ c None",
/* pixels */
"++++++++++++++++++++++++++++++++++++++++++++++++++++++++++++++++",
"++++++++++++++++++++++++++++++++++++++++++++++++++++++++++++++++",
"++++++++++++++++++++++++++++++++++++++++++++++++++++++++++++++++",
"++++++++++++++++++++++++++++++++++++++++++++++++++++++++++++++++",
"++++++++++++++++++++++++++++++++++++++++++++++++++++++++++++++++",
"++++++++++++++++++++++++++++++++++++++++++++++++++++++++++++++++",
"++++++++++++++++++++++++++++++++++++++++++++++++++++++++++++++++",
"++++++++++++++++++++++++++++++++++++++++++++++++++++++++++++++++",
"++++++++++++++++++++++++++++++++++++++++++++++++++++++++++++++++",
"++++++++++++++++++++++++++++++++++++++++++++++++++++++++++++++++",
"++++++++++++++++++++++++++++++++++++++++++++++++++++++++++++++++",
"++++++++++++++++++++++++++++++++++++++++++++++++++++++++++++++++",
"++++++++++++++++++++++++++++++++++++++++++++++++++++++++++++++++",
"++++++++++++++++++++++++++++++     +++++++++++++++++++++++++++++",
"++++++++++++++++++++++++++++++     +++++++++++++++++++++++++++++",
"++++++++++++++++++++++++++++  ooooo  +++++++++++++++++++++++++++",
"++++++++++++++++++++++++++++  ooooo  +++++++++++++++++++++++++++",
"++++++++++++++++++++++++++  ooOOOOOoo  +++++++++++++++++++++++++",
"++++++++++++++++++++++++++  ooOOOOOoo  +++++++++++++++++++++++++",
"++++++++++++++++++++++++  XXOOOOOOOOOXX  +++++++++++++++++++++++",
"++++++++++++++++++++++++  XXOOOOOOOOOXX  +++++++++++++++++++++++",
"++++++++++++++++++++++++  XXOOOOOOOOOXX  +++++++++++++++++++++++",
"++++++++++++++++++++++++  XXOOOOOOOOOXX  +++++++++++++++++++++++",
"++++++++++++++++++++++++  XXOOOOOOOOOXX  +++++++++++++++++++++++",
"++++++++++++++++++++++++  XXOOOOOOOOOXX  +++++++++++++++++++++++",
"++++++++++++++++++++++++  XXOOOOOOOOOXX  +++++++++++++++++++++++",
"++++++++++++++++++++++++  XXOOOOOOOOOXX  +++++++++++++++++++++++",
"++++++++++++++++++++++++  XXOOOOOOOOOXX  +++++++++++++++++++++++",
"++++++++++++++++++++++++  XXooOOOOOooXX  +++++++++++++++++++++++",
"++++++++++++++++++++++++  XXooOOOOOooXX  +++++++++++++++++++++++",
"++++++++++++++++++++++++  XXooOOOOOooXX  +++++++++++++++++++++++",
"++++++++++++++++++++++++  XXooOOOOOooXX  +++++++++++++++++++++++",
"++++++++++++++++++++++++  ..ooooooooo..  +++++++++++++++++++++++",
"++++++++++++++++++++++++  ..ooooooooo..  +++++++++++++++++++++++",
"++++++++++++++++++++++++  ..ooooooooo..  +++++++++++++++++++++++",
"++++++++++++++++++++++++  ..ooooooooo..  +++++++++++++++++++++++",
"++++++++++++++++++++++++  ..XXoooooXX..  +++++++++++++++++++++++",
"++++++++++++++++++++++++  ..XXoooooXX..  +++++++++++++++++++++++",
"++++++++++++++++++++++++  ..XXoooooXX..  +++++++++++++++++++++++",
"++++++++++++++++++++++++  ..XXoooooXX..  +++++++++++++++++++++++",
"++++++++++++++++++++++++  ..XXXXXXXXX..  +++++++++++++++++++++++",
"++++++++++++++++++++++++  ..XXXXXXXXX..  +++++++++++++++++++++++",
"++++++++++++++++++++++++  ..XXXXXXXXX..  +++++++++++++++++++++++",
"++++++++++++++++++++++++  ..XXXXXXXXX..  +++++++++++++++++++++++",
"++++++++++++++++++++++++    ..XXXXX..    +++++++++++++++++++++++",
"++++++++++++++++++++++++    ..XXXXX..    +++++++++++++++++++++++",
"++++++++++++++++++++++++    ..XXXXX..    +++++++++++++++++++++++",
"++++++++++++++++++++++++++    .....    +++++++++++++++++++++++++",
"++++++++++++++++++++++++++    .....    +++++++++++++++++++++++++",
"++++++++++++++++++++++++++++         +++++++++++++++++++++++++++",
"++++++++++++++++++++++++++++         +++++++++++++++++++++++++++",
"++++++++++++++++++++++++++++++     +++++++++++++++++++++++++++++",
"++++++++++++++++++++++++++++++     +++++++++++++++++++++++++++++",
"++++++++++++++++++++++++++++++++++++++++++++++++++++++++++++++++",
"++++++++++++++++++++++++++++++++++++++++++++++++++++++++++++++++",
"++++++++++++++++++++++++++++++++++++++++++++++++++++++++++++++++",
"++++++++++++++++++++++++++++++++++++++++++++++++++++++++++++++++",
"++++++++++++++++++++++++++++++++++++++++++++++++++++++++++++++++",
"++++++++++++++++++++++++++++++++++++++++++++++++++++++++++++++++",
"++++++++++++++++++++++++++++++++++++++++++++++++++++++++++++++++",
"++++++++++++++++++++++++++++++++++++++++++++++++++++++++++++++++",
"++++++++++++++++++++++++++++++++++++++++++++++++++++++++++++++++",
"++++++++++++++++++++++++++++++++++++++++++++++++++++++++++++++++",
"++++++++++++++++++++++++++++++++++++++++++++++++++++++++++++++++"
};
