/* XPM */
static char *result[] = {
/* columns rows colors chars-per-pixel */
"64 64 6 1 ",
"  c #080000",
". c #484800",
"X c #909000",
"o c #FCFC00",
"O c gray99",
"+ c None",
/* pixels */
"++++++++++++++++++++++++++++++++++++++++++++++++++++++++++++++++",
"++++++++++++++++++++++++++++++++++++++++++++++++++++++++++++++++",
"++++++++++++++++++++++++++++++++++++++++++++++++++++++++++++++++",
"++++++++++++++++++++++++++++++++++++++++++++++++++++++++++++++++",
"++++++++++++++++++++++++++++++++++++++++++++++++++++++++++++++++",
"++++++++++++++++++++++++++++++++++++++++++++++++++++++++++++++++",
"++++++++++++++++++++++++++++++++++++++++++++++++++++++++++++++++",
"++++++++++++++++++++++++++++++++++++++++++++++++++++++++++++++++",
"++++++++++++++++++++++++++++++++++++++++++++++++++++++++++++++++",
"++++++++++++++++++++++++++++++++++++++++++++++++++++++++++++++++",
"++++++++++++++++++++++++++++++++++++++++++++++++++++++++++++++++",
"++++++++++++++++++++++++++++++++++++++++++++++++++++++++++++++++",
"++++++++++++++++++++++++++++         +++++++++++++++++++++++++++",
"++++++++++++++++++++++++++++         +++++++++++++++++++++++++++",
"++++++++++++++++++++++++    ooooXXXXX  +++++++++++++++++++++++++",
"++++++++++++++++++++++++    ooooXXXXX  +++++++++++++++++++++++++",
"++++++++++++++++++++++  ooOOoooooooooXX  +++++++++++++++++++++++",
"++++++++++++++++++++++  ooOOoooooooooXX  +++++++++++++++++++++++",
"++++++++++++++++++++  ooOOooXX.....XXooXX  +++++++++++++++++++++",
"++++++++++++++++++++  ooOOooXX.....XXooXX  +++++++++++++++++++++",
"++++++++++++++++++++  OOooXX..     ..XXooXX  +++++++++++++++++++",
"++++++++++++++++++++  OOooXX..     ..XXooXX  +++++++++++++++++++",
"++++++++++++++++++++  OOooXX..     ..XXooXX  +++++++++++++++++++",
"++++++++++++++++++  ooOOooXX         ..ooXX  +++++++++++++++++++",
"++++++++++++++++++  ooOOooXX         ..ooXX  +++++++++++++++++++",
"++++++++++++++++++  ooOOXX..  +++++  ..XXoo..  +++++++++++++++++",
"++++++++++++++++++  ooOOXX..  +++++  ..XXoo..  +++++++++++++++++",
"++++++++++++++++++  OOooXX..  +++++    XXoo..  +++++++++++++++++",
"++++++++++++++++++  OOooXX..  +++++    XXoo..  +++++++++++++++++",
"++++++++++++++++++  OOooXX..  +++++++  XXoo..  +++++++++++++++++",
"++++++++++++++++++  OOooXX..  +++++++  XXoo..  +++++++++++++++++",
"++++++++++++++++++  OOooXX..  +++++++  XXoo..  +++++++++++++++++",
"++++++++++++++++++  OOooXX..  +++++++  XXoo..  +++++++++++++++++",
"++++++++++++++++++  OOooXX..  +++++++  XXoo..  +++++++++++++++++",
"++++++++++++++++++  OOooXX..  +++++++  XXoo..  +++++++++++++++++",
"++++++++++++++++++  XXOOXX..  +++++  ..XXoo..  +++++++++++++++++",
"++++++++++++++++++  XXOOXX..  +++++  ..XXoo..  +++++++++++++++++",
"++++++++++++++++++  ..ooooXX  +++++  XXoo..    +++++++++++++++++",
"++++++++++++++++++  ..ooooXX  +++++  XXoo..    +++++++++++++++++",
"++++++++++++++++++    XXooXX..     XXXXoo..  +++++++++++++++++++",
"++++++++++++++++++    XXooXX..     XXXXoo..  +++++++++++++++++++",
"++++++++++++++++++++  ..ooooXXXXXXXoooo..    +++++++++++++++++++",
"++++++++++++++++++++  ..ooooXXXXXXXoooo..    +++++++++++++++++++",
"++++++++++++++++++++  ..ooooXXXXXXXoooo..    +++++++++++++++++++",
"++++++++++++++++++++    ....oooooooXX..    +++++++++++++++++++++",
"++++++++++++++++++++    ....oooooooXX..    +++++++++++++++++++++",
"++++++++++++++++++++++      .........    +++++++++++++++++++++++",
"++++++++++++++++++++++      .........    +++++++++++++++++++++++",
"++++++++++++++++++++++++               +++++++++++++++++++++++++",
"++++++++++++++++++++++++               +++++++++++++++++++++++++",
"++++++++++++++++++++++++++++         +++++++++++++++++++++++++++",
"++++++++++++++++++++++++++++         +++++++++++++++++++++++++++",
"++++++++++++++++++++++++++++++++++++++++++++++++++++++++++++++++",
"++++++++++++++++++++++++++++++++++++++++++++++++++++++++++++++++",
"++++++++++++++++++++++++++++++++++++++++++++++++++++++++++++++++",
"++++++++++++++++++++++++++++++++++++++++++++++++++++++++++++++++",
"++++++++++++++++++++++++++++++++++++++++++++++++++++++++++++++++",
"++++++++++++++++++++++++++++++++++++++++++++++++++++++++++++++++",
"++++++++++++++++++++++++++++++++++++++++++++++++++++++++++++++++",
"++++++++++++++++++++++++++++++++++++++++++++++++++++++++++++++++",
"++++++++++++++++++++++++++++++++++++++++++++++++++++++++++++++++",
"++++++++++++++++++++++++++++++++++++++++++++++++++++++++++++++++",
"++++++++++++++++++++++++++++++++++++++++++++++++++++++++++++++++",
"++++++++++++++++++++++++++++++++++++++++++++++++++++++++++++++++"
};
