/* XPM */
static char *result[] = {
/* columns rows colors chars-per-pixel */
"192 64 15 1 ",
"  c black",
". c #403A00",
"X c #735C02",
"o c #1A6662",
"O c #9D7E02",
"+ c #49F31A",
"@ c #C8A002",
"# c #E3C801",
"$ c #FFF200",
"% c #BFA640",
"& c #003080",
"* c #1655BF",
"= c #33DFE1",
"- c white",
"; c None",
/* pixels */
";;;;;;;;;;;;;;;;;;;;;;;;;;;;;;;;;;;;;;;;;;;;;;;;;;;;;;;;;;;;;;;;;;;;;;;;;;;;;;;;;;;;;;;;;;;;;;;;;;;;;;;;;;;;;;;;;;;;;;;;;;;;;;;;;;;;;;;;;;;;;;;;;;;;;;;;;;;;;;;;;;;;;;;;;;;;;;;;;;;;;;;;;;;;;;;;",
";;;;;;;;;;;;;;;;;;;;;;;;;;;;;;;;;;;;;;;;;;;;;;;;;;;;;;;;;;;;;;;;;;;;;;;;;;;;;;;;;;;;;;;;;;;;;;;;;;;;;;;;;;;;;;;;;;;;;;;;;;;;;;;;;;;;;;;;;;;;;;;;;;;;;;;;;;;;;;;;;;;;;;;;;;;;;;;;;;;;;;;;;;;;;;;;",
";;;;;;;;;;;;;;;;;;;;;;;;;;;;;;;;;;;;;;;;;;;;;;;;;;;;;;;;;;;;;;;;;;;;;;;;;;;;;;;;;;;;;;;;;;;;;;;;;;;;;;;;;;;;;;;;;;;;;;;;;;;;;;;;;;;;;;;;;;;;;;;;;;;;;;;;;;;;;;;;;;;;;;;;;;;;;;;;;;;;;;;;;;;;;;;;",
";;;;;;;;;;;;;;;;;;;;;;;;;;;;;;;;;;;;;;;;;;;;;;;;;;;;;;;;;;;;;;;;;;;;;;;;;;;;;;;;;;;;;;;;;;;;;;;;;;;;;;;;;;;;;;;;;;;;;;;;;;;;;;;;;;;;;;;;;;;;;;;;;;;;;;;;;;;;;;;;;;;;;;;;;;;;;;;;;;;;;;;;;;;;;;;;",
";;;;;;;;;;;;;;;;;;;;;;;;;;;;;;;;;;;;;;;;;;;;;;;;;;;;;;;;;;;;;;;;;;;;;;;;;;;;;;;;;;;;;;;;;;;;;;;;;;;;;;;;;;;;;;;;;;;;;;;;;;;;;;;;;;;;;;;;;;;;;;;;;;;;;;;;;;;;;;;;;;;;;;;;;;;;;;;;;;;;;;;;;;;;;;;;",
";;;;;;;;;;;;;;;;;;;;;;;;;;;;;;;;;;;;;;;;;;;;;;;;;;;;;;;;;;;;;;;;;;;;;;;;;;;;;;;;;;;;;;;;;;;;;;;;;;;;;;;;;;;;;;;;;;;;;;;;;;;;;;;;;;;;;;;;;;;;;;;;;;;;;;;;;;;;;;;;;;;;;;;;;;;;;;;;;;;;;;;;;;;;;;;;",
";;;;;;;;;;;;;;;;;;;;;;;;;;;;;;;;;;;;;;;;;;;;;;;;;;;;;;;;;;;;;;;;;;;;;;;;;;;;;;;;;;;;;;;;;;;;;;;;;;;;;;;;;;;;;;;;;;;;;;;;;;;;;;;;;;;;;;;;;;;;;;;;;;;;;;;;;;;;;;;;;;;;;;;;;;;;;;;;;;;;;;;;;;;;;;;;",
";;;;;;;;;;;;;;;;;;;;;;;;;;;;;;;;;;;;;;;;;;;;;;;;;;;;;;;;;;;;;;;;;;;;;;;;;;;;;;;;;;;;;;;;;;;;;;;;;;;;;;;;;;;;;;;;;;;;;;;;;;;;;;;;;;;;;;;;;;;;;;;;;;;;;;;;;;;;;;;;;;;;;;;;;;;;;;;;;;;;;;;;;;;;;;;;",
";;;;;;;;;;;;;;;;;;;;;;;;;;;;;;;;;;;;;;;;;;;;;;;;;;;;;;;;;;;;;;;;;;;;;;;;;;;;;;;;;;;;;;;;;;;;;;;;;;;;;;;;;;;;;;;;;;;;;;;;;;;;;;;;;;;;;;;;;;;;;;;;;;;;;;;;;;;;;;;;;;;;;;;;;;;;;;;;;;;;;;;;;;;;;;;;",
";;;;;;;;;;;;;;;;;;;;;;;;;;;;;;;;;;;;;;----------------;;;;;;;;;;;;;;;;;;;;;;;;;;;;;;;;;;;;;;;;;;;;;;;;;;;;;;;;;;;;;;;;;;;;;;;;;;;;;;;;;;;;;;;;;;;;;;;;;;;;;;;;;;;;;;;;;;;;;;;;;;;;;;;;;;;;;;;;;;",
";;;;;;;;;;;;;;;;;;;;;;;;;;;;;;;;;;;;;;----------------;;;;;;;;;;;;;;;;;;;;;;;;;;;;;;;;;;;;;;;;;;;;;;;;;;;;;;;;;;;;;;;;;;;;;;;;;;;;;;;;;;;;;;;;;;;;;;;;;;;;;;;;;;;;;;;;;;;;;;;;;;;;;;;;;;;;;;;;;;",
";;;;;;;;;;;;;;;;;;;;;;;;;;;;;;;;;;;;;;----------------;;;;;;;;;;;;;;;;;;;;;;;;;;;;;;;;;;;;;;;;;;;;;;;;;;;;;;;;;;;;;;;;;;;;;;;;;;;;;;;;;;;;;;;;;;;;;;;;;;;;;;;;;;;;;;;;;;;;;;;;;;;;;;;;;;;;;;;;;;",
";;;;;;;;;;;;;;;;;;;;;;;;;;;;;;;;;;;---%%%...........%%---;;;;;;;;;;;;;;;;;;;;;;;;;;;;;;;;;;;;;;;;;;;;;;;;;;;;;;;;;;;;;;;;;;;;;;;;;;;;;;;;;;;;;;;;;;;;;;;;;;;;;;;;;;;;;;;;;;;;;;;;;;;;;;;;;;;;;;;",
";;;;;;;;;;;;;;;;;;;;;;;;;;;;;;;;;;;---%%%...........%%---;;;;;;;;;;;;;;;;;;;;;;;;;;;;;;;;;;;;;;;;;;;;;;;;;;;;;;;;;;;;;;;;;;;;;;;;;;;;;;;;;;;;;;;;;;;;;;;;;;;;;;;;;;;;;;;;;;;;;;;;;;;;;;;;;;;;;;;",
";;;;;;;;;;;;;;;;;;;;;;;;;;;;;;;;;;;---%%%...........%%---;;;;;;;;;;;;;;;;;;;;;;;;;;;;;;;                    ;;;;;;;            ;;;;            ;;;;;;;;;;;;;;;;;;;;;;;;;;;;;;;;;;;;;;;;;;;;;;;;;",
";;;;;;;;;;;;;;;;;;;;;;;;;;;;;;;;;--%%%...@@@$$$$$@@@..%%%---;;;;;;;;;;;;;;;;;;;;;;;;;;;;                    ;;;;;;;            ;;;;            ;;;;;;;;;;;;;;;;;;;;;;;;;;;;;;;;;;;;;;;;;;;;;;;;;",
";;;;;;;;;;;;;;;;;;;;;;;;;;;;;;;;;--%%%...@@@$$$$$@@@..%%%---;;;;;;;;;;;;;;;;;;;;;;;;;;;;                    ;;;;;;;            ;;;;            ;;;;;;;;;;;;;;;;;;;;;;;;;;;;;;;;;;;;;;;;;;;;;;;;;",
"&&&&&&&&&&&&&&&&&&&&&&&&&&&&&&---%%...@@@$$$$$OOOOOO@@...%%%---&&&&&&&&&&&&&&&&&&&&&&&&&                    &&&&&&&            &&&&            &&&&&&&&&&&&&&&&&&&&&&&&&&&&&&&&&&&&&&&&&&&&&&&&&",
"&&&&&&&&&&&&&&&&&&&&&&&&&&&&&&---%%...@@@$$$$$OOOOOO@@...%%%---&&&&&&&&&&&&&&&&&&&&&    oooo============oooo    &&&    ====        oooo====    &&&&&&&&&&&&&&&&&&&&&&&&&&&&&&&&&&&&&&&&&&&&&&&&&",
"&&&&&&&&&&&&&&&&&&&&&&&&&&&&&&---%%...@@@$$$$$OOOOOO@@...%%%---&&&&&&&&&&&&&&&&&&&&&    oooo============oooo    &&&    ====        oooo====    &&&&&&&&&&&&&&&&&&&&&&&&&&&&&&&&&&&&&&&&&&&&&&&&&",
"&&++++++++++++++++++++++++++++---..@@@$$$@@@.....XXXOO@@@...---+++++++++++++++++++++    oooo============oooo    +++    ====        oooo====    +++++++++++++++++++++++++++**+++***+++++***+++***",
"&&++++++++++++++++++++++++++++---..@@@$$$@@@.....XXXOO@@@...---+++++++++++++++++++++    oooo============oooo    +++    ====        oooo====    +++++++++++++++++++++++++++**+++***+++++***+++***",
"&&++++++++++++++++++++++++++++---..@@@$$$@@@.....XXXOO@@@...---+++++++++++++++++++++    ====oooo    oooo====    +++    ====    oooo====oooo    +++++++++++++++++++++++++++**+++***+++++***+++***",
"&&***++++++++++++++++++++++---%%%..$$$@@@...-----...XXOOO...%%%--+++++++++++++++++++    ====oooo    oooo====    +++    ====    oooo====oooo    +++++++++++++++++++++++++++++***+++*****+++***+++",
"&&***++++++++++++++++++++++---%%%..$$$@@@...-----...XXOOO...%%%--+++++++++++++++++++    ====oooo    oooo====    +++    ====    oooo====oooo    +++++++++++++++++++++++++++++***+++*****+++***+++",
"&&***++++++++++++++++++++++---%%%..$$$@@@...-----...XXOOO...%%%--+++++++++++++++++++    ====oooo    oooo====    +++    ====    oooo====oooo    +++++++++++++++++++++++++++++***+++*****+++***+++",
";;&&&++++++++++++++++++++++---...@@$$$...---+++++---..OOO@@@...--+++++++++++++++++++    ====    ++++    ====    +++    ====oooo====oooo    +++++++++++++++++++++++++++++++**+++***+++++***+++***",
";;&&&++++++++++++++++++++++---...@@$$$...---+++++---..OOO@@@...--+++++++++++++++++++    ====    ++++    ====    +++    ====oooo====oooo    +++++++++++++++++++++++++++++++**+++***+++++***+++***",
";;&&&***+++++++++++++++++++---...#####...---+++++---..OOO@@@...--+++++++++++++++++++    ====    ++++    ====    +++    ====oooo====oooo    +++++++++++++++++++++++++++++++++***+++*****+++***+++",
";;&&&***+++++++++++++++++++---...#####...---+++++---..OOO@@@...--+++++++++++++++++++    ====    ++++    ====    +++    ====oooo====oooo    +++++++++++++++++++++++++++++++++***+++*****+++***+++",
";;&&&***+++++++++++++++++++---...#####...---+++++---..OOO@@@...--+++++++++++++++++++    ====    ++++    ====    +++    ========oooo    +++++++++++++++++++++++++++++++++++++***+++*****+++***+++",
";;;;;&&&+++++++++++++++++++---...@@###...---+++++---..@@@###...--+++++++++++++++++++    ====    ++++    ====    +++    ========oooo    +++++++++++++++++++++++++++++++++++**+++***+++++***+++***",
";;;;;&&&+++++++++++++++++++---...@@###...---+++++---..@@@###...--+++++++++++++++++++    ====    ++++    ====    +++    ========oooo    +++++++++++++++++++++++++++++++++++**+++***+++++***+++***",
";;;;;&&&+++++++++++++++++++---...@@###...---+++++---..@@@###...--+++++++++++++++++++    ====    ++++    ====    +++    ========oooo    +++++++++++++++++++++++++++++++++++**+++***+++++***+++***",
";;;;;&&&***++++++++++++++++---...OO@@@...---+++++---..###$$$...--+++++++++++++++++++    ====    ++++    ====    +++    ====oooo====oooo    +++++++++++++++++++++++++++++++++***+++*****+++***+++",
";;;;;&&&***++++++++++++++++---...OO@@@...---+++++---..###$$$...--+++++++++++++++++++    ====    ++++    ====    +++    ====oooo====oooo    +++++++++++++++++++++++++++++++++***+++*****+++***+++",
";;;;;&&&***++++++++++++++++---...OO@@@...---+++++---..###$$$...--+++++++++++++++++++    ====    ++++    ====    +++    ====oooo====oooo    +++++++++++++++++++++++++++++++++***+++*****+++***+++",
";;;;;;;;&&&++++++++++++++++---...XXOOO...---+++++---..$$$@@@...--+++++++++++++++++++    ====    ++++    ====    +++    ====oooo====oooo    +++++++++++++++++++++++++++++++**+++***+++++***+++***",
";;;;;;;;&&&++++++++++++++++---...XXOOO...---+++++---..$$$@@@...--+++++++++++++++++++    ====oooo    oooo====    +++    ====    oooo====oooo    +++++++++++++++++++++++++++**+++***+++++***+++***",
";;;;;;;;&&&**++++++++++++++---%%%..OOOOOO...-----...@@$$$...%%%--+++++++++++++++++++    ====oooo    oooo====    +++    ====    oooo====oooo    +++++++++++++++++++++++++++++***+++*****+++***+++",
";;;;;;;;&&&**++++++++++++++---%%%..OOOOOO...-----...@@$$$...%%%--+++++++++++++++++++    ====oooo    oooo====    +++    ====    oooo====oooo    +++++++++++++++++++++++++++++***+++*****+++***+++",
";;;;;;;;&&&**++++++++++++++---%%%..OOOOOO...-----...@@$$$...%%%--+++++++++++++++++++    ====oooo    oooo====    +++    ====    oooo====oooo    +++++++++++++++++++++++++++++***+++*****+++***+++",
";;;;;;;;;;;&&+++++++++++++++++---..XXX@@@OOO.....@@@$$@@@...---+++++++++++++++++++++    oooo============oooo    +++    ====        oooo====    +++++++++++++++++++++++++++**+++***+++++***+++***",
";;;;;;;;;;;&&+++++++++++++++++---..XXX@@@OOO.....@@@$$@@@...---+++++++++++++++++++++    oooo============oooo    +++    ====        oooo====    +++++++++++++++++++++++++++**+++***+++++***+++***",
";;;;;;;;;;;&&+++++++++++++++++---..XXX@@@OOO.....@@@$$@@@...---+++++++++++++++++++++    oooo============oooo    +++    ====        oooo====    +++++++++++++++++++++++++++**+++***+++++***+++***",
";;;;;;;;;;;&&&&&&&&&&&&&&&&&&&---%%...OOO@@@@@###$$$@@...%%%---&&&&&&&&&&&&&&&&&&&&&    oooo============oooo    &&&    ====        oooo====    &&&&&&&&&&&&&&&&&&&&&&&&&&&&&&&&&&&&&&&&&&&&&&&&&",
";;;;;;;;;;;&&&&&&&&&&&&&&&&&&&---%%...OOO@@@@@###$$$@@...%%%---&&&&&&&&&&&&&&&&&&&&&    oooo============oooo    &&&    ====        oooo====    &&&&&&&&&&&&&&&&&&&&&&&&&&&&&&&&&&&&&&&&&&&&&&&&&",
";;;;;;;;;;;&&&&&&&&&&&&&&&&&&&---%%...OOO@@@@@###$$$@@...%%%---&&&&&&&&&&&&&&&&&&&&&&&&&                    &&&&&&&            &&&&            &&&&&&&&&&&&&&&&&&&&&&&&&&&&&&&&&&&&&&&&&&&&&&&&&",
";;;;;;;;;;;;;;;;;;;;;;;;;;;;;;;;;--%%%...OOO##$$$@@@..%%%---;;;;;;;;;;;;;;;;;;;;;;;;;;;;                    ;;;;;;;            ;;;;            ;;;;;;;;;;;;;;;;;;;;;;;;;;;;;;;;;;;;;;;;;;;;;;;;;",
";;;;;;;;;;;;;;;;;;;;;;;;;;;;;;;;;--%%%...OOO##$$$@@@..%%%---;;;;;;;;;;;;;;;;;;;;;;;;;;;;                    ;;;;;;;            ;;;;            ;;;;;;;;;;;;;;;;;;;;;;;;;;;;;;;;;;;;;;;;;;;;;;;;;",
";;;;;;;;;;;;;;;;;;;;;;;;;;;;;;;;;;;---%%%...........%%---;;;;;;;;;;;;;;;;;;;;;;;;;;;;;;;                    ;;;;;;;            ;;;;            ;;;;;;;;;;;;;;;;;;;;;;;;;;;;;;;;;;;;;;;;;;;;;;;;;",
";;;;;;;;;;;;;;;;;;;;;;;;;;;;;;;;;;;---%%%...........%%---;;;;;;;;;;;;;;;;;;;;;;;;;;;;;;;;;;;;;;;;;;;;;;;;;;;;;;;;;;;;;;;;;;;;;;;;;;;;;;;;;;;;;;;;;;;;;;;;;;;;;;;;;;;;;;;;;;;;;;;;;;;;;;;;;;;;;;;",
";;;;;;;;;;;;;;;;;;;;;;;;;;;;;;;;;;;---%%%...........%%---;;;;;;;;;;;;;;;;;;;;;;;;;;;;;;;;;;;;;;;;;;;;;;;;;;;;;;;;;;;;;;;;;;;;;;;;;;;;;;;;;;;;;;;;;;;;;;;;;;;;;;;;;;;;;;;;;;;;;;;;;;;;;;;;;;;;;;;",
";;;;;;;;;;;;;;;;;;;;;;;;;;;;;;;;;;;;;;----------------;;;;;;;;;;;;;;;;;;;;;;;;;;;;;;;;;;;;;;;;;;;;;;;;;;;;;;;;;;;;;;;;;;;;;;;;;;;;;;;;;;;;;;;;;;;;;;;;;;;;;;;;;;;;;;;;;;;;;;;;;;;;;;;;;;;;;;;;;;",
";;;;;;;;;;;;;;;;;;;;;;;;;;;;;;;;;;;;;;----------------;;;;;;;;;;;;;;;;;;;;;;;;;;;;;;;;;;;;;;;;;;;;;;;;;;;;;;;;;;;;;;;;;;;;;;;;;;;;;;;;;;;;;;;;;;;;;;;;;;;;;;;;;;;;;;;;;;;;;;;;;;;;;;;;;;;;;;;;;;",
";;;;;;;;;;;;;;;;;;;;;;;;;;;;;;;;;;;;;;----------------;;;;;;;;;;;;;;;;;;;;;;;;;;;;;;;;;;;;;;;;;;;;;;;;;;;;;;;;;;;;;;;;;;;;;;;;;;;;;;;;;;;;;;;;;;;;;;;;;;;;;;;;;;;;;;;;;;;;;;;;;;;;;;;;;;;;;;;;;;",
";;;;;;;;;;;;;;;;;;;;;;;;;;;;;;;;;;;;;;;;;;;;;;;;;;;;;;;;;;;;;;;;;;;;;;;;;;;;;;;;;;;;;;;;;;;;;;;;;;;;;;;;;;;;;;;;;;;;;;;;;;;;;;;;;;;;;;;;;;;;;;;;;;;;;;;;;;;;;;;;;;;;;;;;;;;;;;;;;;;;;;;;;;;;;;;;",
";;;;;;;;;;;;;;;;;;;;;;;;;;;;;;;;;;;;;;;;;;;;;;;;;;;;;;;;;;;;;;;;;;;;;;;;;;;;;;;;;;;;;;;;;;;;;;;;;;;;;;;;;;;;;;;;;;;;;;;;;;;;;;;;;;;;;;;;;;;;;;;;;;;;;;;;;;;;;;;;;;;;;;;;;;;;;;;;;;;;;;;;;;;;;;;;",
";;;;;;;;;;;;;;;;;;;;;;;;;;;;;;;;;;;;;;;;;;;;;;;;;;;;;;;;;;;;;;;;;;;;;;;;;;;;;;;;;;;;;;;;;;;;;;;;;;;;;;;;;;;;;;;;;;;;;;;;;;;;;;;;;;;;;;;;;;;;;;;;;;;;;;;;;;;;;;;;;;;;;;;;;;;;;;;;;;;;;;;;;;;;;;;;",
";;;;;;;;;;;;;;;;;;;;;;;;;;;;;;;;;;;;;;;;;;;;;;;;;;;;;;;;;;;;;;;;;;;;;;;;;;;;;;;;;;;;;;;;;;;;;;;;;;;;;;;;;;;;;;;;;;;;;;;;;;;;;;;;;;;;;;;;;;;;;;;;;;;;;;;;;;;;;;;;;;;;;;;;;;;;;;;;;;;;;;;;;;;;;;;;",
";;;;;;;;;;;;;;;;;;;;;;;;;;;;;;;;;;;;;;;;;;;;;;;;;;;;;;;;;;;;;;;;;;;;;;;;;;;;;;;;;;;;;;;;;;;;;;;;;;;;;;;;;;;;;;;;;;;;;;;;;;;;;;;;;;;;;;;;;;;;;;;;;;;;;;;;;;;;;;;;;;;;;;;;;;;;;;;;;;;;;;;;;;;;;;;;",
";;;;;;;;;;;;;;;;;;;;;;;;;;;;;;;;;;;;;;;;;;;;;;;;;;;;;;;;;;;;;;;;;;;;;;;;;;;;;;;;;;;;;;;;;;;;;;;;;;;;;;;;;;;;;;;;;;;;;;;;;;;;;;;;;;;;;;;;;;;;;;;;;;;;;;;;;;;;;;;;;;;;;;;;;;;;;;;;;;;;;;;;;;;;;;;;",
";;;;;;;;;;;;;;;;;;;;;;;;;;;;;;;;;;;;;;;;;;;;;;;;;;;;;;;;;;;;;;;;;;;;;;;;;;;;;;;;;;;;;;;;;;;;;;;;;;;;;;;;;;;;;;;;;;;;;;;;;;;;;;;;;;;;;;;;;;;;;;;;;;;;;;;;;;;;;;;;;;;;;;;;;;;;;;;;;;;;;;;;;;;;;;;;",
";;;;;;;;;;;;;;;;;;;;;;;;;;;;;;;;;;;;;;;;;;;;;;;;;;;;;;;;;;;;;;;;;;;;;;;;;;;;;;;;;;;;;;;;;;;;;;;;;;;;;;;;;;;;;;;;;;;;;;;;;;;;;;;;;;;;;;;;;;;;;;;;;;;;;;;;;;;;;;;;;;;;;;;;;;;;;;;;;;;;;;;;;;;;;;;;"
};
