/* XPM */
static char *result[] = {
/* columns rows colors chars-per-pixel */
"64 64 235 2 ",
"   c #410101",
".  c #420A0A",
"X  c #4A0C0C",
"o  c #490900",
"O  c #541405",
"+  c #4E1414",
"@  c #431414",
"#  c #511515",
"$  c #561919",
"%  c #5A1C1C",
"&  c #64180E",
"*  c #5D2000",
"=  c #662401",
"-  c #7C3201",
";  c #753101",
":  c #762E0F",
">  c #492727",
",  c #5D2828",
"<  c #4A3131",
"1  c #4E3B3B",
"2  c #543636",
"3  c #622222",
"4  c #632A2A",
"5  c #613C3C",
"6  c #643636",
"7  c #76332B",
"8  c #774F3E",
"9  c #524343",
"0  c #544A4A",
"q  c #5C4B4A",
"w  c #5A5454",
"e  c #5C5959",
"r  c #624A4A",
"t  c #664646",
"y  c #605B5B",
"u  c #665959",
"i  c #745C5B",
"p  c #744C49",
"a  c #79695C",
"s  c #67615F",
"d  c #626262",
"f  c #6C6C6C",
"g  c #696565",
"h  c #736B6B",
"j  c #746665",
"k  c #747474",
"l  c #7C7C7C",
"z  c #7D7777",
"x  c #8A1514",
"c  c #920C02",
"v  c #AA1803",
"b  c #B11C04",
"n  c #853A01",
"m  c #863901",
"M  c #883D1D",
"N  c #A62905",
"B  c #A83302",
"V  c #B1270D",
"C  c #923736",
"Z  c #B33121",
"A  c #C52C07",
"S  c #CB3009",
"D  c #C53406",
"F  c #D4370B",
"G  c #D53A0B",
"H  c #DB3B0C",
"J  c #DA3E14",
"K  c #E33D0C",
"L  c #E83F0C",
"P  c #954302",
"I  c #9C4802",
"U  c #95481B",
"Y  c #A94D03",
"T  c #B45203",
"R  c #BC5B03",
"E  c #BA5703",
"W  c #AC5504",
"Q  c #965531",
"!  c #B55031",
"~  c #AD613E",
"^  c #AD7336",
"/  c #C54906",
"(  c #D74809",
")  c #C15D03",
"_  c #C65803",
"`  c #DA5B0B",
"'  c #DC4115",
"]  c #CC401B",
"[  c #E9420F",
"{  c #E6400F",
"}  c #E8550A",
"|  c #E44313",
" . c #EB4615",
".. c #ED4A19",
"X. c #E7481A",
"o. c #F24D1C",
"O. c #E75714",
"+. c #F1531B",
"@. c #CC6404",
"#. c #C86406",
"$. c #D36904",
"%. c #D76B05",
"&. c #DC7305",
"*. c #D9760C",
"=. c #D87015",
"-. c #EB6608",
";. c #E27405",
":. c #EC7C05",
">. c #E67907",
",. c #F07D05",
"<. c #F0770A",
"1. c #EA6712",
"2. c #F37815",
"3. c #E97511",
"4. c #CD4E32",
"5. c #EA5429",
"6. c #F25328",
"7. c #EF5833",
"8. c #F35C37",
"9. c #D5792E",
"0. c #E66422",
"q. c #EA6739",
"w. c #F4633E",
"e. c #EC7228",
"r. c #8B5A56",
"t. c #8E584C",
"y. c #A24E45",
"u. c #B75345",
"i. c #986C53",
"p. c #9B7656",
"a. c #8C6955",
"s. c #A67655",
"d. c #B07048",
"f. c #827C7C",
"g. c #867575",
"h. c #8E736D",
"j. c #AB726A",
"k. c #DC5542",
"l. c #D76757",
"z. c #C57740",
"x. c #F66E4C",
"c. c #F46643",
"v. c #EA6A52",
"b. c #CE776C",
"n. c #E46E60",
"m. c #DD820C",
"M. c #ED8207",
"N. c #EF8A0A",
"B. c #F28407",
"V. c #F48807",
"C. c #F48B09",
"Z. c #F4930C",
"A. c #F9940B",
"S. c #FA9C0F",
"D. c #F79A0F",
"F. c #E89410",
"G. c #F79C12",
"H. c #EA8A1C",
"J. c #FAA312",
"K. c #FCAE15",
"L. c #FAAB1B",
"P. c #EFA113",
"I. c #DA973A",
"U. c #D5873A",
"Y. c #E48B2C",
"T. c #EC9729",
"R. c #EA913C",
"E. c #F9A926",
"W. c #FCB02B",
"Q. c #F5A939",
"!. c #FCB135",
"~. c #E6A232",
"^. c #AD834F",
"/. c #A88358",
"(. c #B4864D",
"). c #98847B",
"_. c #B38E79",
"`. c #CF8F41",
"'. c #E49E55",
"]. c #FDB249",
"[. c #FAA953",
"{. c #FDB45A",
"}. c #FCAD44",
"|. c #C19D7D",
" X c #C78F6A",
".X c #EE8779",
"XX c #FDB76A",
"oX c #FEBB79",
"OX c #EEA96E",
"+X c #848484",
"@X c #8C8C8C",
"#X c #8A8585",
"$X c #969696",
"%X c #9B9B9B",
"&X c #999494",
"*X c #988C8C",
"=X c #A09494",
"-X c #AB8986",
";X c #BCA89B",
":X c gray64",
">X c #ACACAC",
",X c #B3B3B3",
"<X c #BDBDBD",
"1X c #BBB6B5",
"2X c #BCA6A4",
"3X c #D3948D",
"4X c #F38D81",
"5X c #F3958A",
"6X c #EF978F",
"7X c #FEBC82",
"8X c #EFA797",
"9X c #C4BBBB",
"0X c #D2B4B2",
"qX c #F6BAB6",
"wX c #F8B5AF",
"eX c #D5B18F",
"rX c #FEC18C",
"tX c #F2CAB1",
"yX c #C3C3C3",
"uX c #CCCBCB",
"iX c #C8C2C2",
"pX c #D3D3D3",
"aX c #DBDBDB",
"sX c #D5C8C6",
"dX c #F8DAC5",
"fX c #FADEDC",
"gX c #EED0CD",
"hX c #FCE6DA",
"jX c #E3E3E3",
"kX c #EAEAEA",
"lX c #EAE5E3",
"zX c #F3F3F3",
"xX c #FDFDFD",
"cX c #FDF3F2",
"vX c None",
/* pixels */
"vXvXvXvXvXvXvXvXvXvXvXvXvXvXvXvXvXvXvXvXvXvXvXvXvXvXvXvXvXvXvXvXvXvXvXvXvXvXvXvXvXvXvXvXvXvXvXvXvXvXvXvXvXvXvXvXvXvXvXvXvXvXvXvX",
"vXvXvXvXvXvXvXvXvXvXvXvXvXvXvXvXvXvXvXvXvXvXvXvXvXvXvXvXvXvXvXvXvXvXvXvXvXvXvXvXvXvXvXvXvXvXvXvXvXvXvXvXvXvXvXvXvXvXvXvXvXvXvXvX",
"vXvXvXvXvXvXvXvXvXvXvXvXvXvXvXvXvXvXvXvXvXvXvXvXvXvXaXuX<X:X$X$X:X<X<XvXvXvXvXvXvXvXvXvXvXvXvXvXvXvXvXvXvXvXvXvXvXvXvXvXvXvXvXvX",
"vXvXvXvXvXvXvXvXvXvXvXvXvXvXvXvXvXvXvXvXvXvXvXvXvXpXpX<X,X:X$X$X:X>X,XvXvXvXvXvXvXvXvXvXvXvXvXvXvXvXvXvXvXvXvXvXvXvXvXvXvXvXvXvX",
"vXvXvXvXvXvXvXvXvXvXvXvXvXvXvXvXvXvXvXvXvXvXvXvXaXuXyX>X$X$X$X$X$X$X>X<XyXvXvXvXvXvXvXvXvXvXvXvXvXvXvXvXvXvXvXvXvXvXvXvXvXvXvXvX",
"vXvXvXvXvXvXvXvXvXvXvXvXvXvXvXvXvXvXvXvXvXvXvXaXjXpXyX>X$X$X%X$X$X$X>XuXuXvXvXvXvXvXvXvXvXvXvXvXvXvXvXvXvXvXvXvXvXvXvXvXvXvXvXvX",
"vXvXvXvXvXvXvXvXvXvXvXvXvXvXvXvXvXvXvXvXvXvXaXaXjXaX<X>X$X$X$X$X$X$X,XpXaXvXvXvXvXvXvXvXvXvXvXvXvXvXvXvXvXvXvXvXvXvXvXvXvXvXvXvX",
"vXvXvXvXvXvXvXvXvXvXvXvXvXvXvXvXvXvXvXvXvXaXjXjXjXuX>X%X$X$X$X$X%X,XyXpXpXvXvXvXvXvXvXvXvXvXvXvXvXvXvXvXvXvXvXvXvXvXvXvXvXvXvXvX",
"vXvXvXvXvXvXvXvXvXvXvXvXvXvXvXvXvXvXvXvXaXjXkXjXaX<X$X$X$X$X$X$X:X<XuXpXpXvXvXvXvXvXvXvXvXvXvXvXvXvXvXvXvXvXvXvXvXvXvXvXvXvXvXvX",
"vXvXvXvXvXvXvXvXvXvXvXvXvXvXvXvXvXvXvXaXjXjXkXaXuX,X%X$X$X$X$X$X>XuXuXuXuXvXvXvXvXvXvXvXvXvXvXvXvXvXvXvXvXvXvXvXvXvXvXvXvXvXvXvX",
"vXvXvXvXvXvXvXvXvXvXvXvXvXvXvXvXvXvXjXjXkXkXkXaXiX,X%X$X$X$X$X:X,XuXuXyXvXvXvXvXvXvXvXvXvXvXvXvXvXvXvXvXvXvXvXvXvXvXvXvXvXvXvXvX",
"vXvXvXvXvXvXvXvXvXvXvXvXvXvXvXvXvXaXkXzXzXjXjXpXyX,X$X$X$X$X%X,X<XyXyXvXvXvXvXvXvXvXvXvXvXvXvXvXvXvXvXvXvXvXvXvXvXvXvXvXvXvXvXvX",
"vXvXvXvXvXvXvXvXvXvXvXvXvXvXvXvXjXjXzXxXzXkXaXuX,X>X$X$X$X$X:X<XyXyX<XvXvXvXvXvXvXvXvXvXvXvXvXvXvXvXvXvXvXvXvXvXvXvXvXvXvXvXvXvX",
"vXvXvXvXvXvXvXvXvXvXvXvXvXvXvXaXkXxXxXxXzXkXaXuX:X%X$X$X$X$X:XiXpXyXyXvXvXvXvXvXvXvXvXvXvXvXvXvXvXvXvXvXvXvXvXvXvXvXvXvXvXvXvXvX",
"vXvXvXvXvXvXvXvXvXvXvXvXvXvXjXkXzXxXxXzXkXaXpX<X:X$X$X$X$X:X,XyXuXyX<XvXvXvXvXvXvXvXvXvXvXvXvXvXvXvXvXvXvXvXvXvXvXvXvXvXvXvXvXvX",
"vXvXvXvXvXvXvXvXvXvXvXvXvXaXjXxXxXxXzXkXaXpXyX,X%X$X$X$X%X,X<XyX<XyXyXvXvXvXvXvXvXvXvXvXvXvXvXvXvXvXvXK.K.K.J.A.A.A.vXvXvXvXvXvX",
"vXvXvXvXvXvXvXvXvXvXvXvXvXaXkXxXxXzXkXlXtX8X3X3X&X$X$X$X%X,X<XyX<XyXvXvXvXvXvXvXvXvXvXvXvXvXA.V.B.,.V.D.J.S.J.J.S.A.C.vXvXvXvXvX",
"vXvXvXvXvXvXvXvXvXvXvXvXvXaXjXxXzXkXlXlX8X;.} l.-X$X$X$X%X,XyX<X<XvXvXvXvXvXvXvXvXvXvXvXvXvXA.V.,.B.B.C.A.A.S.K.S.A.V.,.vXvXvXvX",
"vXvXvXvXvXvXvXvXvXvXvXvXaXjXkXzXkXkXaXsX.X} -.q.l.j.z %X,X<X<X>X>XvXvXvXvXvXvXvXvXvXvXvXK.S.V.B.vXG.D.C.V.vXvXvXvXvXvXvXvXvXvXvX",
"vXvXvXvXvXvXvXvXvXvXvXaXaXkXkXkXkXkXpX9X3Xl.e.;.O.4.r.&X,X,X>X$X#XvXvXvXvXvXvXvXvXvXvXvXG.D.,.<.vXJ.J.C.,.vXvXvXvXvXvXvXvXvXvXvX",
"vXvXvXvXvXvXvXvXvXvXvXaXaXjXjXjXjXaXuX<X0X3Xn.-.1.0.4.j.+Xz h u q >     vXvXvXvXvXvXH O.2.2.<.1.+.B.C.vXvXvXvXvXvXvXvXvXvXvXvXvX",
"vXvXvXvXvXvXvXvXvXvXvXaXaXjXjXpXuXuX<X,X,X;Xb.0.3.0.4.y.w 9 < < < + .     vXvXvXvXvXJ X.6.e.<.1.6.1.>.vXvXvXvXvXvXvXvXvXvXvXvXvX",
"vXvXvXvXvXvXvXvXvXaXaXaXaXaXpXuX1X:X:X:X=X&Xh.y.X.4.r.t < 9 e e q 6 #     . 9 i ! J X.5.c.q.%.O.+.1.%.O.o.vXvXvXvXvXvXvXvXvXvXvX",
"vXvXvXvXvXvXvXvXvXuXuXuXuXuX<X,X:X%X$X$X%X@Xf r.u.y.r 9 9 g k k h r 2 # X . 1 t 4.X.7.w.x.q.` O.o.O.` ..o.vXvXvXvXvXvXvXvXvXvXvX",
"vXvXvXvXvXvXvXvXvXyXyXyX<X:X%X%X%X$X$X$X$X@Xf s i r > 9 d +X$X$X#Xg w 4 #   @ : ] 7.c.x.x.8.J  .+. . .o.X.J F vXvXvXvXvXvXvXvXvX",
"vXvXvXvXvXvXvXvXvX>X>X,X>X%X$X$X$X$X$X$X@Xl l k w 2 $ u +X1XyX:X@X+Xh r 2 # & x J 6.8.w.w.4XwX4Xo.6.7.8.7.X.| vXvXvXvXvXvXvXvXvX",
"vXvXvXvXvXvXvXvXvX$X$X$X$X$X$X$X$X%X$X$Xk k @Xf.1 # 3 g.:XaXzX<X$X$X#Xg t 3 x v ' o.o.o.o.wXxXqX6.w.x.x.c.6.o.vXvXvXvXvXvXvXvXvX",
"vXvXvXvXvXvXvXvXvX$X$X$X$X$X$X$X@Xl l k f f @Xf.2 # % i +X,XyX$Xl l k d t 3 x v L o.o.4XqXfXxXgXb.v.8.8.7.6.X.H vXvXvXvXvXvXvXvX",
"vXvXvXvXvXvXvXvXvX$X$X$X$X$X$X$Xl d d d d f @Xf.< # % r d +X#Xk d y d y t 3 x b J 6.o.8XcXxXxXpX*Xb.x.8.o.o.| H H vXvXvXvXvXvXvX",
"vXvXvXvXvXvXvXvXvX$X$X$X@X+Xk k f d d g l @X@Xh > # 3 6 t j k g d d e t 6 3 V S L o.o.8XcXxXxXiXg.0XgX.Xo.o. .L K vXvXvXvXvXvXvX",
"vXvXvXvXvXvXvXvXvX$X$X$X@Xf d d d d d f @X$XvXvX  # % 3 4 q y y e e t , % 3 Z S  .o.6.6XhXcXxX9Xi iXgX4Xo.o. .L K vXvXvXvXvXvXvX",
"vXvXvXvXvXvXvXvXvXvXvX$X@Xf e d d d l @X@XvXvXvX    X % 3 6 5 5 5 2 6 3 % + V F L  .o.v.4XgXxXsX#X*X-Xv.o. .| L K F vXvXvXvXvXvX",
"vXvXvXvXvXvXvXvXvXvXvX$X@Xz k k f d g.).j.vXvXm o     + % % 3 3 3 3 3 % # o v S H L  . .L 6XfXsX-Xy.V ] ..[ [ K F A vXvXvXvXvXvX",
"vXvXvXvXvXvXvXvXvXvXvXvXvX@X@X*X@XvXd.~ ! T T m O       X % 3 3 3 3 % X     c b S H L | L v.n.n.k.' H X.[ [ K G A v vXvXvXvXvXvX",
"vXvXvXvXvXvXvXvXvXvXvXvXvX$X@Xf.h vXn I R @.#.R P n - = . # $ $ % % #       7 C Z A H K K K L L L K H ( ( } } G D B vXvXvXvXvXvX",
"vXvXvXvXvXvXvXvXvXvXvXvXvXvXvX< @   O ; @.>.:.;.$.) Y m     .   .         . 9 u C b S H H K L L L H G / ) ;.-.G / Y vXvXvXvXvXvX",
"vXvXvXvXvXvXvXvXvXvXvXvXvXvXm o . . < 8 9.M.V.M.;.%.$.E P ;               . 0 u C v S S A F K H S ( ` $.&.N.&.D / $.$.vXvXvXvXvX",
"vXvXvXvXvXvXvXvXvXvXvXvXvXT m O   . 0 a.U.C.A.C.B.:.,.;.@.P               vXvXvXvXvXvXvXc b F b v E *.M.Z.A.*.N _ ,.&.$.vXvXvXvX",
"vXvXvXvXvXvXvXvXvXvXvXvXE ) #.) Q 0 w g p.`.T.P.D.A.V.M.&.) I P m = vXvXvXvXvXvXvXvXvXvXvXvXvX/ E m.T.[.[.E.M.N %.G.C.M.vXvXvXvX",
"vXvXvXvXvXvXvXvXvXvXvXE R $.&.:.9.a j g g /.I.E.E.P.S.V.M.&.$.R Y vXvXvXvXvXvXvXvXvXvXvXvXvXvX%.%.D.!.XXXX!.F.B *.K.J.A.vXvXvXvX",
"vXvXvXvXvXvXvXvXvXvXvX#.@.;.:.C.I.I._.+X+X)././.^.I.L.Z.M.>.%.I - vXvXvXvXvXvXvXvXvXvXvXvXvXvX>.>.C.E.}.].W.P.vXm.Z.S.J.vXvXvXvX",
"vXvXvXvXvXvXvXvXvXvXvX$.%.:.V.D.E.}.eX>X%X@Xl f d ^.~.Y.9.=.#.P   vXvXvXvXvXvXvXvXvXvXvXvXvXvXvXB.V.A.J.K.K.K.vXvXM.D.K.vXvXvXvX",
"vXvXvXvXvXvXvXvXvXvXE @.&.:.C.J.[.XXdXjX,X$X@Xl g a p.p.i.Q n O   vXvXvXvXvXvXvXvXvXvXvXvXvXvXvXvXB.V.A.J.K.K.vXvXvXA.S.vXvXvXvX",
"vXvXvXvXvXvXvXvXvXI Y #.&.:.A.K.{.rXhXzXpX<X;X_.s.a.s e q <       vXvXvXvXvXvXvXvXvXvXvXvXvXvXvXvXvXB.M.Z.J.J.vXvXvXvXA.vXvXvXvX",
"vXvXvXvXvXvXvXvXvX= - R &.V.S.K.{.rXhXxXzXkXtXXXR.d.j 0 > @       vXvXvXvXvXvXvXvXvXvXvXvXvXvXvXvXvXvX&.M.Z.D.vXvXvXvXvXvXvXvXvX",
"vXvXvXvXvXvXvXvXvX+ : #.>.Z.S.K.].XXtXhXhXdXrX].E.I.(.^ W I n m - vXvXvXvXvXvXvXvXvXvXvXvXvXvXvXvXvXvXvX&.C.vXvXvXvXvXvXvXvXvXvX",
"vXvXvXvXvXvXvXvXvX3 M =.B.A.J.K.K.W.XXrXrXoX].W.K.L.L.P.N.&.#.E Y vXvXvXvXvXvXvXvXvXvXvXvXvXvXvXvXvXvXvXvXvXvXvXvXvXvXvXvXvXvXvX",
"vXvXvXvXvXvXvXvXvX3 7 ~ 9.H.J.K.K.K.].XX{.{.W.K.K.K.J.S.N.&.@.) vXvXvXvXvXvXvXvXvXvXvXvXvXvXvXvXvXvXvXvXvXvXvXvXvXvXvXvXvXvXvXvX",
"vXvXvXvXvXvXvXvXvX3 6 u i.Y.D.K.K.K.K.K.K.K.K.K.K.J.A.V.:.&.$.vXvXvXvXvXvXvXvXvXvXvXvXvXvXvXvXvXvXvXvXvXvXvXvXvXvXvXvXvXvXvXvXvX",
"vXvXvXvXvXvXvXvXvX3 4 5 t.d.U.G.K.K.K.K.K.K.K.K.J.S.A.V.,.$._ vXvXvXvXvXvXvXvXvXvXvXvXvXvXvXvXvXvXvXvXvXvXvXvXvXvXvXvXvXvXvXvXvX",
"vXvXvXvXvXvXvXvXvXt 6 4 5 y s.R.Q.Q.W.J.K.K.K.J.A.A.A.B.>.@.T vXvXvXvXvXvXvXvXvXvXvXvXvXvXvXvXvXvXvXvXvXvXvXvXvXvXvXvXvXvXvXvXvX",
"vXvXvXvXvXvXvXvXvXf.g.p 5 e h._._.|.'.S.J.J.S.S.V.B.B.;.#.) vXvXvXvXvXvXvXvXvXvXvXvXvXvXvXvXvXvXvXvXvXvXvXvXvXvXvXvXvXvXvXvXvXvX",
"vXvXvXvXvXvXvXvXvX$X&Xf.g.z +X@X$X$X XY.Y.Y.H.m.&.&.&.@.T vXvXvXvXvXvXvXvXvXvXvXvXvXvXvXvXvXvXvXvXvXvXvXvXvXvXvXvXvXvXvXvXvXvXvX",
"vXvXvXvXvXvXvXvXvX$X%X1X<X,X%Xk +X$X).i.i.i.Q U U U n P vXvXvXvXvXvXvXvXvXvXvXvXvXvXvXvXvXvXvXvXvXvXvXvXvXvXvXvXvXvXvXvXvXvXvXvX",
"vXvXvXvXvXvXvXvXvX>X<XpXaXuX1X$X%X:X+Xd u t 2 % % $   vXvXvXvXvXvXvXvXvXvXvXvXvXvXvXvXvXvXvXvXvXvXvXvXvXvXvXvXvXvXvXvXvXvXvXvXvX",
"vXvXvXvXvXvXvXvX%XyXpXzXzXaXpXuXyX<X@Xe t , # X vXvXvXvXvXvXvXvXvXvXvXvXvXvXvXvXvXvXvXvXvXvXvXvXvXvXvXvXvXvXvXvXvXvXvXvXvXvXvXvX",
"vXvXvXvXvXvXvX$X%X<XpXkXkXaXpXyX,X:X@Xy 5 % X vXvXvXvXvXvXvXvXvXvXvXvXvXvXvXvXvXvXvXvXvXvXvXvXvXvXvXvXvXvXvXvXvXvXvXvXvXvXvXvXvX",
"vXvXvXvXvXvXvX$X$X,XyXpXaXaXyX:X+Xg vXvXvXvXvXvXvXvXvXvXvXvXvXvXvXvXvXvXvXvXvXvXvXvXvXvXvXvXvXvXvXvXvXvXvXvXvXvXvXvXvXvXvXvXvXvX",
"vXvXvXvXvXvXvXl +X>XyXuXuXyX,X%X+XvXvXvXvXvXvXvXvXvXvXvXvXvXvXvXvXvXvXvXvXvXvXvXvXvXvXvXvXvXvXvXvXvXvXvXvXvXvXvXvXvXvXvXvXvXvXvX",
"vXvXvXvXvXvXvXd f :X<X<X,X%X$XvXvXvXvXvXvXvXvXvXvXvXvXvXvXvXvXvXvXvXvXvXvXvXvXvXvXvXvXvXvXvXvXvXvXvXvXvXvXvXvXvXvXvXvXvXvXvXvXvX",
"vXvXvXvXvXvXvXd d +X@X$X@X$XvXvXvXvXvXvXvXvXvXvXvXvXvXvXvXvXvXvXvXvXvXvXvXvXvXvXvXvXvXvXvXvXvXvXvXvXvXvXvXvXvXvXvXvXvXvXvXvXvXvX",
"vXvXvXvXvXvXvXd d d d d d vXvXvXvXvXvXvXvXvXvXvXvXvXvXvXvXvXvXvXvXvXvXvXvXvXvXvXvXvXvXvXvXvXvXvXvXvXvXvXvXvXvXvXvXvXvXvXvXvXvXvX",
"vXvXvXvXvXvXvXd d e vXvXvXvXvXvXvXvXvXvXvXvXvXvXvXvXvXvXvXvXvXvXvXvXvXvXvXvXvXvXvXvXvXvXvXvXvXvXvXvXvXvXvXvXvXvXvXvXvXvXvXvXvXvX",
"vXvXvXvXvXvXvXvXd vXvXvXvXvXvXvXvXvXvXvXvXvXvXvXvXvXvXvXvXvXvXvXvXvXvXvXvXvXvXvXvXvXvXvXvXvXvXvXvXvXvXvXvXvXvXvXvXvXvXvXvXvXvXvX"
};
