/* XPM */
static char *result[] = {
/* columns rows colors chars-per-pixel */
"64 64 20 1 ",
"  c black",
". c gray18",
"X c #606060",
"o c #800000",
"O c #9A6D05",
"+ c #C64A0F",
"@ c #E15511",
"# c #EE6726",
"$ c #C48B06",
"% c #EBA707",
"& c #F8C40E",
"* c #FBEA1E",
"= c #F39567",
"- c gray59",
"; c #FEF8A7",
": c #C0C0C0",
"> c #D8D8D8",
", c gray92",
"< c white",
"1 c None",
/* pixels */
"11111111111111111111111>>::----:11111111111111111111111111111111",
"11111111111111111111111>>::----:11111111111111111111111111111111",
"1111111111111111111111>::-------::111111111111111111111111111111",
"1111111111111111111111>::-------::111111111111111111111111111111",
"11111111111111111111>>,::------->>111111111111111111111111111111",
"111111111111111111>>,,>--------:>>111111111111111111111111111111",
"111111111111111111>>,,>--------:>>111111111111111111111111111111",
"1111111111111111>>,,,,:-------->::111111111111111111111111111111",
"1111111111111111>>,,,,:-------->::111111111111111111111111111111",
"11111111111111>><<,,>>:------:::11111111111111111111111111111111",
"11111111111111>><<,,>>:------:::11111111111111111111111111111111",
"111111111111>><<<<,,>>------->>:11111111111111111111111111111111",
"111111111111>><<<<,,>>------->>:11111111111111111111111111111111",
"11111111111><<<<,,>>::-----:::::11111111111111111****&&&11111111",
"11111111111><<<<,,>>::-----:::::11111111111111111****&&&11111111",
"11111111111><<,,,,%%@@-----::::111111111111&&%%%%&&&&*&&%%111111",
"111111111>>,,,,,::@@%%@XX::::--11111111111*%%11**%%1111111111111",
"111111111>>,,,,,::@@%%@XX::::--11111111111*%%11**%%1111111111111",
"111111111>>,>>>>::::@@%@@XX       111111++#%%##%%111111111111111",
"111111111>>,>>>>::::@@%@@XX       111111++#%%##%%111111111111111",
"1111111>>>>>::------XX@XX  XXXX.    XX++##=$$##$$##1111111111111",
"1111111>>>>>::------XX@XX  XXXX.    XX++##=$$##$$##1111111111111",
"1111111::::---------XXX  XX----X..    ##===@@##@@##++11111111111",
"1111111::::---------XXX  XX----X..    ##===@@##@@##++11111111111",
"1111111-----------XX-- ..--<<---XX..oo#####<<##====##11111111111",
"1111111-----------XX-- ..--<<---XX..oo#####<<##====##11111111111",
"1111111-------XXXXXX-- ..XX--XXXXX..oo####<<<--######+1111111111",
"1111111----XXXXXXX--11 ....XXXXX....++####<<<..<<####@1111111111",
"1111111----XXXXXXX--11 ....XXXXX....++####<<<..<<####@1111111111",
"111111111--XXXXX--1111   .........  ++@@##@<<--  ##@@@++11111111",
"111111111--XXXXX--1111   .........  ++@@##@<<--  ##@@@++11111111",
"11111111111---11111111     .....    oo++@@@@@@@@@@@@@+oo11111111",
"11111111111---11111111     .....    oo++@@@@@@@@@@@@@+oo11111111",
"11111111111111111111OOO             XXoo+++@@@@++OO%%+OO11111111",
"11111111111111111111OOO             XXoo+++@@@@++OO%%+OO11111111",
"11111111111111111111$$%$$           111111o++oo$$&&&&o%%$$111111",
"11111111111111111111$$%$$           111111o++oo$$&&&&o%%$$111111",
"111111111111111111OO$$*&&&&%%%%O  XXOO1111111$$**;;**o**&&111111",
"111111111111111111OO%%&******XXXXX%%$$OO11111%%&&****1%%**111111",
"111111111111111111OO%%&******XXXXX%%$$OO11111%%&&****1%%**111111",
"111111111111111111  %%%**XXXX---**&&%%$$1111111%%&&**111&&111111",
"111111111111111111  %%%**XXXX---**&&%%$$1111111%%&&**111&&111111",
"111111111111111111    XXXXX----<;;**%%$$XX1111111$$&&11111111111",
"111111111111111111    XXXXX----<;;**%%$$XX1111111$$&&11111111111",
"111111111111111111     XX&&;;<<<;;**&&$$  1111111111111111111111",
"111111111111111111     XX&&;;<<<;;**&&$$  1111111111111111111111",
"111111111111111111OO$$&******;;;****&&XX..1111111111111111111111",
"111111111111111111OO$$&******;;;****&&XX..1111111111111111111111",
"11111111111111111111$$%&&***********&&....1111111111111111111111",
"11111111111111111111XX-&&&&*******&&XX....1111111111111111111111",
"11111111111111111111XX-&&&&*******&&XX....1111111111111111111111",
"1111111111111111111111...XX--&&&----XX..--1111111111111111111111",
"1111111111111111111111...XX--&&&----XX..--1111111111111111111111",
"11111111111111111111111  ....XXX--XX::>>--1111111111111111111111",
"11111111111111111111111  ....XXX--XX::>>--1111111111111111111111",
"111111111111111111111111111  ..X::>>>><<>>-111111111111111111111",
"111111111111111111111111111  ..X::>>>><<>>-111111111111111111111",
"11111111111111111111111111111111XX-->>>>::-111111111111111111111",
"11111111111111111111111111111111XX-->>>>::-111111111111111111111",
"111111111111111111111111111111111111--::::X111111111111111111111",
"11111111111111111111111111111111111111XXXXX111111111111111111111",
"11111111111111111111111111111111111111XXXXX111111111111111111111",
"111111111111111111111111111111111111111111X111111111111111111111",
"111111111111111111111111111111111111111111X111111111111111111111"
};
