/* XPM */
static char *result[] = {
/* columns rows colors chars-per-pixel */
"64 64 20 1 ",
"  c #400000",
". c #622222",
"X c #606060",
"o c #9F0000",
"O c #D4370B",
"+ c #E83F0C",
"@ c #B35103",
"# c #F24D1C",
"$ c #D26804",
"% c #F07D05",
"& c #F66F4D",
"* c #F9930A",
"= c #FCAF16",
"- c #FEBA7D",
"; c gray59",
": c #C0C0C0",
"> c #D8D8D8",
", c gray92",
"< c white",
"1 c None",
/* pixels */
"111111111111111111111111>:::;;;::1111111111111111111111111111111",
"111111111111111111111111>:::;;;::1111111111111111111111111111111",
"1111111111111111111111>>:;;;;;;;;::11111111111111111111111111111",
"1111111111111111111111>>:;;;;;;;;::11111111111111111111111111111",
"1111111111111111111111>>:;;;;;;;;::11111111111111111111111111111",
"1111111111111111111>>>,,:;;;;;;;;>>11111111111111111111111111111",
"111111111111111111>,,,>>;;;;;;;::>>11111111111111111111111111111",
"111111111111111111>,,,>>;;;;;;;::>>11111111111111111111111111111",
"1111111111111111>>,,,,::;;;;;;;>>::11111111111111111111111111111",
"1111111111111>>>11,>>>::;;;;;;:::1111111111111111111111111111111",
"1111111111111>>>11,>>>::;;;;;;:::1111111111111111111111111111111",
"1111111111111>>>11,>>>::;;;;;;:::1111111111111111111111111111111",
"111111111111111111,>>>;;;;;;;;>::1111111111111111111111111111111",
"11111111111>>111,,>:::;;;;;;:::::111111111111111111===****111111",
"11111111111>>111,,>:::;;;;;;:::::111111111111111111===****111111",
"11111111111>>,,,,,%+++;;;;;;:::11111111111111**%%%%***==**%%1111",
"11111111111>>,,,,,%+++;;;;;;:::11111111111111**%%%%***==**%%1111",
"11111111111>>,,,,,%+++;;;;;;:::11111111111111**%%%%***==**%%1111",
"111111111>>,,,,,::+%%%++X:::::;111111111111==%%11==%111111111111",
"111111111>>,,>>>:::+++%%+XXX       111111OO##%%##%%1111111111111",
"111111111>>,,>>>:::+++%%+XXX       111111OO##%%##%%1111111111111",
"1111111>>>>>>;;;;;;XXX++X   XXX..    XXOO##&&$$##$$#111111111111",
"1111111>>>>>>;;;;;;XXX++X   XXX..    XXOO##&&$$##$$#111111111111",
"1111111>>>>>>;;;;;;XXX++X   XXX..    XXOO##&&$$##$$#111111111111",
"1111111;;;;;;;;;;;X;;;  .;;;<<;;;XX..oo######<<##&&&##1111111111",
"1111111;;;;;;;;;;;X;;;  .;;;<<;;;XX..oo######<<##&&&##1111111111",
"1111111;;;;;;XXXXXX;;;  .XXX;;XXXXX..oo####<<<<;;#####OO11111111",
"1111111;;;;;;XXXXXX;;;  .XXX;;XXXXX..oo####<<<<;;#####OO11111111",
"1111111;;;;XXXXXXX;111  ....XXXXX....OO####<<<<..<<###++11111111",
"1111111;;;;XXXXXXX;111  ....XXXXX....OO####<<<<..<<###++11111111",
"1111111;;;;XXXXXXX;111  ....XXXXX....OO####<<<<..<<###++11111111",
"111111111;;XXXXX;;1111   ..........  OO++##++<<;;  #++++OO111111",
"11111111111;;111@@@@@@      .....    ooOO+++++++++++++OOoo111111",
"11111111111;;111@@@@@@      .....    ooOO+++++++++++++OOoo111111",
"1111111111111     %%%%$$@            XXooOOOO++++OO@%%OO@@111111",
"1111111111111     %%%%$$@            XXooOOOO++++OO@%%OO@@111111",
"1111111111111     %%%%$$@            XXooOOOO++++OO@%%OO@@111111",
"11111111111@@   XX****%%%$$$       11111111ooOOoo$$***oo%%$$1111",
"111111111@@$$XXXXXX=====*%%%$$@1111111111111111$$==-==oo==**1111",
"111111111@@$$XXXXXX=====*%%%$$@1111111111111111$$==-==oo==**1111",
"111111111$$%%===;;;XXXXX=%%%%% 1111111111111111%%**===11%%==1111",
"1111111@@$$%%---<<;;;;XXXXXX   111111111111111111%%*==1111**1111",
"1111111@@$$%%---<<;;;;XXXXXX   111111111111111111%%*==1111**1111",
"1111111@@$$%%---<<;;;;XXXXXX   111111111111111111%%*==1111**1111",
"1111111  $$**---<<<---**X      11111111111111111111$**1111111111",
"1111111..%%**===---======***$$@111111111111111111111111111111111",
"1111111..%%**===---======***$$@111111111111111111111111111111111",
"1111111..XX**===========*%%%$$1111111111111111111111111111111111",
"1111111..XX**===========*%%%$$1111111111111111111111111111111111",
"1111111..XX**===========*%%%$$1111111111111111111111111111111111",
"1111111....XX=========***%%%@@1111111111111111111111111111111111",
"1111111;;..XX;;;******%%%@@@111111111111111111111111111111111111",
"1111111;;..XX;;;******%%%@@@111111111111111111111111111111111111",
"1111111;;>>::;;;XXX..... 111111111111111111111111111111111111111",
"1111111;;>>::;;;XXX..... 111111111111111111111111111111111111111",
"1111111;;>>::;;;XXX..... 111111111111111111111111111111111111111",
"11111;;::>>>>XXX111111111111111111111111111111111111111111111111",
"11111;;::>>>>XXX111111111111111111111111111111111111111111111111",
"11111XX::::;;111111111111111111111111111111111111111111111111111",
"11111XX::::;;111111111111111111111111111111111111111111111111111",
"11111XXXXXX11111111111111111111111111111111111111111111111111111",
"11111XXXXXX11111111111111111111111111111111111111111111111111111",
"11111XXXXXX11111111111111111111111111111111111111111111111111111",
"11111XX111111111111111111111111111111111111111111111111111111111"
};
