/* XPM */
static char *result[] = {
/* columns rows colors chars-per-pixel */
"64 64 20 1 ",
"  c black",
". c gray18",
"X c #606060",
"o c #800000",
"O c #9A6D05",
"+ c #C64A0F",
"@ c #E15511",
"# c #EE6726",
"$ c #C48B06",
"% c #EBA707",
"& c #F8C40E",
"* c #FBEA1E",
"= c #F39567",
"- c gray59",
"; c #FEF8A7",
": c #C0C0C0",
"> c #D8D8D8",
", c gray92",
"< c white",
"1 c None",
/* pixels */
"11111111111111111111111111:>>>>>:1111111111111111111111111111111",
"11111111111111111111111111:>>>>>:1111111111111111111111111111111",
"1111111111111111111111::,,,,,,,,>::11111111111111111111111111111",
"11111111111111111111::>>>>>>>>11>>>11111111111111111111111111111",
"11111111111111111111::>>>>>>>>11>>>11111111111111111111111111111",
"11111111111111111111::>>>>>>>>11>>>11111111111111111111111111111",
"111111111111111111::--::>>,,,,11>>>11111111111111111111111111111",
"111111111111111111::--::>>,,,,11>>>11111111111111111111111111111",
"1111111111111111::----::>>>>>>,,>::11111111111111111111111111111",
"11111111111111::--------::,,,,11>1111111111111111111111111111111",
"11111111111111::--------::,,,,11>1111111111111111111111111111111",
"1111111111111>::::------::>,,,>>:1111111111111111111111111111111",
"1111111111111>::::------::>,,,>>:1111111111111111111111111111111",
"11111111111>>,,,>>::------>>>>>>:1111111111111111111111111111111",
"11111111111>>,,,>>::------>>>>>>:1111111111111111111111111111111",
"11111111111>>,,,,,%%@@::--:>>>::1111111111111111111***&&&&111111",
"11111111111>>,,,,,%%@@::--:>>>::1111111111111111111***&&&&111111",
"11111111>>>,,,,,::@@%%@@XX::::--11111111111**&&%%%%&&&***&%%1111",
"11111111>>>,,,,,::@@%%@@XX::::--11111111111**&&%%%%&&&***&%%1111",
"11111111>>>,,>>>::::@@%%@@X        111111++##%%##%%1111111111111",
"1111111>>>>>>:::::--XX@@XX XXXXX.     X++##==$$##$$#111111111111",
"1111111>>>>>>:::::--XX@@XX XXXXX.     X++##==$$##$$#111111111111",
"1111111:::::::------XXXX  X-----X..    ##====@@##@@#++1111111111",
"1111111:::::::------XXXX  X-----X..    ##====@@##@@#++1111111111",
"1111111:::::::------XXXX  X-----X..    ##====@@##@@#++1111111111",
"1111111::::-------XX--  ..-<<<---XX...o######<<##===##1111111111",
"1111111:------XXXXXX--  ..X---XXXXX...o####<<<<--#####+++1111111",
"1111111:------XXXXXX--  ..X---XXXXX...o####<<<<--#####+++1111111",
"1111111----XXXXXXX--11  ...XXXXXX.....+####<<<<..<<###@@@1111111",
"1111111----XXXXXXX--11  ...XXXXXX.....+####<<<<..<<###@@@1111111",
"11111111---XXXXX--1111    .........   +@@##@@<<--  #@@@@@+111111",
"11111111---XXXXX--1111    .........   +@@##@@<<--  #@@@@@+111111",
"11111111111---11OOOOOO     ......     o++@@@@@@@@@@@@@+++o111111",
"11111111111---11OOOOOO     ......     o++@@@@@@@@@@@@@+++o111111",
"1111111111111     %%%%$$OO            Xoo++++@@@@++O%%+++O111111",
"1111111111111     %%%%$$OO            Xoo++++@@@@++O%%+++O111111",
"11111111111OO   XX&&&&%%%%$        11111111oo++oo$$&&&ooo%$$1111",
"11111111111OO   XX&&&&%%%%$        11111111oo++oo$$&&&ooo%$$1111",
"11111111OOO$$%XXXXXX****&&%$$$OO111111111111111$$**;**ooo*&&1111",
"11111111$$$%%&**----XXXX**%%%%  111111111111111%%&&***111%**1111",
"11111111$$$%%&**----XXXX**%%%%  111111111111111%%&&***111%**1111",
"11111111$$$%%&**----XXXX**%%%%  111111111111111%%&&***111%**1111",
"1111111O$$$%%*;;<<----XXXXX     11111111111111111%%&**1111&&1111",
"1111111O$$$%%*;;<<----XXXXX     11111111111111111%%&**1111&&1111",
"1111111 $$$&&*;;<<<<;;&&XX      1111111111111111111$&&1111111111",
"1111111.%%%&&***;;;;******&$$$OO11111111111111111111111111111111",
"1111111.%%%&&***;;;;******&$$$OO11111111111111111111111111111111",
"1111111.XXX&&***********&&%$$$1111111111111111111111111111111111",
"1111111.XXX&&***********&&%$$$1111111111111111111111111111111111",
"1111111....XX&********&&&&%OOO1111111111111111111111111111111111",
"1111111....XX&********&&&&%OOO1111111111111111111111111111111111",
"1111111-...XX---&&&&&&%%%%O1111111111111111111111111111111111111",
"1111111-...XX---&&&&&&%%%%O1111111111111111111111111111111111111",
"1111111->>>::X--XXXX....  11111111111111111111111111111111111111",
"1111111->>>::X--XXXX....  11111111111111111111111111111111111111",
"11111--><<<>>>::XX..  111111111111111111111111111111111111111111",
"11111--:>>>>>-XX111111111111111111111111111111111111111111111111",
"11111--:>>>>>-XX111111111111111111111111111111111111111111111111",
"11111XX::::--111111111111111111111111111111111111111111111111111",
"11111XX::::--111111111111111111111111111111111111111111111111111",
"11111XX::::--111111111111111111111111111111111111111111111111111",
"11111XXXXXX11111111111111111111111111111111111111111111111111111",
"11111XX111111111111111111111111111111111111111111111111111111111",
"11111XX111111111111111111111111111111111111111111111111111111111"
};
