/* XPM */
static char *result[] = {
/* columns rows colors chars-per-pixel */
"64 64 20 1 ",
"  c #400000",
". c #622222",
"X c #606060",
"o c #9F0000",
"O c #D4370B",
"+ c #E83F0C",
"@ c #B35103",
"# c #F24D1C",
"$ c #D26804",
"% c #F07D05",
"& c #F66F4D",
"* c #F9930A",
"= c #FCAF16",
"- c #FEBA7D",
"; c gray59",
": c #C0C0C0",
"> c #D8D8D8",
", c gray92",
"< c white",
"1 c None",
/* pixels */
"1111111111111111111111111::;;;;:11111111111111111111111111111111",
"1111111111111111111111111::;;;;:11111111111111111111111111111111",
"111111111111111111111:::;;;;;;;;::111111111111111111111111111111",
"111111111111111111111:::;;;;;;;;::111111111111111111111111111111",
"11111111111111111111:;;;;;;;;;;;;;111111111111111111111111111111",
"11111111111111111111:;;;;;;;;;;;;;111111111111111111111111111111",
"111111111111111111::>:::;;;;;;;;;;111111111111111111111111111111",
"1111111111111111::>>,:::;;;;;;;;::111111111111111111111111111111",
"1111111111111111::>>,:::;;;;;;;;::111111111111111111111111111111",
"11111111111111::>><<,>>>:;;;;;;;11111111111111111111111111111111",
"11111111111111::>><<,>>>:;;;;;;;11111111111111111111111111111111",
"1111111111111:::::>><,,,:;;;;;;:11111111111111111111111111111111",
"1111111111111:::::>><,,,:;;;;;;:11111111111111111111111111111111",
"11111111111::;;;::::>,,,>::;;;;:11111111111111111111111111111111",
"11111111111;;;;;;;%%+:::>::;;::111111111111111111111111111111111",
"11111111111;;;;;;;%%+:::>::;;::111111111111111111111111111111111",
"11111111111;;;;;;;%%+:::>::;;::111111111111111111111111111111111",
"111111111::;;;;;;;++%+++X::::;;1111111111===*%%%%**=111111111111",
"111111111;;;;;;;;;;;+%%%+XX       111111O###%##%%%%***%%11111111",
"111111111;;;;;;;;;;;+%%%+XX       111111O###%##%%%%***%%11111111",
"1111111::;;;;;;;;;;;X+++X  XXXX.    XXOO#&&&$##$$##===**%%111111",
"1111111::;;;;;;;;;;;X+++X  XXXX.    XXOO#&&&$##$$##===**%%111111",
"1111111;;;;;;;;;;;::XXXX XX;;;;X..    ##&&&&+##++##O111111111111",
"1111111;;;;;;;;;;;::XXXX XX;;;;X..    ##&&&&+##++##O111111111111",
"1111111;;;;;;;::,,>>;   .;;<<;;;XX..oo######<##&&&&#111111111111",
"1111111;;;;;;;::,,>>;   .;;<<;;;XX..oo######<##&&&&#111111111111",
"1111111::;;::>,,>>::;   .XX;;XXXXX..oo###<<<<;;#####OO1111111111",
"1111111::::>><>>::;;1   ...XXXXX....OO###<<<<..<<###++1111111111",
"1111111::::>><>>::;;1   ...XXXXX....OO###<<<<..<<###++1111111111",
"1111111::::>><>>::;;1   ...XXXXX....OO###<<<<..<<###++1111111111",
"111111111;;::>::;;111    .........  OO++#+++<;;  ##+++OO11111111",
"11111111111;;:1111111      .....    ooOO++++++++++++OOoo11111111",
"11111111111;;:1111111      .....    ooOO++++++++++++OOoo11111111",
"11111111111111111111@@@@            XXooOOOO+++OO@@%OO@@11111111",
"11111111111111111111$%%%$           11111oooOoo$$***oo%%$$111111",
"11111111111111111111$%%%$           11111oooOoo$$***oo%%$$111111",
"11111111111111111111$%%%$           11111oooOoo$$***oo%%$$111111",
"111111111111111111@@$===***%%%%@  XX@@1111111$$==--=oo==**111111",
"111111111111111111@@%***=====XXXXX%%$$@@11111%%**===11%%==111111",
"111111111111111111@@%***=====XXXXX%%$$@@11111%%**===11%%==111111",
"111111111111111111  %%%%=XXXX;;;==**%%$$1111111%%**=1111**111111",
"111111111111111111  %%%%=XXXX;;;==**%%$$1111111%%**=1111**111111",
"111111111111111111   XXXXXX;;;;<--==%%$$X11111111$$*111111111111",
"111111111111111111   XXXXXX;;;;<--==%%$$X11111111$$*111111111111",
"111111111111111111      X**--<<<--==**$$ 11111111111111111111111",
"111111111111111111      X**--<<<--==**$$ 11111111111111111111111",
"111111111111111111@@$***=====---====**XX.11111111111111111111111",
"11111111111111111111$%%%*===========**...11111111111111111111111",
"11111111111111111111$%%%*===========**...11111111111111111111111",
"11111111111111111111$%%%*===========**...11111111111111111111111",
"11111111111111111111X;;;***=======**XX...11111111111111111111111",
"111111111111111111111....XX;;***;;;;XX..;11111111111111111111111",
"111111111111111111111....XX;;***;;;;XX..;11111111111111111111111",
"111111111111111111111111 ....XXX;;XX::>>;11111111111111111111111",
"111111111111111111111111 ....XXX;;XX::>>;11111111111111111111111",
"111111111111111111111111111  ..X::>>>><<>;;;11111111111111111111",
"111111111111111111111111111  ..X::>>>><<>;;;11111111111111111111",
"11111111111111111111111111111111XX;;>>>>:;;;11111111111111111111",
"111111111111111111111111111111111111;;:::XXX11111111111111111111",
"111111111111111111111111111111111111;;:::XXX11111111111111111111",
"11111111111111111111111111111111111111XXXXXX11111111111111111111",
"11111111111111111111111111111111111111XXXXXX11111111111111111111",
"11111111111111111111111111111111111111111XXX11111111111111111111",
"11111111111111111111111111111111111111111XXX11111111111111111111"
};
