/* XPM */
static char *result[] = {
/* columns rows colors chars-per-pixel */
"64 64 25 1 ",
"  c #498F02",
". c #479201",
"X c #4A9401",
"o c #479801",
"O c #4D9B02",
"+ c #519E03",
"@ c #589F02",
"# c #4EA203",
"$ c #4FA801",
"% c #52A403",
"& c #5AA503",
"* c #53A802",
"= c #5CAA03",
"- c #54A708",
"; c #62A704",
": c #63AC03",
"> c #6BAE04",
", c #62A708",
"< c #62A808",
"1 c #6CAE08",
"2 c #71AF04",
"3 c #6DB004",
"4 c #6EB008",
"5 c #72B104",
"6 c #73B108",
/* pixels */
"*XX#&%%OX=*&.X-*%%XO**% .%%--.+**% X-%-#.%*-+XX-%%O.**&OX+#%%O.&",
"6<%.. .#&526&O  .X%=524&+.  X%:555%O..Xo%<251%....+%1>5:% . .%-3",
"@%+&@&&%#&&&%+&@@&%%&&@@+;%@&#%&&%+@&&@*%&&&&O@&&&%%&&@&+@&&&%%&",
".%&255>%.#oo%=665>#.&oo*:522>OX%XO%:526:oX%.O%>525=Xo%.%%4>62% +",
"%*%%*=*::*%**#-*====--**+&*===****%%&*:=:***-%%*&==<%***%%*=**:*",
":=OO*::>:=:<&OO=>:3::<=*oO=>:3::::%o+<3:>=::=%X%=:>3=::=#O%:>>3=",
"3:%%*%#%#*<5=*-**##%*:1=**%%#%%*1>*%**##%%*>>%%**%%%**3:%*%*%%%%",
"oXO%%%OXo**XXo%-#OXo%#XX##*oO.O%#Xo##*OO.O%#XOO%*oo.##OXX%%%ooX%",
"..XO*&<%#OX..O+&&=O%OXXXo+:&=o+OX.XO%=&&O#OX.oO%:&%O+Oo.XO&&<%O%",
"%O->222=-X.%+*>253**XX#+*3535%%.O#-&6>2>%O.+O-=252>%O.%O%:355:*X",
"*OX***-%#X%*oX**%*-+o**XO%*%-%Oo%-.#***-%Oo*#.#-**%&XO*+X%****#X",
"=X.O%%+Oo=*=XX+%#+XO=%&.X%+%%X%=*&..%O#+.%==@XX%##%X*-&+XO%##OX=",
"5:-XXX.%=255&+XXXX&=555*O.  O$:524%+..X+-;555*X.. #%352>%. ..#&5",
"++O;&&;%++%++%,,&=#++++#%;;&=O++++O%;;&=O%++++&&:;%O+#+++&&;<%O%",
".-&6553%.-+X*=2253%X&OO%:552:#O%o#*:552:OO%o+%>355=O+%.%%5555*.%",
"%*+%*=*::%***o-*=*::****O*%==:**-*-O**==:****-+**=:;-%*%%%&*==:%",
":=#O*::3:=::*OO=:::::>:*O#=:::=:>:*o#=>:>=:>:%O#:::3=:::#O%:<::=",
">:*%*%###%=3=****#%%%=>*%%*%%%-*::****#%#%*::***%%##*%><****#%%%",
"X.oO%OOXX-@XXO+%OOXo%+..+O%OO.o##.XO#%OO.O%O..O#%OO %%o.oo%%OX.%",
"XXO%=::%+O.XXO+:::%OOXXX+%:::+@XO.X#&:&:O+XO.o#&::&OOOX.O%&<:&++",
"%+-:3>3=%.X*+%>>2>*-.o%+*>2>>*%.O#+*33>3*O O#%=>>3:%O.%#%:>>>:*o",
"-OX%***%OO%*XX*-*%%++--XO%-%%OOO%%XO**%%%O#*# +***%%O%*O %*%*%#O",
"=XXOO+OOO:*<XoO+OOo+:=&XO+O+#o+:=&.XOOOOX*==&XX+O++X&=:+XO+%O+X<",
"6:*XX.X*=555<%XX.O%:555*+XXXO%>255*OXXXO->635*X...%%>55:%X.XX%*5",
"+O%:::>+XOOX#%::::+OOOOO%1<<:oO+OOO*:;:<+O+O++&:::&O++OO#<:::&XO",
"X*&>>>>%O%%O-=>2>:%O*#O*=>33:%O*O+*:>23:O+*X%%:>33&OO*o%%>33>%o%",
"$*O&*:&::*%*-O%-:=>:**&*X%*:=:=%**%O**=:>***%##**=:>-**%%O*=*:4%",
":<#O*::::::>=#O=:::==>>*O%*:::=:>>%O%=:::=<1:#O%::::=>>:%O%::::=",
":*%**%OOO**;&***%OOO*=<%%*-%OO#*:;%%%*%Oo%*==%**%##o%%:=%**%O+O*",
"X.Xo%#%XX*#..oO*o%Xo%% .OO-o#.O%O..XO*o+.O#O.XoO%OO.%#X.Xo#+#o.*",
"XX#&:>>&%o.OX%&;>>%%XXXX#;>::%#XXX+%:3>:%#XXXO%:3>:#+XoXO&;>1=%o",
"&+#:>:>*%.o%+%<>>:%%.O*+%::>3*#.O-+%::>:*+.%%+*3:::$OX%O%=>>>=*X",
"%XX%*%%%OO-&XX&***OOO%%.O%*%-%O%*&Xo*-**OO%*%.+*-*%OO-%O.%%**%O%",
":@OX+OOO+:::OoO+OOO%>::+XOOOOO%:<&OXOXOOo&<:&XXOOOOX=::&XXX+OOX:",
"3:%XXXO%=>44-&XXXO*=>3>*+OXXO*:333-+XXX%*>351-XXXX-%332:-XXXX%-5",
"XO+>>>>%XOooO&2>:3OX+XX%&>>::OX+Xo#&>2;=XO+XO+:>5>&oOOX+%:>>3%XO",
"O**>>::*+-#O-*>:>:%+*##*&:>:=#O*++*=>>>*%O*O%*:::>*%%%+%*:>::*O%",
"**O+*:=:>****o%&==>:**%*X-*::>:****X**::>=**%%X-*::3***%+O*=::3*",
">=%#%:====>>=%%*=::*=3>&%%*::=&=>3%#%=:=:*:5>*#%=====:5>%%*=:=:=",
"&%-$*%OOo#=&%%*%%OOO$&&%%%%%OoO-&&%**%OOX#%*%#$$*OOO%%&%#***XOo$",
"X.XX%#%Xo%+. XX*O%XO%O...o-+%XO%O ..o%+% O%O.X.O%%#.%OO X.O%++X%",
"+X%=>35=%X.OX%:3>2%-.XO+%:3>5%%.XOO&>5>>%#.XO+&12>:*O.OO%*>53=*O",
"%+O=:::*-.O%+O:=::*%.o&O#::::*%.+%O%:::=*O.%%o&:::=%oX-OO*:::=%X",
"%XX%***+O#$%XX-*%*O+%-% o**%*oO%*%.O**%%oO%-OX+**%%X%%%O.#%**#o%",
">&+.XXX%+3:>@OX.XO+%>:>+OXoOO+&3:;OXXoX+O:;>;+XXXXOO::>&+XXXX#O3",
">=-OOXO-&:>>-+++X+%=>:;-++OX+-=>>>*+O+X%%:>>:-OOOO%*:>>:*OOXO%*:",
" O%>>23+.+OX+&>>2>+ +XO+&55>>oXOXo#<22>:XX+.X+:>22*XOOXO+12>>&.O",
"#%%::::%%%#O*%::::%%%%%%%:::=%%*##*&;::=%%%%*%=<::*&#%#%%&:::%%%",
"%*++*:<33*=**X%->::3=***X#=>:3:==**.&=>:3:=**#O%::>5==*=Oo*::>5*",
"3:#-*&=***:2:*%*=-=**35*%***=**=33*%-**=**=53%%%&*=**<5>$%&**=**",
"%O%%-%XXO%&+#%%*#XXX*%%O***+oXo-%+#%%%OoX+-%O%%%*.O.+*%+#**%XOX%",
"..o.%%*OO%O..XX&+=OO%O  XX%%&oO#OX..O*+&X%+X...+%%%.-+X..X+%%+o&",
"+O-<555=*XXOO%3325=%XX++*>555*%.XO+->22>%+.OX-=>55:*OXOo-:355:%+",
"*Oo&====#XO*OO====*#XO*X+==*=*OX%%o&==:**OX%%o*=:==*Xo-%X*===**.",
"*..#%%*oo*%%X.%%%*Oo%-%.o---%X+#-+XX**%-X+*%O.O%*%%X-%*o.O*%-OX&",
"4&@.XXX%@4>5%+XX..%&2>2%OX. X%;33>+OX.XO#:5>>#X ..OO>>5;%X.X.O%>",
":*#+@++%&&:<&++++%%&:;:%++++%%&:<<%++@+%%:=:<-@O+@%%&::=&O+++%%;",
".+%5222%.+o.%&225>O.#.X%;522>O.%Xo%:222:XoO.O#>525=XOO.##>552& O",
"%%%&&==*&*%%*%&===*&*-%%%=*:=***%%*%===&&%*%%%&*&:=*%%-%*&====&%",
"&=OO*>:3>=:*=X%*>:3>=:**XO=>>>:==**X%=:>5=:**%o%:>>>::*=+o-::>5=",
"2:%%**%%%%:>=-%**-%%*:6&*%****-*>2%-%**#-%%5>***%%*%-&3>***%**%*",
"+o#%%%oo.-*OOO%*+o.o-%+o%%%OX.o%%OO*%*oOXO%%OO#%$oO.#-+oO%%%oXX%",
"..Xo&&=+O%O .Xo*&=OOOOX XO*&=O+OX.XX#=%&X%OO.XO+=&%o&oXX.O&&&%+%",
"+O*>555=*X %#*5555=*.X+%&2556** O+%*5553*+XOo&=555>*OXOO*:555:-X"
};
