/* XPM */
static char *result[] = {
/* columns rows colors chars-per-pixel */
"64 64 246 2 ",
"   c #242428",
".  c #332E34",
"X  c #3D1D1D",
"o  c #740A0A",
"O  c #52362F",
"+  c #762732",
"@  c #6B2023",
"#  c #724B2F",
"$  c #744A13",
"%  c #393845",
"&  c #3F3F51",
"*  c #102676",
"=  c #11297C",
"-  c #142878",
";  c #303378",
":  c #713747",
">  c #4A386F",
",  c #543B50",
"<  c #48475A",
"1  c #59495A",
"2  c #785551",
"3  c #575369",
"4  c #5B5A76",
"5  c #4F4974",
"6  c #744A65",
"7  c #70546F",
"8  c #6D6877",
"9  c #3D427A",
"0  c #920303",
"q  c #AD0000",
"w  c #87313C",
"e  c #932B36",
"r  c #B42E35",
"t  c #BC1823",
"y  c #D0090C",
"u  c #D12E32",
"i  c #E13020",
"p  c #87560B",
"a  c #995C0A",
"s  c #915915",
"d  c #A15E0B",
"f  c #A9620A",
"g  c #B86809",
"h  c #A66717",
"j  c #BB7518",
"k  c #885928",
"l  c #885836",
"z  c #955C28",
"x  c #9B672D",
"c  c #AD6833",
"v  c #A46027",
"b  c #C86E07",
"n  c #CC720A",
"m  c #D87609",
"M  c #CB7519",
"N  c #DA7C13",
"B  c #CE7530",
"V  c #DA6A21",
"C  c #893846",
"Z  c #BD3346",
"A  c #CF3B48",
"S  c #8A4F55",
"D  c #B14654",
"F  c #956759",
"G  c #8D6554",
"H  c #B87956",
"J  c #AD6F4E",
"K  c #8D5A6C",
"L  c #996B65",
"P  c #97797A",
"I  c #906A71",
"U  c #A36C67",
"Y  c #A57667",
"T  c #B57B67",
"R  c #A77A75",
"E  c #B07E76",
"W  c #AE5464",
"Q  c #CD464D",
"!  c #CB7A51",
"~  c #CC5766",
"^  c #E06857",
"/  c #D8831B",
"(  c #E38619",
")  c #CC8726",
"_  c #D58A27",
"`  c #D68F33",
"'  c #ED9B2B",
"]  c #E89528",
"[  c #E89233",
"{  c #F7AA36",
"}  c #FCB038",
"|  c #F4A32F",
" . c #B8897B",
".. c #B58770",
"X. c #BD835E",
"o. c #C6895C",
"O. c #D49351",
"+. c #E59149",
"@. c #F6AC45",
"#. c #F2AB52",
"$. c #C98C64",
"%. c #CC9266",
"&. c #D5996A",
"*. c #CD9575",
"=. c #DAA273",
"-. c #E5AC77",
";. c #EFB170",
":. c #112C84",
">. c #122E89",
",. c #11318C",
"<. c #0F379B",
"1. c #123597",
"2. c #25388E",
"3. c #0F3DA9",
"4. c #123BA3",
"5. c #123DAA",
"6. c #213FA0",
"7. c #384795",
"8. c #3C4586",
"9. c #0F42B4",
"0. c #0F45BC",
"q. c #1549BB",
"w. c #1444AB",
"e. c #2942A7",
"r. c #2848B7",
"t. c #3251B2",
"y. c #54598B",
"u. c #4E518F",
"i. c #6D5597",
"p. c #5D6294",
"a. c #6C6B8A",
"s. c #726A87",
"d. c #78748B",
"f. c #6B6C95",
"g. c #797898",
"h. c #4E50AB",
"j. c #5664B4",
"k. c #7478AF",
"l. c #675DAE",
"z. c #0F47C0",
"x. c #0F49C2",
"c. c #104DC6",
"v. c #1354CA",
"b. c #135CD7",
"n. c #1361DC",
"m. c #1568E7",
"M. c #1673F5",
"N. c #1777FB",
"B. c #2C76F2",
"V. c #2D5DCE",
"C. c #526DD3",
"Z. c #467AED",
"A. c #6669C5",
"S. c #887689",
"D. c #987989",
"F. c #857B96",
"G. c #946F8E",
"H. c #A9768A",
"J. c #817EA1",
"K. c #8B72AD",
"L. c #845B8E",
"P. c #CE7589",
"I. c #7A88D2",
"U. c #5587F7",
"Y. c #7192F2",
"T. c #5F81CE",
"R. c #89829B",
"E. c #98879C",
"W. c #968A90",
"Q. c #A98686",
"!. c #B89896",
"~. c #AD8C95",
"^. c #B9A39E",
"/. c #8886A8",
"(. c #958CA6",
"). c #9996A9",
"_. c #9492B4",
"`. c #9B9ABC",
"'. c #9996B7",
"]. c #8D91B2",
"[. c #A698A7",
"{. c #A59CB9",
"}. c #B395AA",
"|. c #9AA5B6",
" X c #8AA0B8",
".X c #A8A5BB",
"XX c #B4A8B9",
"oX c #B7B1BA",
"OX c #B1A3A8",
"+X c #CE9592",
"@X c #D6AA96",
"#X c #D4A98E",
"$X c #E5B796",
"%X c #E5B28C",
"&X c #C594AE",
"*X c #C7A9A8",
"=X c #D0B3B2",
"-X c #E7A7A2",
";X c #F0C198",
":X c #EBC6AA",
">X c #E8CAB5",
",X c #9D9BC1",
"<X c #9599C7",
"1X c #8F98D2",
"2X c #A19EC3",
"3X c #96AAC4",
"4X c #95B1C8",
"5X c #A4A2C5",
"6X c #ACAACB",
"7X c #A8A7C8",
"8X c #B3ADC8",
"9X c #B4B3CD",
"0X c #B9B6C9",
"qX c #ABAAD3",
"wX c #B0AED3",
"eX c #B5B3D4",
"rX c #BAB8D8",
"tX c #A6B3CD",
"yX c #9BA9E8",
"uX c #C4BAC7",
"iX c #C2BED5",
"pX c #C7A9C3",
"aX c #D2BFD5",
"sX c #C6C4CC",
"dX c #D7C6C6",
"fX c #C3C2DC",
"gX c #CBCADB",
"hX c #C8C5D6",
"jX c #D2CBD9",
"kX c #D5D3DD",
"lX c #DBD5DA",
"zX c #E5D5D3",
"xX c #CBC9E1",
"cX c #D4D3E4",
"vX c #DDDAE2",
"bX c #DBD9E6",
"nX c #D1CDE4",
"mX c #E2DEE3",
"MX c #E4E1E4",
"NX c #E3E3EC",
"BX c #EAE9ED",
"VX c #EBEBF1",
"CX c #F4F4F5",
"ZX c #F1ECEB",
"AX c #ECE3DF",
"SX c None",
/* pixels */
"SXSXSXSXSXSXSXSXSXSXSXSXSXSXSXSXSXSXSXSXSXSXSXSXSXSXSXSXSXSXSXx.0.x.z.z.z.z.z.z.x.x.0.SXSXSXSXSXSXSXSXSXSXSXSXSXSXSXSXSXSXSXSXSX",
"SXSXSXSXSXSXSXSXSXSXSXSXSXSXSXSXSXSXSXSXSXSXSXSXSXSXSXSXSXSXx.x.z.x.z.z.z.z.z.z.x.q.x.x.SXSXSXSXSXSXSXSXSXSXSXSXSXSXSXSXSXSXSXSX",
"SXSXSXSXSXSXSXSXSXSXSXSXSXSXSXSXSXSXSXSXSXSXSXSXSXSX* * :.3.9.0.0.x.x.z.z.z.z.z.x.x.c.c.x.x.SXSXSXSXSXSXSXSXSXSXSXSXSXSXSXSXSXSX",
"SXSXSXSXSXSXSXSXSXSXSXSXSXSXSXSXSXSXSXSXSXSXSX* * * * * = :.>.<.5.x.z.z.z.z.z.z.q.v.m.n.c.0.x.0.x.SXSXSXSXSXSXSXSXSXSXSXSXSXSXSX",
"SXSXSXSXSXSXSXSXSXSXSXSXSXSXSXSXSXSXSXSXSXSXSXSXSX* * * * * - :.1.4.<.3.5.c.z.3.4.w.v.n.m.n.v.c.x.0.SXSXSXSXSXSXSXSXSXSXSXSXSXSX",
"SXSXSXSXSXSXSXSXSXSXSXSXSXSXSXSXSXSXSXSXSXSXSXSXSXSX* * * * - - * * * :.3.5.3.,.; > 2.q.M.M.m.v.x.x.x.SXSXSXSXSXSXSXSXSXSXSXSXSX",
"SXSXSXSXSXSXSXSXm SXSXSXSXSXSXSXSXSXSXSXSXSXSXSXSXSXSXSXSX= - - * * * * :.:.:.; 6 S 5 w.b.M.N.m.v.x.z.z.SXSXSXSXSXSXSXSXSXSXSXSX",
"SXSXSXSXSXSXSXSXSXm m SXSXSXSXSXSXSXSXSXSXSXSXSXSXSXSXSX9.5.4.4.5.3.3.4.:.- > 6 Y $.*.s.t.b.M.N.m.v.z.z.x.SXSXSXSXSXSXSXSXSXSXSX",
"SXSXSXSXSXSXSXSXSXB / ] SXSXSXSXSXSXSXSXSXSXSXSXSXSXSXz.r.t.h.h.h.V.v.0.1.> 6 H *.-.=.R u.0.m.N.M.b.x.z.x.5.SXSXSXSXSXSXSXSXSXSX",
"SXSXSXSX} } @.:XdXY ` ' / SXSXSXSXSXSXSXSXSXSXSXSXc.r.r.h.K k k 7 A.B.v.1.6 H *.-.-.-.D.u.q.m.N.M.b.c.x.x.3.:.* * * SXSXSXSXSXSX",
"SXSXSXm ( ( ] -.;XuX*.) ' j SXSXSXSXSXSXSXSXSXSXr.t.i.K T ! B b L _.1XC.c.i.U ..$.H.K.l.V.m.N.N.B.N.b.c.x.0.3.:.* * SXSXSXSXSXSX",
"SXSXSXm m m b _ &.$X=.) ` M g SXSXSXSXSXSXSXSXi.h.h.7 U +X=.%.M J {.qXY.Z.C.K.K.K.k.C.n.M.N.N.U.Y.U.m.c.x.0.5.:.* * SXSXSXSXSXSX",
"SXSXm SXSXSXp p d m ] ] d b / ( ( N ( | ' M h l G d.d.(.{.{.+XH F D.`.1XU.M.B.B.B.N.M.M.M.M.N.Y.yXU.B.c.x.0.5.:.* * SXSXSXSXSXSX",
"SXSXSXSXSXSXSXs x c ) / n / ( ' | { { { { ' c U [.uXhXgXhX8X{.H.I 7 p.C.B.N.B.Y.k.t.t.t.t.t.M.Z.U.U.m.v.x.0.9.:.* SXSXSXSXSXSXSX",
"SXSXSXSXSXSXSX) o.^.=.' ] ' | } } } } } } +...~.0XvXvXvXvXhXeX7X/.i.q.n.M.M.C.k.p.u.f././.k.j.V.m.N.m.c.x.x.9.:.SXSXSXSXSXSXSXSX",
"SXSXSXSXSXSX/ ' ;.dX;.| } } } } } } @.;.#.#.D.7XxXcXgXxXmXmXcXfX6XI.C.M.N.m.c.,.2.g.7XhXfXtX/.t.V.m.n.c.x.0.9.>.SXSXSXSXSXSXSXSX",
"SXSXSXSXSX( ] ) c ..X.) { } } { { { ;.:X;XO.W..XhXjX0XhXvXMXvXlXjXwXI.Z.N.m.c.2.f..XbXBXNXNXsXI.B.b.c.x.x.0.0.SXSXSXSXSXSXSXSXSX",
"SXSXSXSXSX( ) h p k a ) { } | ` ` ) O.%X;.#.../.|..X.XiXvXvXjXgXcXfXyXC.n.b.0.2.g.tXNXNXNXVXkXyXZ.b.x.z.x.5.4.SXSXSXSXSXSXSXSXSX",
"SXSXSXSXSXg a p l I c / } { ] ) L I Y O.O.*././.(.(.'.9XkXkXhXiXcXnXqXj.0.x.z.5.k.tXbXgXgXBXNXyXC.v.0.5.0.4.:.SXSXSXSXSXSXSXSXSX",
"SXSXSXSXSXa SXk L ).D.O.{ } ` L ).'.).P ..W.9XgXjXsX.X`.9X6X0XvXcXgX3Xh.5.0.r.h.k.|.9X|..XNXCXgXk.t.5.1.9.<.:.SXSXSXSXSXSXSXSXSX",
"SXSXSXSXSXSXSXk P 6X{.+X@.@.=.).8XwX8X(.d.R.sXgXiXXX0XXX_./.8XiXiX7Xg.u.3.z.h.L.H.W.(.a.).MXCXvXqXj.,.= 1.,.SXSXSXSXSXSXSXSXSXSX",
"SXSXSXSXSXSXSXk P rXeX*X@.@.+XwXiXrX5X5X/.R.oX9X8X8XsXsX'._.`.2X2Xg.5 >.1.h.K.}.#X .D.3 W.MXCXNX9Xf.; * * SXSXSXSXSXSXSXSXSXSXSX",
"SXSXSXSXSXSXSXk D.rXrX*X@.+.+XxXcX0X].8XE.G g.'.0XjXcXxXrXrX2XJ.a.u.- - - 7 Q.dX>X$XOXF.OXvXZXlXXXs.> > SXSXSXSXSXSXSXSXSXSXSXSX",
"SXSXSXSXSXSXSXG D.rX2X+X@.[ @XmXvXhX6XsXOX2 d.|.wXeXrXrXrXrXwX_.a.9 - - - 6 ..@X;X$X@X^.oXjXdX:X#X..L S O < SXSXSXSXSXSXSXSXSXSX",
"SXSXSXSXSXSXSX(.).rX`.Q.| +.-XmXvX0X.XjX^.G J.].5X6XwXwXqX2X<XJ.y.; * * - : T =.:X:X$X$X=X=X$X-.-.&.X.# O < f.SXSXSXSXSXSXSXSXSX",
"SXSXSXSXSXSX,X3XtXrX2XQ.V B -XmXlXOX8 0XOXF R.F.R.7XwX2X/.f.5 2.- - * * - 6 U *.:XzX:X$X$X$X-.-.-.-.X.2 1 d.SXSXxXnXSXSXSXSXSXSX",
"SXSXSXSXSXSXSX,X5XwX(.L o.&.-XmXlXXXd.oX[.F L G G P S.F.f.4 5 5 > ; * * * ; 6 Y #X$XzXdX=X%X-.-.-.#X*...(.tXfXfXbXVXVXbXxXSXSXSX",
"SXSXSXSXSXSX,X,X'.R.4 G.&X=XdXmXvXsX`.7X.X~.J d p k 2 2 2 G L ..K 5 - * * * ; 6 L *.@X*X+X..o.o.%.^.OX[.8XgXNXNXVXCXCXVXbXrXSXSX",
"SXSXSXSXSXSX,X`./.3 S..XxXxXcXmXMXcXrX2X{.*X$.b a l G P ..X.&.%.F 6 - * * * ; > F H J c J ..W...W.|.4XtXxXNXVXCXCXCXCXCXVXcXSXSX",
"SXSXSXSXSXSXSX`.].g.8XkXvXbXmXmXlXkXsXR.I X.[ _ f G W.OX=X#Xo.F 6 ; - * * - u.K X.o.H J ..).|.|.|.4X|.tXbXNXBXCXCXCXCXCXVXVXSXSX",
"SXSXSXSXSXSXSX2X,X7XgXmXmXMXMXmXhXuXXXI c M ' ) f l L !.@X..c G > * * * - w.l.G.H O.%.X.Y W.|.|.4X4X X XhXsXsXVXCXCXCXCXVXcXSXSX",
"SXSXSXSXSXSXSX3X2XwXxXmXmXMXMXmXsXXXH.D M [ ] j s z x X.o.X.x # > * * * - q.C.G.H o.%.o.X.H |.4X4X|.).).hXtX.XbXNXNXNXcXgXfXSXSX",
"SXSXSXSXSXSX_.'.<X5XrXfXlXlXvXbXjX=X~ c ) ' N h k x c Y Y G k 2 ; * * * - q.A.G.o.&.$.%.%.$.[.|.|.|.[.!.zXkX9XrXfXfXiX|.).SXSXSX",
"SXSXSX'.qXwXJ.].3X3XtXtX9X0XrXhXiXXXH.J ` ] j s z J J  .~.S.2 2 > * * - * 1.j.G.o.-.&.%.$.%. . ...Q. .#XAXBXkX_.`.|./.J.SXSXSXSX",
"SXSXp.J.5XrX2X].].3XtXtX3X6X6X.X&X}.D.J / _ h p z J H OX0X|.E.R.5 * * - - 1.h.K H &.=.$.H $.$.$.$.%.O.#XlXvXhXg.a.SXSXSXSXSXSXSX",
"SXg.J./.2XwX2X]./.3X6X6XqXiXrX[.+XE F M n j f s G R +XdXlX0XtX7Xg.u.2.y.8.1.h.L.U ! %.+XH.R $.*.&.&.%. .0XrX9Xg.SXSXSXSXSXSXSXSX",
"SX/.7XqXqX2XJ.].,XwX,X{.xXbXmXcXuX[.F c g g g v L }.jXMXMXiXrXfX6Xg.f.(.i.1.e.h.L.U E K.A.l.H.T X.T T SX/._.SXSXSXSXSXSXSXSXSXSX",
"SXJ.'.5XwX2Xf._.wXqX5XeXmXVXVXcX.XH.J c a d n B E XXgXcXgXcXbXbXfX`.[.*XS.:.4.r.h.i.i.h.r.6.i.i.i.i.L.SXSXSXSXSXSXSXSXSXSXSXSXSX",
"SXSXf._.2X,Xa.`.rX2X5XrXmXVXmXeX~.H V d p f m V +X8XhXnXkXNXVXcXeX5X}. .7 * :.4.r.r.r.2.:.:.6.e.t.r.r.SXSXSXSXSXSXSXSXSXSXSXSXSX",
"SXSXSXSXJ.J.g.2XwX'.(.[.jXmXlX}.T V b d a f N _ +XuXbXNXNXNXNXfX_./.(.s.> * = :.3.9.2.u.y.; :.,.1.9.z.z.SXSXSXSXSXSXSXSXSXSXSXSX",
"SXSXSX4 /.7X5XqX2XF.R $.%X;X$X*.B N b f f N ] [ =.pXxXgXgXcXbXgXJ.y.u.; * * * = <.9.7.).|.p.* ,.w.0.0.SXSXSXSXSXSXSXSXSXSXSXSXSX",
"SXSXSXy.'.rX2X,X(.L ! [ [ ` ` N N m g d b N ' @.;.*X0XpX=X0XcXgX).P P ..[.R.8.,.w.w.7.|.|.p.,.<.5.t.SXSXSXSXSXSXSXSXSXSXSXSXSXSX",
"SXSXSX4 _.6XJ.SXSXB [ _ x x c n m g a p g m ( ' #.=.*X@X%X*X=XuXoX=.+.;.>XoXp.3.9.w.8.a.g.p.7.e.7.SXSXSXSXSXSXSXSXSXSXSXSXSXSXSX",
"SXSXSXSXg.k.SXSXSXh M M z 2 G h d a p p a g m N ( [ #.#.#.;.-.;.;.#.} @.;.+Xi.5.w.7.y.g.]./.p.7.SXSXSXSXSXSXSXSXSXSXSXSXSXSXSXSX",
"SXSXSXSXSXSXSXSXSX[.&X+X!.(.d.2 # $ p p p d g b b N ] ' ' ' ] ;.;X%X=.#X#XQ.p.4.,.u./.`.5X6X<X/.g.SXSXSXSXSXSXSXSXSXSXSXSXSXSXSX",
"SXSXSXSXSXSXSXSXSXrXiXjXlXeX/.4 , O SXSXSXSXa a g b n n m N N =.=XOXE.oX0X'.h.1.= y._.7XtXeXrX5XJ.SXSXSXSXSXSXSXSXSXSXSXSXSXSXSX",
"SXSXSXSXSXSXSXSXSXfXnXvXvXiX'.7 : @ . SXSXSXSXSXSXd a d g b m ! W.d.).gXhX1Xj.7.; 5 g.|.eXrXrXrXSXSXSXSXSXSXSXSXSXSXSXSXSXSXSXSX",
"SXSXSXSXSXSXSXSXSXqXxXnXnXrX(.6 S.g.d.< SXSXSXSXSXSXSXSXd f g v G d.).0XrXqX<XtX).6 6 /.6XSXSXSXSXSXSXSXSXSXSXSXSXSXSXSXSXSXSXSX",
"SXSXSXSXSXSXSXSXSX}.&XpX7X}.K.G.J./.F.< SXSXSXSXSXSXSXSXSXk # l S I F.F.|.0X0XsX}.C + S G.G.G.SXSXSXSXSXSXSXSXSXSXSXSXSXSXSXSXSX",
"SXSXSX7XwXrXeXH.r A Q ~ K K H.2XJ.a.y.& SXSXSXSXSXSXSXSXSXO 6 6 w C 6 8 g.tXsX).7 : C C C S S S SXSXSXSXSXSXSXSXSXSXSXSXSXSXSXSX",
"SXSXfXgXXXH.G.D y y y 0 C H.{./.a.3 & SXSXSXSXSXSXSXSXSX% 1 C Z t q @ L oXkXuX8 , 7 G.{.{.{.}.{.SXSXSXSXSXSXSXSXSXSXSXSXSXSXSXSX",
"SXSXrXcXXX6 G.+X+X+XP.H.D.{._.k.4 &   SXSXSXSXSXSXSXSX  , S Q i y q + I sXvX).< < g.{.7X}.&X&X&XSXSXSXSXSXSXSXSXSXSXSXSXSXSXSXSX",
"SXSX{.hXXXF.{.sXzXzXiXeX7X/.g./.3 O X SXSXSXSXSXSXSXX O k j V u A r C 7 (.SXSX& < g.5X(.W Q ~ D e SXSXSXSXSXSXSXSXSXSXSXSXSXSXSX",
"SXSXg.(.|.eXjXlXmXmXnXwX/.f.4 3 O o o SXSXSXSXSXSXSXO x _ B ~ H.}.P.u SXa.a.SXSX% 8 _.G.e C H.H.C SXSXSXSXSXSXSXSXSXSXSXSXSXSXSX",
"SXSX3 g.6XcXvXmXmXcX9X_.F.4 & . @ o 0 SXSXSXSXSXSXSXz _ | B P.8XaXdX-XSXSXSXSXSXSX< g.D.I C K K w SXSXSXSXSXSXSXSXSXSXSXSXSXSXSX",
"SXSX< /.0XkXkXkXhXwX/.f./.4 < 1 1 , o SXSXSXSXSXSX# H O.[ ^ +XpXzXlXmXSXSXSXSXSXSX< 4 g.F.K K S + SXSXSXSXSXSXSXSXSXSXSXSXSXSXSX",
"SXSXSXf.].6X6X'.F.g.3 & < 4 f.]./.8 X SXSXSXSXSXSX4 }.+X^ i A ~ ~ +X(.SXSXSXSXSXSXSX% 3 g.(.).g.1 SXSXSXSXSXSXSXSXSXSXSXSXSXSXSX",
"SXSXSXSXa.a.d.4 < < .     < 4 s.d.4 SXSXSXSXSXSXSX4 {.}.A i -X-X~ A W SXSXSXSXSXSXSXSX< 3 a.d.a.SXSXSXSXSXSXSXSXSXSXSXSXSXSXSXSX",
"SXSXSXSXSX. . . .         . . . % SXSXSXSXSXSXSXSX8 .XOXr Z @X-X^ y t SXSXSXSXSXSXSXSXSX. % . SXSXSXSXSXSXSXSXSXSXSXSXSXSXSXSXSX",
"SXSXSXSXSXSXSXSXSXSXSXSXSXSXSXSXSXSXSXSXSXSXSXSXSX8 =X=XS e u Q u q q SXSXSXSXSXSXSXSXSXSXSXSXSXSXSXSXSXSXSXSXSXSXSXSXSXSXSXSXSX",
"SXSXSXSXSXSXSXSXSXSXSXSXSXSXSXSXSXSXSXSXSXSXSXSXSXSX[.oX=XL 0 q 0 0 0 SXSXSXSXSXSXSXSXSXSXSXSXSXSXSXSXSXSXSXSXSXSXSXSXSXSXSXSXSX",
"SXSXSXSXSXSXSXSXSXSXSXSXSXSXSXSXSXSXSXSXSXSXSXSXSXSXSXOXoX^.Q.K w 0 SXSXSXSXSXSXSXSXSXSXSXSXSXSXSXSXSXSXSXSXSXSXSXSXSXSXSXSXSXSX",
"SXSXSXSXSXSXSXSXSXSXSXSXSXSXSXSXSXSXSXSXSXSXSXSXSXSXSXSXW.sXjX(.S SXSXSXSXSXSXSXSXSXSXSXSXSXSXSXSXSXSXSXSXSXSXSXSXSXSXSXSXSXSXSX",
"SXSXSXSXSXSXSXSXSXSXSXSXSXSXSXSXSXSXSXSXSXSXSXSXSXSXSXSXSXSXSXSXSXSXSXSXSXSXSXSXSXSXSXSXSXSXSXSXSXSXSXSXSXSXSXSXSXSXSXSXSXSXSXSX"
};
