/* XPM */
static char *result[] = {
/* columns rows colors chars-per-pixel */
"64 64 219 2 ",
"   c #000000",
".  c #0C0000",
"X  c #0C010B",
"o  c #1B0000",
"O  c #040317",
"+  c #181818",
"@  c #250000",
"#  c #2B0000",
"$  c #350000",
"%  c #3C0000",
"&  c #330E0E",
"*  c #370C15",
"=  c #0A0A32",
"-  c #35062B",
";  c #262626",
":  c #262629",
">  c #382929",
",  c #353535",
"<  c #3D3D3D",
"1  c #21233E",
"2  c #440000",
"3  c #4B0000",
"4  c #540000",
"5  c #5C0000",
"6  c #571B1B",
"7  c #630000",
"8  c #6C0000",
"9  c #730000",
"0  c #7B0000",
"q  c #770B0B",
"w  c #731C1C",
"e  c #443B3B",
"r  c #593939",
"t  c #512826",
"y  c #6E2D29",
"u  c #772718",
"i  c #6B473B",
"p  c #5F463A",
"a  c #19194B",
"s  c #151559",
"d  c #0E0E48",
"f  c #2B145B",
"g  c #2C2C54",
"h  c #19196A",
"j  c #1D1D77",
"k  c #281B6F",
"l  c #1B2778",
"z  c #08316E",
"x  c #27247C",
"c  c #36287E",
"v  c #3A3A6D",
"b  c #593874",
"n  c #47307A",
"m  c #613E73",
"M  c #783A47",
"N  c #424242",
"B  c #4A4A4A",
"V  c #4D4141",
"C  c #535353",
"Z  c #5B5B5B",
"A  c #5D4545",
"S  c #6F5351",
"D  c #53516C",
"F  c #784967",
"G  c #7D527B",
"H  c #704771",
"J  c #646363",
"K  c #6C6C6C",
"L  c #6A6363",
"P  c #757474",
"I  c #7C7C7C",
"U  c #676979",
"Y  c #800000",
"T  c #8D0000",
"R  c #980000",
"E  c #A90000",
"W  c #B10000",
"Q  c #BA0000",
"!  c #8B3A25",
"~  c #963029",
"^  c #C60000",
"/  c #DD0000",
"(  c #D40000",
")  c #E00000",
"_  c #DB3131",
"`  c #9E5D3E",
"'  c #98573B",
"]  c #914731",
"[  c #985B4B",
"{  c #834D5E",
"}  c #945A57",
"|  c #88535C",
" . c #AD564A",
".. c #906956",
"X. c #A16141",
"o. c #A76848",
"O. c #AA6B4C",
"+. c #AC6D55",
"@. c #B67759",
"#. c #BA7B5D",
"$. c #B27456",
"%. c #AB725B",
"&. c #865A77",
"*. c #8F5962",
"=. c #996567",
"-. c #92677C",
";. c #B87B64",
":. c #AC787D",
">. c #E05050",
",. c #E07777",
"<. c #CB6161",
"1. c #B88470",
"2. c #C58667",
"3. c #CB8E72",
"4. c #D19273",
"5. c #DB9B7B",
"6. c #D3967B",
"7. c #CE9178",
"8. c #1F2784",
"9. c #212180",
"0. c #292986",
"q. c #2D2D8B",
"w. c #292480",
"e. c #332B84",
"r. c #31318E",
"t. c #383885",
"y. c #343493",
"u. c #393996",
"i. c #3D3D9D",
"p. c #4A3883",
"a. c #4B3C8F",
"s. c #1254AB",
"d. c #0063BA",
"f. c #2A53A3",
"g. c #474889",
"h. c #5E4580",
"j. c #58428D",
"k. c #46429D",
"l. c #525298",
"z. c #564794",
"x. c #675397",
"c. c #694B88",
"v. c #777C8A",
"b. c #686297",
"n. c #4141A1",
"m. c #4B4BAA",
"M. c #4949A7",
"N. c #5252AC",
"B. c #5C5BA6",
"V. c #5454B3",
"C. c #5D5DBC",
"Z. c #5959B6",
"A. c #6C5DA3",
"S. c #466BB6",
"D. c #6762B8",
"F. c #706CAB",
"G. c #3D6CC2",
"H. c #006BC8",
"J. c #6161C1",
"K. c #6C6CCB",
"L. c #6868C7",
"P. c #7676CB",
"I. c #7575D5",
"U. c #7C7CDB",
"Y. c #7878D6",
"T. c #896385",
"R. c #956B85",
"E. c #916D93",
"W. c #A67785",
"Q. c #8D70A4",
"!. c #818181",
"~. c #8D8D8D",
"^. c #929292",
"/. c #9B9B9B",
"(. c #8C839B",
"). c #BA8582",
"_. c #AF9492",
"`. c #9291B6",
"'. c #8E8EA8",
"]. c #A889A8",
"[. c #A2A2A2",
"{. c #ABAAAA",
"}. c #B3B3B3",
"|. c #B9B8B8",
" X c #B4ABA8",
".X c #C18A81",
"XX c #C58484",
"oX c #D49883",
"OX c #D19393",
"+X c #E08989",
"@X c #E09898",
"#X c #E0A081",
"$X c #E0AE97",
"%X c #E0B39F",
"&X c #CCB0AB",
"*X c #E0BCBC",
"=X c #E0BDAF",
"-X c #DCA48A",
";X c #D6C2BB",
":X c #9494CA",
">X c #9C9CD8",
",X c #8B8BCC",
"<X c #AEAED1",
"1X c #8080E0",
"2X c #A3A3E0",
"3X c #C2C2C2",
"4X c #CBCBCB",
"5X c #CCC1C7",
"6X c #D4D4D4",
"7X c #D4D4DD",
"8X c #DBDBDB",
"9X c #CBC9D5",
"0X c #E0CBC4",
"qX c #E0D2CD",
"wX c #E0D9D9",
"eX c #CACAE0",
"rX c #D8D8E0",
"tX c gray88",
"yX c None",
/* pixels */
"yXyXyXyXyXyXyXyXyXyXyXyXyXyXyXyXyXyXyXyXyXyXyXyXyXyXyXyXyXyXyXn.n.n.n.n.n.n.n.yXyXyXyXyXyXyXyXyXyXyXyXyXyXyXyXyXyXyXyXyXyXyXyXyX",
"yXyXyXyXyXyXyXyXyXyXyXyXyXyXyXyXyXyXyXyXyXyXyXyXyXyXyXyXyXyXm.m.m.M.n.n.n.k.n.yXyXyXyXyXyXyXyXyXyXyXyXyXyXyXyXyXyXyXyXyXyXyXyXyX",
"yXyXyXyXyXyXyXyXyXyXyXyXyXyXyXyXyXyXyXyXyXyXyXyXyXi.n.n.n.n.V.C.J.V.n.n.n.n.n.i.n.i.i.i.n.i.yXyXyXyXyXyXyXyXyXyXyXyXyXyXyXyXyXyX",
"yXyXyXyXyXyXyXyXyXyXyXyXyXyXyXyXyXyXyXyXyXyXn.n.M.V.V.V.V.V.m.M.M.n.n.n.i.n.n.n.u.y.y.y.y.r.9.yXyXyXyXyXyXyXyXyXyXyXyXyXyXyXyXyX",
"yXyXyXyXyXyXyXyXyXyXyXyXyX9.9.yXyXyXyXyXyXyXn.n.M.Z.J.J.C.Z.z.p.e.q.i.n.n.i.i.n.y.j 9.9.9.9.9.9.yXyXyXyXyXyXyXyXyXyXyXyXyXyXyXyX",
"yXyXyXyXyXyXyXyXyXyXyXyXyX9.j 9.yXyXyXn.n.m.C.C.Z.C.J.J.V.k.W.W.h.q.n.n.i.y.q.q.0.9.9.9.9.9.9.9.9.yXyXyXyXyXyXyXyXyXyXyXyXyXyXyX",
"yXyXyXyXyXyXyXyXyXyXyXyXyX9.9.9.0.yXM.m.m.V.C.J.L.J.J.V.x.T..X7.&.p.u.u.y.0.9.8.9.9.9.9.9.9.9.9.9.yXyXyXyXyXyXyXyXyXyXyXyXyXyXyX",
"yXyXyXyXyXyXyXyXyXyXyXyXyX9.9.9.y.n.V.C.C.J.C.I.Y.L.V.u.R.oXoX6.%.F e.0.0.9.9.x 9.yXyXyXyXyXyXyXyXyXyXyXyXyXyXyXyXyXyXyXyXyXyXyX",
"yXyXyXyXyXyXyXyXyXyXyXyXyX9.0.q.a.V.C.J.K.I.I.U.U.L.A.R.XX#X#X5.$.{ e.0.q.0.9.9.yXyXyXyXyXyXyXyXyXyXyXyXyXyXyXyXyXyXyXyXyXyXyXyX",
"yXyXyXyXyXyXyXyXyXyXyXyXyX9.q.i.V.J.C.L.U.U.1X1XY.Z.Q.@X#X#X#X5.+.{ c y.i.q.9.yXyXyXyXyXyXyXyXyXyXyXyXyXyXyXyXyXyXyXyXyXyXyXyXyX",
"yXyXyXyXyXyXyXyXyXyXyXyXyXy.n.V.C.J.K.I.U.1X1X1XU.I.Q.Q.Q.].W.#.O.{ c r.n.y.y.i.yXyXyXyXyXyXyXyXyXyXyXyXyXyXyXyXyXyXyXyXyXyXyXyX",
"yXyXyXyXyXyXyXyXyXyXyXyXyXn.m.C.J.J.Y.1XU.U.U.U.U.U.Y.K.L.D.T.*.} F e.y.n.i.n.n.n.yXyXyXyXyXyXyXyXyXyXyXyXyXyXyXyXyXyXyXyXyXyXyX",
"yXyXyXyXyXyXyXyXyXyXyXyXyXn.m.C.J.J.Y.U.P.K.K.K.L.L.P.I.K.J.D.A.x.z.i.i.i.r.y.i.n.n.i.n.yXyXyXyXyXyXyXyXyXyXyXyXyXyXyXyXyXyXyXyX",
"yXyXyXyXyXyXyXyXyXyXyXyXyXm.V.J.L.K.I.I.K.P.:X:X:XK.L.I.K.J.J.C.V.M.n.k.i.q.0.y.i.n.n.n.yXyXyXyXyXyXyXyXyXyXyXyXyXyXyXyXyXyXyXyX",
"yXyXyXyXyXyXyXyXyXyXyXn.M.Z.C.J.K.U.K.K.U.2X7XrX9X,XD.J.J.J.J.J.C.V.n.n.i.q.9.w.y.i.n.n.n.n.yXyXyXyXyXyXyXyXyXyXyXyXyXyXyXyXyXyX",
"yXyXyXyXyXyXyXyXyXyXyXJ.J.J.J.J.L.I.P.1X<XeXtXtX7X>XK.J.J.J.C.C.J.V.n.n.i.q.9.9.r.n.n.n.n.n.n.yXyXyXyXyXyXyXyXyXyXyXyXyXyXyXyXyX",
"yXyXyXyXyXyXyXyXyXyXyX1XY.L.J.J.C.J.I.>X7XtXtXtXrX2XY.L.J.J.J.J.J.V.n.n.i.q.9.9.r.n.n.i.i.i.i.i.yXyXyXyXyXyXyXyXyXyXyXyXyXyXyXyX",
"yXyXyXyXyXyXyXyXyXyXyXl.l.Z.J.J.Z.m.l.'.7XtXtXtXeX2XY.J.J.J.C.C.V.M.n.n.i.0.9.9.r.i.u.q.r.r.r.y.n.yXyXyXyXyXyXyXyXyXyXyXyXyXyXyX",
"yXyXyXyXyXyXyXyXyXyXyX  g B.C.C.m.t.s P 4XtXtXtXrX2XY.J.J.J.J.C.M.i.n.i.i.q.9.9.q.i.r.9.9.9.9.y.i.yXyXyXyXyXyXyXyXyXyXyXyXyXyXyX",
"yXyXyXyXyXyXyXyXyXyXyX  g N.Z.m.t.a = I 4XtXtXtX7X2XY.L.C.J.C.C.M.n.n.n.i.q.9.9.9.0.9.9.9.9.9.9.q.u.n.yXyXyXyXyXyXyXyXyXyXyXyXyX",
"yXyXyXyXyXyXyXyXyXyXyX  a g.B.C.g.    I 4XtXtXtXrX>XK.J.C.C.V.V.n.n.n.i.u.0.9.9.9.9.9.9.9.9.9.9.8.r.u.yXyXyXyXyXyXyXyXyXyXyXyXyX",
"yXyXyXyXyXyXyXyXyXyXyX  O = g.U.B.    P 4XtXtXtX7X:XJ.J.V.n.n.n.n.n.i.y.9.9.9.9.9.9.9.9.9.9.9.9.9.9.9.9.9.yXyXyXyXyXyXyXyXyXyXyX",
"yXyXyXyXyXyXyXyXyXyXyX  ; C (.<X'.    P 4XtXtXeX<XF.V.V.m.n.n.n.n.i.y.0.9.9.9.9.9.yXyXyXyXyXyXyXyXyXyXyXyXyXyXyXyXyXyXyXyXyXyXyX",
"yXyXyXyXyXyXyXyXyXyXyX; < P [.6X[.B B !.4XtX8X>XC.D.B.B.N.a.k.k.i.y.9.9.9.9.9.9.0.yXyXyXyXyXyXyXyXyXyXyXyXyXyXyXyXyXyXyXyXyXyXyX",
"yXyXyXyXyXyXyXyXyXyXyXK L C P [.}.|.|.4X8XeX2X,XB.<X<X3X[.&.c.k.y.0.9.9.9.9.w.y.u.n.n.n.yXyXyXyXyXyXyXyXyXyXyXyXyXyXyXyXyXyXyXyX",
"yXyXyXyXyXyXyXyXyXyXyXP K , N K  XqX8XtXtXeX2X:X`.5XqXqX&X%.&.a.q.9.9.9.9.9.0.y.u.u.i.n.yXyXyXyXyXyXyXyXyXyXyXyXyXyXyXyXyXyXyXyX",
"yXyXyXyXyXyXyXyXyXyXyX, , + + , 1.%XqXtXtX8X8X8X6X=X$X$X#X5.;.| n 9.9.9.9.9.9.0.0.0.u.i.n.n.yXyXyXyXyXyXyXyXyXyXyXyXyXyXyXyXyXyX",
"yXyXyXyXyXyXyXyXyXyXyX: : : p ..1.#X=X0X0X0X0X0X=X$X#X5.oX5.;.} b 9.9.9.9.9.9.9.9.8.q.y.u.u.yXyXyXyXyXyXyXyXyXyXyXyXyXyXyXyXyXyX",
"yXyXyXyXyXyXyXyXyXyXyXN N N ..5.5.#X5.5.5.#X5.#X#X#X#X#X#X5.#.} n 9.9.9.9.9.9.9.9.9.9.9.9.q.i.yXyXyXyXyXyXyXyXyXyXyXyXyXyXyXyXyX",
"yXyXyXyXyXyXyXyXyXyXv.C N < S +.#.1.2.3.5.#X5.5.#X#X#X5.4.2.*.m c j 9.9.9.9.9.9.9.8.9.9.9.0.r.y.n.yXyXyXyXyXyXyXyXyXyXyXyXyXyXyX",
"yXyXyXyXyXyXyXyXyXyX1.Z N B V w ] ' ' O.5.5.5.5.5.5.5.5.1.[ m x 0.w.x p.h.h.p.h.h.h.j.H h.p.9.y.n.yXyXyXyXyXyXyXyXyXyXyXyXyXyXyX",
"yXyXyXyXyXyXyXyXyXyXv.Z B K L p y ! ! ] $.@.@.@.@.@.@.@.=.b n 9.y.y.9.R..X.X.XXX7.).)..X).:.p.y.n.yXyXyXyXyXyXyXyXyXyXyXyXyXyXyX",
"yXyXyXyXyXyXyXyXyXyXI K J I K B r 8 w i &.-.T.-.-. .' ` | b b H c.a.q.W.3.3.4.4.4.4.3.4.4.1.T.T.E.(.yXyXyXyXyXyXyXyXyXyXyXyXyXyX",
"yXyXyXyXyXyXyXyXyXyX1.I I v.K B > & > D S.G.G.G.S.m ! ` [ [ }  .[ &.k.&.O.O.O.o.O.O.O.O.O.;.7.oXOX_./.~.v.1.^.[.[.[.[.^.1.yXyXyX",
"yXyXyXyXyXyXyXyXyXyXK I I K Z , B C B D b.A.F.l.x.{ X.#.2.#.#.#.o.*.&.F { F { F | X.` X.X.@.2.2.3. X}./.^.~.{.3X<X3X3X X~.~.yXyX",
"yXyXyXyXyXyXyXyXyXyXN K P C , + Z I Z A ' ` ` ] ~ ] #.5.#X#X5.5.+.X.X.H 9.9.9.9.9.yXyXyXyXyXX.X.%.;X6X{./.[.4XtXtXtXtX3X[.^.!.yX",
"yXyXyXyXyXyXyXyXyXyXyXZ J K Z , B Z V t ! ! ! u u @.4.5.#X#X#X5.4.;.X.H 9.9.9.9.9.9.yXyXyXyXyXyXyX[.[.!./.4X8XtXtXtXrX6X4X{.^.yX",
"yXyXyXyXyXyXyXyXyXyXyXyXC P K B N e t 5 0 Y 0 7 i 3.#X#X#X#X5.#X5.3.X.F 9.9.j 9.9.9.9.yXyXyXyXyXyX!.P Z /.6X8XtX8X6X8X8X8X|./.yX",
"yXyXyXyXyXyXyXyXyXyXyXyXyXyXyXyXyXyXyXyXyXyXyXyXyX5.#X5.5.#X#X#X#X3.X.F 9.9.9.9.9.9.9.9.yXyXyXyXyXyXyXP ^.}.4X8X3X}.}.4X8X}.~.yX",
"yXyXyXyXyXyXyXyXyXyXyXyXyXyXyXyXyXyXyXyXyXyXyXyXyX4.4.#X6.3.3.3.XX:.{ m 9.9.9.9.9.9.x 9.yXyXyXyXyXyXyX!.~.^.|.3X/./.}.3X4X[.!.yX",
"yX  T / ) ) yXyXyXyXyXyXyXyXyXyXyXyXyXyXyXyXyXyXyXO.#.5.2.O.o.=.x.z.n x 9.9.9.x 9.9.9.9.yXyXyXyXyXyXyXyXyX!./.[.K ^.6X3X[.~.!.yX",
"yX  T / ) ) ) yXyXyXyXyXyXyXyXyXyXyXyXyXyXyXyXyXyXc.R.W.R.&.&.c.a.e.9.9.l 8.l h h 9.9.9.9.yXyXyXyXyXyXyXyXyX~.~.1.~.{./.^.~.yXyX",
"yX  T / ) ) ) ) yXyXyXyXyXyXyXyXyXyXyXyXyXyXyXyXyXi.i.i.i.i.n.u.0.9.9.x x l l g g c x j 9.k - 7 0 yXyXyXyXyX!.!.'.~.C J !.yXyXyX",
"yX  T / ) ) ) ) ) ) ) yXyXyXyXyXyXyXyXyXyXyXn.n.u.y.r.q.q.q.q.q.9.9.9.h s s.f.U U c.D f k h - 2 7 9 yXyXyXyXyXyXyXyXyXyXyXyXyXyX",
"yX  T ^ ( ) ) ) ) >.,.@XyXyXyXyXyXyXyXyXyXi.u.u.u.q.9.9.j h j j j 9.j l z d.G.v.I P A - k f O # 3 8 0 yXyXyXyXyXyXyXyXyXyXyXyXyX",
"yXyXyX8 Q / ) ) ) +X0XwXtXyXyXyXyXrX`.n.n.y.0.q.q.yXyXyXd d = d j 9.j s.d.H.S.v.K r t * - - X # 3 8 Y yXyXyXyXyXyXyXyXyXyXyXyXyX",
"yXyXyX  E ) ) >.+X*XtXtX8X}.yXyXtX8X`.y.y.y.9.8.9.yXyXyXyX    = s h 9.s.s.d.S.v.J # % 3 5 3 o # 3 7 9 yXyXyXyXyXyXyXyXyXyXyXyXyX",
"yXyXyX  E ) ) ,.qXwXtX8X6X[.{.8XtX7X'.9.9.9.yXyXyXyXyXyXyXyX    O s 9.9.8.8.j.I J . $ 3 9 8 @ # % 2 4 0 Y yXyXyXyXyXyXyXyXyXyXyX",
"yXyXyXyXT ] OX*XrXtXtX*X@X=.[.8XtX8X[.D v v yXyXyXyXyXyXyXyXyXyXyXd s s s l t.J C > 6 8 0 0 7 3 # % 4 9 Y yXyXyXyXyXyXyXyXyXyXyX",
"yXyXyXyX  C &XtXtX8XqX@X( E ).6XwX8X{.I Z B yXyXyXyXyXyXyXyXyXyXyXyX    = h x N g e y 0 Y Y Y 5 . $ 4 0 Y yXyXyXyXyXyXyXyXyXyXyX",
"yXyXyXyX  N /.;X8X*X,.>./ ^ ;.}.4X8X|.~.I P yXyXyXyXyXyXyXyXyXyXyXyXyXyXyXyXyX: , e y 0 Y Y Y 5 . $ 4 0 Y yXyXyXyXyXyXyXyXyXyXyX",
"yXyXyXyXyX, I [.4X&X) ) ) / >.XX X;X[.~.!.yXyXyXyXyXyXyXyXyXyXyXyXyXyXyXyXyXyX  ; N y 9 0 0 0 5 . $ 3 8 9 yXyXyXyXyXyXyXyXyXyXyX",
"yXyXyXyXyXyXg K [.XX/ / ) ) _ _  .} F Z yXyXyXyXyXyXyXyXyXyXyXyXyXyXyXyXyXyXyXyXyXyX& 3 q 0 Y 5 . $ 3 3 7 0 yXyXyXyXyXyXyXyXyXyX",
"yXyXyXyXyXyXyXC P =.^ ( ) ) ) ) Q q t , yXyXyXyXyXyXyXyXyXyXyXyXyXyXyXyXyXyXyXyXyXyXyX$ 5 y | A : & $ % 7 0 yXyXyXyXyXyXyXyXyXyX",
"yXyXyXyXyXyXyXyX  4 Y ^ / / / ) Q 0 3   yXyXyXyXyXyXyXyXyXyXyXyXyXyXyXyXyXyXyXyXyXyXyXyX  B I L N ; o $ 7 Y yXyXyXyXyXyXyXyXyXyX",
"yXyXyXyXyXyXyXyXyX3 4 R W W W W R 0 3   yXyXyXyXyXyXyXyXyXyXyXyXyXyXyXyXyXyXyXyXyXyXyXyX  B I L < ; o % 5 Y yXyXyXyXyXyXyXyXyXyX",
"yXyXyXyXyXyXyXyXyXyX. 5 0 0 Y Y 0 9 3   yXyXyXyXyXyXyXyXyXyXyXyXyXyXyXyXyXyXyXyXyXyXyXyX  B P Z r > $ $ 5 9 0 yXyXyXyXyXyXyXyXyX",
"yXyXyXyXyXyXyXyXyXyXyX% 4 9 Y Y 7 2 $ yXyXyXyXyXyXyXyXyXyXyXyXyXyXyXyXyXyXyXyXyXyXyXyXyXyX, N r w q 7 % % 5 8 Y yXyXyXyXyXyXyXyX",
"yXyXyXyXyXyXyXyXyXyXyXyX$ 7 8 8 4   yXyXyXyXyXyXyXyXyXyXyXyXyXyXyXyXyXyXyXyXyXyXyXyXyXyXyXyX  4 8 9 9 $ # % 8 0 yXyXyXyXyXyXyXyX",
"yXyXyXyXyXyXyXyXyXyXyXyXyX@ # # @ yXyXyXyXyXyXyXyXyXyXyXyXyXyXyXyXyXyXyXyXyXyXyXyXyXyXyXyXyXyX# $ 8 9 $ # % 8 Y yXyXyXyXyXyXyXyX",
"yXyXyXyXyXyXyXyXyXyXyXyXyXyX    yXyXyXyXyXyXyXyXyXyXyXyXyXyXyXyXyXyXyXyXyXyXyXyXyXyXyXyXyXyXyXyX@ 4 5 5 3 $ 4 7 yXyXyXyXyXyXyXyX",
"yXyXyXyXyXyXyXyXyXyXyXyXyXyXyXyXyXyXyXyXyXyXyXyXyXyXyXyXyXyXyXyXyXyXyXyXyXyXyXyXyXyXyXyXyXyXyXyXyX  % 9 7 @ $ % yXyXyXyXyXyXyXyX",
"yXyXyXyXyXyXyXyXyXyXyXyXyXyXyXyXyXyXyXyXyXyXyXyXyXyXyXyXyXyXyXyXyXyXyXyXyXyXyXyXyXyXyXyXyXyXyXyXyXyX% 3 5 7 3 @ yXyXyXyXyXyXyXyX",
"yXyXyXyXyXyXyXyXyXyXyXyXyXyXyXyXyXyXyXyXyXyXyXyXyXyXyXyXyXyXyXyXyXyXyXyXyXyXyXyXyXyXyXyXyXyXyXyXyXyXyX  4 Y 4   yXyXyXyXyXyXyXyX"
};
