/* XPM */
static char *result[] = {
/* columns rows colors chars-per-pixel */
"192 64 15 1 ",
"  c black",
". c #0C1134",
"X c gray50",
"o c #936A42",
"O c #009C00",
"+ c #E3B75B",
"@ c #003080",
"# c #2533AF",
"$ c #1655BF",
"% c #3848F0",
"& c #2C7AFE",
"* c #9198F7",
"= c #81AFFE",
"- c white",
"; c None",
/* pixels */
";;;;;;;;;;;;;;;;;;;;;;;;;;;;;;;;;;;;;;;;;;;;;;;;;;;;;;;;;;;;;;;;;;;;;;;;;;;;;;;;;;;;;;;;;;;;;;;;;;;;;;;;;;;;;;;;;;;;;;;;;;;;;;;;;;;;;;;;;;;;;;;;;;;;;;;;;;;;;;;;;;;;;;;;;;;;;;;;;;;;;;;;;;;;;;;;",
";;;;;;;;;;;;;;;;;;;;;;;;;;;;;;;;;;;;;;;;;;;;;;;;;;;;;;;;;;;;;;;;;;;;;;;;;;;;;;;;;;;;;;;;;;;;;;;;;;;;;;;;;;;;;;;;;;;;;;;;;;;;;;;;;;;;;;;;;;;;;;;;;;;;;;;;;;;;;;;;;;;;;;;;;;;;;;;;;;;;;;;;;;;;;;;;",
";;;;;;;;;;;;;;;;;;;;;;;;;;;;;;;;;;;;;;;;;;;;;;;;;;;;;;;;;;;;;;;;;;;;;;;;;;;;;;;;;;;;;;;;;;;;;;;;;;;;;;;;;;;;;;;;;;;;;;;;;;;;;;;;;;;;;;;;;;;;;;;;;;;;;;;;;;;;;;;;;;;;;;;;;;;;;;;;;;;;;;;;;;;;;;;;",
";;;;;;;;;;;;;;;;;;;;;;;;;;;;;;;;;;;;;;;;;;;;;;;;;;;;;;;;;;;;;;;;;;;;;;;;;;;;;;;;;;;;;;;;;;;;;;;;;;;;;;;;;;;;;;;;;;;;;;;;;;;;;;;;;;;;;;;;;;;;;;;;;;;;;;;;;;;;;;;;;;;;;;;;;;;;;;;;;;;;;;;;;;;;;;;;",
";;;;;;;;;;;;;;;;;;;;;;;;;;;;;;;;;;;;;;;;;;;;;;;;;;;;;;;;;;;;;;;;;;;;;;;;;;;;;;;;;;;;;;;;;;;;;;;;;;;;;;;;;;;;;;;;;;;;;;;;;;;;;;;;;;;;;;;;;;;;;;;;;;;;;;;;;;;;;;;;;;;;;;;;;;;;;;;;;;;;;;;;;;;;;;;;",
";;;;;;;;;;;;;;;;;;;;;;;;;;;;;;;;;;;;;;;;;;;;;;;;;;;;;;;;;;;;;;;;;;;;;;;;;;;;;;;;;;;;;;;;;;;;;;;;;;;;;;;;;;;;;;;;;;;;;;;;;;;;;;;;;;;;;;;;;;;;;;;;;;;;;;;;;;;;;;;;;;;;;;;;;;;;;;;;;;;;;;;;;;;;;;;;",
";;;;;;;;;;;;;;;;;;;;;;;;;;;;;;;;;;;;;;;;;;;;;;;;;;;;;;;;;;;;;;;;;;;;;;;;;;;;;;;;;;;;;;;;;;;;;;;;;;;;;;;;;;;;;;;;;;;;;;;;;;;;;;;;;;;;;;;;;;;;;;;;;;;;;;;;;;;;;;;;;;;;;;;;;;;;;;;;;;;;;;;;;;;;;;;;",
";;;;;;;;;;;;;;;;;;;;;;;;;;;;;;;;;;;;;;;;;;;;;;;;;;;;;;;;;;;;;;;;;;;;;;;;;;;;;;;;;;;;;;;;;;;;;;;;;;;;;;;;;;;;;;;;;;;;;;;;;;;;;;;;;;;;;;;;;;;;;;;;;;;;;;;;;;;;;;;;;;;;;;;;;;;;;;;;;;;;;;;;;;;;;;;;",
";;;;;;;;;;;;;;;;;;;;;;;;;;;;;;;;;;;;;;;;;;;;;;;;;;;;;;;;;;;;;;;;;;;;;;;;;;;;;;;;;;;;;;;;;;;;;;;;;;;;;;;;;;;;;;;;;;;;;;;;;;;;;;;;;;;;;;;;;;;;;;;;;;;;;;;;;;;;;;;;;;;;;;;;;;;;;;;;;;;;;;;;;;;;;;;;",
";;;;;;;;;;;;;;;;;;;;;;;;;;;;;;;;;;;;;;;;;;;;;;;;;;;;;;;;;;;;;;;;;;;;;;;;;;;;;;;;;;;;;;;;;;;;;;;;;;;;;;;;;;;;;;;;;;;;;;;;;;;;;;;;;;;;;;;;;;;;;;;;;;;;;;;;;;;;;;;;;;;;;;;;;;;;;;;;;;;;;;;;;;;;;;;;",
";;;;;;;;;;;;;;;;;;;;;;;;;;;;;;;;;;;;;;;;;;;;;;;;;;;;;;;;;;;;;;;;;;;;;;;;;;;;;;;;;;;;;;;;;;;;;;;;;;;;;;;;;;;;;;;;;;;;;;;;;;;;;;;;;;;;;;;;;;;;;;;;;;;;;;;;;;;;;;;;;;;;;;;;;;;;;;;;;;;;;;;;;;;;;;;;",
";;;;;;;;;;;;;;;;;;;;;;;;;;;;;;;;;;;;;;;;;;;;;;;;;;;;;;;;;;;;;;;;;;;;;;;;;;;;;;;;;;;;;;;;;;;;;;;;;;;;;;;;;;;;;;;;;;;;;;;;;;;;;;;;;;;;;;;;;;;;;;;;;;;;;;;;;;;;;;;;;;;;;;;;;;;;;;;;;;;;;;;;;;;;;;;;",
";;;;;;;;;;;;;;;;;;;;;;;;;;;;;;;;;;;;;;;;;;;;;;;;;;;;;;;;;;;;;;;;;;;;;;;;;;;;;;;;;;;;;;;;;;;;;;;;;;;;;;;;;;;;;;;;;;;;;;;;;;;;;;;;;;;;;;;;;;;;;;;;;;;;;;;;;;;;;;;;;;;;;;;;;;;;;;;;;;;;;;;;;;;;;;;;",
";;;;;;;;;;;;;;;;;;;;;;;;;;;;;;;;;;;;;;;;;;;;;;;;;;;;;;;;;;;;;;;;;;;;;;;;;;;;;;;;;;;;;;;;;;;;;;;;;;;;;;;;;;;;;;;;;;;;;;;;;;;;;;;;;;;;;;;;;;;;;;;;;;;;;;;;;;;;;;;;;;;;;;;;;;;;;;;;;;;;;;;;;;;;;;;;",
";;;;;;;;;;;;;;;;;;;;;;;;;;;;;;;;;;;;;;;;;;;;;;;;;;;;;;;;;;;;;;;;;;;;;;;;;;;;;;;;;;;;;;;;;;;;;;;;;;;;;;;;;;;;;;;;;;;;;;;;;;;;;;;;;;;;;;;;;;;;;;;;;;;;;;;;;;;;;;;;;;;;;;;;;;;;;;;;;;;;;;;;;;;;;;;;",
";;;;;;;;;;;;;;;;;;;;;;;;;;;;;;;;;;;;;;;;;;;;;;;;;;;;;;;;;;;;;;;;;;;;;;;;;;;;;;;;;;;;;;;;;;;;;;;;;;;;;;;;;;;;;;;;;;;;;;;;;;;;;;;;;;;;;;;;;;;;;;;;;;;;;;;;;;;;;;;;;;;;;;;;;;;;;;;;;;;;;;;;;;;;;;;;",
";;;;;;;;;;;;;;;;;;;;;;;;;;;;;;;;;;;;;;;;;;;;;;-----------------;;;;;;;;;;;;;;;;;;;;;;;;;;;;;;;;;;;;;;;;;;;;;;;;;;;;;;;;;;;;;;;;;;;;;;;;;;;;;;;;;;;;;;;;;;;;;;;;;;;;;;;;;;;;;;;;;;;;;;;;;;;;;;;;;",
";;;;;;;;;;;;;;;;;;;;;;;;;;;;;;;;;;;;;;;;;;;;;;-----------------;;;;;;;;;;;;;;;;;;;;;;;;;;;;;;;;;;;;;;;;;;;;;;;;;;;;;;;;;;;;;;;;;;;;;;;;;;;;;;;;;;;;;;;;;;;;;;;;;;;;;;;;;;;;;;;;;;;;;;;;;;;;;;;;;",
";;;;;;;;;;;;;;;;;;;;;;;;;;;;;;;;;;;;;;;;;;;;;;-----------------;;;;;;;;;;;;;;;;;;;;;;;;;;;;;;;;;;;;;;;;;;;;;;;;;;;;;;;;;;;;;;;;;;;;;;;;;;;;;;;;;;;;;;;;;;;;;;;;;;;;;;;;;;;;;;;;;;;;;;;;;;;;;;;;;",
";;;;;;;;;;;;;;;;;;;;;;;;;;;;;;;;;;;;;;;;------***...........***------;;;;;;;;;;;;;;;;;;;;;;;;;;;;;;;;;;;;;;;;;;;;;;;;;;;;;;;;;;;;;;;;;;;;;;;;;;;;;;;;;;;;;;;;;;;;;;;;;;;;;;;;;;;;;;;;;;;;;;;;;;;",
";;;;;;;;;;;;;;;;;;;;;;;;;;;;;;;;;;;;;;;;------***...........***------;;;;;;;;;;;;;;;;;;;;;;;;;;;;;;;;;;;;;;;;;;;;;;;;;;;;;;;;;;;;;;;;;;;;;;;;;;;;;;;;;;;;;;;;;;;;;;;;;;;;;;;;;;;;;;;;;;;;;;;;;;;",
";;;;;;;;;;;;;;;;;;;;;;;;;;;;;;;;;;;;;;;;------***...........***------;;;;;;;;;;;;;;;;;;;;;;;;;;;;;;;;;;;;;;;;;;;;;;;;;;;;;;;;;;;;;;;;;;;;;;;;;;;;;;;;;;;;;;;;;;;;;;;;;;;;;;;;;;;;;;;;;;;;;;;;;;;",
";;;;;;;;;;;;;;;;;;;;;;;;;;--------------***......++ooo%%%%%%......***--;;;;;;;;;;;;;;;;;;;;;;;;;;;;;;;;;;;;;;;;;;;;;;;;;;;;;;;;;;;;;;;;;;;;;;;;;;;;;;;;;;;;;;;;;;;;;;;;;;;;;;;;;;;;;;;;;;;;;;;;;",
";;;;;;;;;;;;;;;;;;;;;;;;;;--------------***......++ooo%%%%%%......***--;;;;;;;;;;;;;;;;;;;;;;;;;;;;;;;;;;;;;;;;;;;;;;;;;;;;;;;;;;;;;;;;;;;;;;;;;;;;;;;;;;;;;;;;;;;;;;;;;;;;;;;;;;;;;;;;;;;;;;;;;",
";;;;;;;;;;;;;;;;;;;;;;;;;;--------------***......++ooo%%%%%%......***--;;;;;;;;;;;;;;;;;;;;;;;;;;;;;;;;;;;;;;;;;;;;;;;;;;;;;;;;;;;;;;;;;;;;;;;;;;;;;;;;;;;;;;;;;;;;;;;;;;;;;;;;;;;;;;;;;;;;;;;;;",
"@@@@@@@@@@@@@@@@@@@@@@@---***.....******...%%%ooo+++++############...--&&&@@@@@@@@@@@@@@@@@@@@@@@@@@@@@@@@@@@@@@@@@@@@@@@@@@@@@@@@@@@@@@@@@@@@@@@@@@@@@@@@@@@@@@;;;;;;;;;;;;;;;;;;;;;;;;;;;;;;;;",
"@@@@@@@@@@@@@@@@@@@@@@@---***.....******...%%%ooo+++++############...--&&&@@@@@@@@@@@@@@@@@@@@@@@@@@@@@@@@@@@@@@@@@@@@@@@@@@@@@@@@@@@@@@@@@@@@@@@@@@@@@@@@@@@@@@;;;;;;;;;;;;;;;;;;;;;;;;;;;;;;;;",
"@@@&&&&&&&&&&&&&&&&&&&&---...++ooo......%%%%%%%%%###########%%%%%%###..---&&&&&&&&&&&&&&&&&&&&&&           &&&&&&&&&&&&&&           &&&&&$$$&&&$$$&&&@@$$$@@@$$$;;;;;;;;;;;;;;;;;;;;;;;;;;;;;;;;",
"@@@&&&&&&&&&&&&&&&&&&&&---...++ooo......%%%%%%%%%###########%%%%%%###..---&&&&&&&&&&&&&&&&&&&&&&           &&&&&&&&&&&&&&           &&&&&$$$&&&$$$&&&@@$$$@@@$$$;;;;;;;;;;;;;;;;;;;;;;;;;;;;;;;;",
"@@@&&&&&&&&&&&&&&&&&&&&---...++ooo......%%%%%%%%%###########%%%%%%###..---&&&&&&&&&&&&&&&&&&&&&&           &&&&&&&&&&&&&&           &&&&&$$$&&&$$$&&&@@$$$@@@$$$;;;;;;;;;;;;;;;;;;;;;;;;;;;;;;;;",
"@@@$$$&&&&&&&&&&&&&&&&&---...oo+++###%%%%%%###*****%%%%%%%%%###........---===&&&&&&&&&&&&&&&    XX------XXX  &&&&&&&&    XX------XXX  &&&&&&$$$&&&$$$$$@@@$$$@@@;;;;;;;;;;;;;;;;;;;;;;;;;;;;;;;;",
"@@@$$$&&&&&&&&&&&&&&&&&---...oo+++###%%%%%%###*****%%%%%%%%%###........---===&&&&&&&&&&&&&&&    XX------XXX  &&&&&&&&    XX------XXX  &&&&&&$$$&&&$$$$$@@@$$$@@@;;;;;;;;;;;;;;;;;;;;;;;;;;;;;;;;",
"@@@$$$&&&&&&&&&&&&&&&&&---...oo+++###%%%%%%###*****%%%%%%%%%###........---===&&&&&&&&&&&&&&&    XX------XXX  &&&&&&&&    XX------XXX  &&&&&&$$$&&&$$$$$@@@$$$@@@;;;;;;;;;;;;;;;;;;;;;;;;;;;;;;;;",
";;;@@@&&&&&&&&&&&&&&&&&---***..ooo%%%%%%###***-----***%%%%%%%%%%%%%%%..***---&&&&&&&&&&&&   XXXX--XXXXXX---XX    &   XXXX--XXXXXX---XX    $$&&&$$$&&&@@$$$@@@$$$;;;;;;;;;;;;;;;;;;;;;;;;;;;;;;;;",
";;;@@@&&&&&&&&&&&&&&&&&---***..ooo%%%%%%###***-----***%%%%%%%%%%%%%%%..***---&&&&&&&&&&&&   XXXX--XXXXXX---XX    &   XXXX--XXXXXX---XX    $$&&&$$$&&&@@$$$@@@$$$;;;;;;;;;;;;;;;;;;;;;;;;;;;;;;;;",
";;;@@@&&&&&&&&&&&&&&&&&---***..ooo%%%%%%###***-----***%%%%%%%%%%%%%%%..***---&&&&&&&&&&&&   ----XX      XXX--    &   ----XX      XXX--    $$&&&$$$&&&@@$$$@@@$$$;;;;;;;;;;;;;;;;;;;;;;;;;;;;;;;;",
";;;@@@$$$&&&&&&&&&&&&&&===---..***---######-----------%%%%%%%%%%%%#####...---&&&&&&&&&&&&   ----XX      XXX--    &   ----XX      XXX--    &&$$$&&&$$$$$@@@$$$@@@;;;;;;;;;;;;;;;;;;;;;;;;;;;;;;;;",
";;;@@@$$$&&&&&&&&&&&&&&===---..***---######-----------%%%%%%%%%%%%#####...---&&&&&&&&&&&&   ----XX      XXX--    &   ----XX      XXX--    &&$$$&&&$$$$$@@@$$$@@@;;;;;;;;;;;;;;;;;;;;;;;;;;;;;;;;",
";;;@@@$$$&&&&&&&&&&&&&&===---..***---######-----------%%%%%%%%%%%%#####...---&&&&&&&&&&&&   ----           --    &   ----           --    &&$$$&&&$$$$$@@@$$$@@@;;;;;;;;;;;;;;;;;;;;;;;;;;;;;;;;",
";;;;;;@@@&&&&&&&&&&&&&&&&&---..---OOO******---OOO-----%%%%%%###......##...---&&&&&&&&&&&&   ----           --    &   ----           --    $$&&&$$$&&&@@$$$@@@$$$;;;;;;;;;;;;;;;;;;;;;;;;;;;;;;;;",
";;;;;;@@@&&&&&&&&&&&&&&&&&---..---OOO******---OOO-----%%%%%%###......##...---&&&&&&&&&&&&   ----           --    &   ----           --    $$&&&$$$&&&@@$$$@@@$$$;;;;;;;;;;;;;;;;;;;;;;;;;;;;;;;;",
";;;;;;@@@&&&&&&&&&&&&&&&&&---..---OOO******---OOO-----%%%%%%###......##...---&&&&&&&&&&&&   ----           --    &   ----           --    $$&&&$$$&&&@@$$$@@@$$$;;;;;;;;;;;;;;;;;;;;;;;;;;;;;;;;",
";;;;;;@@@$$&&&&&&&&&&&&&&&---**---   ---------   --***%%%%%%%%%###........---&&&&&&&&&&&&   ----XX      XXX--    &   ----XX      XXX--    &&$$$&&&$$$$$@@@$$$@@@;;;;;;;;;;;;;;;;;;;;;;;;;;;;;;;;",
";;;;;;@@@$$&&&&&&&&&&&&&&&---**---   ---------   --***%%%%%%%%%###........---&&&&&&&&&&&&   ----XX      XXX--    &   ----XX      XXX--    &&$$$&&&$$$$$@@@$$$@@@;;;;;;;;;;;;;;;;;;;;;;;;;;;;;;;;",
";;;;;;@@@$$&&&&&&&&&&&&&&&---**---   ---------   --***%%%%%%%%%###........---&&&&&&&&&&&&   ----XX      XXX--    &   ----XX      XXX--    &&$$$&&&$$$$$@@@$$$@@@;;;;;;;;;;;;;;;;;;;;;;;;;;;;;;;;",
";;;;;;;;;@@&&&&&&&&&&&&&&&===-----OOO---------OOO--ooo######%%%%%%...**---===&&&&&&&&&&&&   XXXX--XXXXXX---XX    &   XXXX--XXXXXX---XX    $$&&&$$$&&&@@$$$@@@$$$;;;;;;;;;;;;;;;;;;;;;;;;;;;;;;;;",
";;;;;;;;;@@&&&&&&&&&&&&&&&===-----OOO---------OOO--ooo######%%%%%%...**---===&&&&&&&&&&&&   XXXX--XXXXXX---XX    &   XXXX--XXXXXX---XX    $$&&&$$$&&&@@$$$@@@$$$;;;;;;;;;;;;;;;;;;;;;;;;;;;;;;;;",
";;;;;;;;;@@&&&&&&&&&&&&&&&===-----OOO---------OOO--ooo######%%%%%%...**---===&&&&&&&&&&&&&&&    XX------XXX  &&&&&&&&    XX------XXX  &&&$$$&&&$$$&&&@@$$$@@@$$$;;;;;;;;;;;;;;;;;;;;;;;;;;;;;;;;",
";;;;;;;;;@@$$$&&&&&&&&&&&&&&&--ooo   ooo++++++++++++++###############..---&&&&&&&&&&&&&&&&&&    XX------XXX  &&&&&&&&    XX------XXX  &&&&&&$$$&&&$$$$$@@@$$$@@@;;;;;;;;;;;;;;;;;;;;;;;;;;;;;;;;",
";;;;;;;;;@@$$$&&&&&&&&&&&&&&&--ooo   ooo++++++++++++++###############..---&&&&&&&&&&&&&&&&&&    XX------XXX  &&&&&&&&    XX------XXX  &&&&&&$$$&&&$$$$$@@@$$$@@@;;;;;;;;;;;;;;;;;;;;;;;;;;;;;;;;",
";;;;;;;;;;;@@@&&&&&&&&&&&&&&&--ooo+++++++++++++++++ooo............###..---&&&&&&&&&&&&&&&&&&&&&&           &&&&&&&&&&&&&&           &&&&&$$$&&&$$$&&&@@$$$@@@$$$;;;;;;;;;;;;;;;;;;;;;;;;;;;;;;;;",
";;;;;;;;;;;@@@&&&&&&&&&&&&&&&--ooo+++++++++++++++++ooo............###..---&&&&&&&&&&&&&&&&&&&&&&           &&&&&&&&&&&&&&           &&&&&$$$&&&$$$&&&@@$$$@@@$$$;;;;;;;;;;;;;;;;;;;;;;;;;;;;;;;;",
";;;;;;;;;;;@@@&&&&&&&&&&&&&&&--ooo+++++++++++++++++ooo............###..---&&&&&&&&&&&&&&&&&&&&&&           &&&&&&&&&&&&&&           &&&&&$$$&&&$$$&&&@@$$$@@@$$$;;;;;;;;;;;;;;;;;;;;;;;;;;;;;;;;",
";;;;;;;;;;;@@@@@@@@@@@@@@@@@@&&---ooooooooooooooooo+++---------***...**---@@@@@@@@@@@@@@@@@@@@@@@@@@@@@@@@@@@@@@@@@@@@@@@@@@@@@@@@@@@@@@@@@@@@@@@@@@@@@@@@@@@@@@;;;;;;;;;;;;;;;;;;;;;;;;;;;;;;;;",
";;;;;;;;;;;@@@@@@@@@@@@@@@@@@&&---ooooooooooooooooo+++---------***...**---@@@@@@@@@@@@@@@@@@@@@@@@@@@@@@@@@@@@@@@@@@@@@@@@@@@@@@@@@@@@@@@@@@@@@@@@@@@@@@@@@@@@@@;;;;;;;;;;;;;;;;;;;;;;;;;;;;;;;;",
";;;;;;;;;;;@@@@@@@@@@@@@@@@@@&&---ooooooooooooooooo+++---------***...**---@@@@@@@@@@@@@@@@@@@@@@@@@@@@@@@@@@@@@@@@@@@@@@@@@@@@@@@@@@@@@@@@@@@@@@@@@@@@@@@@@@@@@@;;;;;;;;;;;;;;;;;;;;;;;;;;;;;;;;",
";;;;;;;;;;;;;;;;;;;;;;;;;;;;;;;;;;--------------------;;;;;;;;;--------;;;;;;;;;;;;;;;;;;;;;;;;;;;;;;;;;;;;;;;;;;;;;;;;;;;;;;;;;;;;;;;;;;;;;;;;;;;;;;;;;;;;;;;;;;;;;;;;;;;;;;;;;;;;;;;;;;;;;;;;;",
";;;;;;;;;;;;;;;;;;;;;;;;;;;;;;;;;;--------------------;;;;;;;;;--------;;;;;;;;;;;;;;;;;;;;;;;;;;;;;;;;;;;;;;;;;;;;;;;;;;;;;;;;;;;;;;;;;;;;;;;;;;;;;;;;;;;;;;;;;;;;;;;;;;;;;;;;;;;;;;;;;;;;;;;;;",
";;;;;;;;;;;;;;;;;;;;;;;;;;;;;;;;;;--------------------;;;;;;;;;--------;;;;;;;;;;;;;;;;;;;;;;;;;;;;;;;;;;;;;;;;;;;;;;;;;;;;;;;;;;;;;;;;;;;;;;;;;;;;;;;;;;;;;;;;;;;;;;;;;;;;;;;;;;;;;;;;;;;;;;;;;",
";;;;;;;;;;;;;;;;;;;;;;;;;;;;;;;;;;;;;;;;;;;;;;;;;;;;;;;;;;;;;;;;;;;;;;;;;;;;;;;;;;;;;;;;;;;;;;;;;;;;;;;;;;;;;;;;;;;;;;;;;;;;;;;;;;;;;;;;;;;;;;;;;;;;;;;;;;;;;;;;;;;;;;;;;;;;;;;;;;;;;;;;;;;;;;;;",
";;;;;;;;;;;;;;;;;;;;;;;;;;;;;;;;;;;;;;;;;;;;;;;;;;;;;;;;;;;;;;;;;;;;;;;;;;;;;;;;;;;;;;;;;;;;;;;;;;;;;;;;;;;;;;;;;;;;;;;;;;;;;;;;;;;;;;;;;;;;;;;;;;;;;;;;;;;;;;;;;;;;;;;;;;;;;;;;;;;;;;;;;;;;;;;;",
";;;;;;;;;;;;;;;;;;;;;;;;;;;;;;;;;;;;;;;;;;;;;;;;;;;;;;;;;;;;;;;;;;;;;;;;;;;;;;;;;;;;;;;;;;;;;;;;;;;;;;;;;;;;;;;;;;;;;;;;;;;;;;;;;;;;;;;;;;;;;;;;;;;;;;;;;;;;;;;;;;;;;;;;;;;;;;;;;;;;;;;;;;;;;;;;",
";;;;;;;;;;;;;;;;;;;;;;;;;;;;;;;;;;;;;;;;;;;;;;;;;;;;;;;;;;;;;;;;;;;;;;;;;;;;;;;;;;;;;;;;;;;;;;;;;;;;;;;;;;;;;;;;;;;;;;;;;;;;;;;;;;;;;;;;;;;;;;;;;;;;;;;;;;;;;;;;;;;;;;;;;;;;;;;;;;;;;;;;;;;;;;;;",
";;;;;;;;;;;;;;;;;;;;;;;;;;;;;;;;;;;;;;;;;;;;;;;;;;;;;;;;;;;;;;;;;;;;;;;;;;;;;;;;;;;;;;;;;;;;;;;;;;;;;;;;;;;;;;;;;;;;;;;;;;;;;;;;;;;;;;;;;;;;;;;;;;;;;;;;;;;;;;;;;;;;;;;;;;;;;;;;;;;;;;;;;;;;;;;;"
};
