/* XPM */
static char *result[] = {
/* columns rows colors chars-per-pixel */
"64 64 116 2 ",
"   c black",
".  c #2C1111",
"X  c #2C2C2C",
"o  c #4E2323",
"O  c #592A2A",
"+  c #593A3A",
"@  c #683A2A",
"#  c #7F502A",
"$  c #000059",
"%  c #002C47",
"&  c #000074",
"*  c #4E2360",
"=  c #004E78",
"-  c #4E4E4E",
";  c #595050",
":  c gray35",
">  c #4E567D",
",  c #595974",
"<  c #747474",
"1  c #89592A",
"2  c #834040",
"3  c #954A4A",
"4  c #834E5F",
"5  c #AA5555",
"6  c #B15D55",
"7  c #896850",
"8  c #AC644A",
"9  c #BE6C55",
"0  c #83406D",
"q  c #956464",
"w  c #897F7A",
"e  c #A37878",
"r  c #C47255",
"t  c #D1874A",
"y  c #DF8D55",
"u  c #E1954A",
"i  c #ED9A55",
"p  c #C48D7D",
"a  c #000095",
"s  c #00009B",
"d  c #2C1196",
"f  c #0000A5",
"g  c #0000A9",
"h  c #0000AA",
"j  c #1111B0",
"k  c #1111B1",
"l  c #002CA3",
"z  c #002CB1",
"x  c #2323BD",
"c  c #2323BE",
"v  c #4E2399",
"b  c #593A9E",
"n  c #005989",
"m  c #004E92",
"M  c #00599A",
"N  c #004EBA",
"B  c #004EBE",
"V  c #0059B7",
"C  c #0074B1",
"Z  c #59599B",
"A  c #4E6C8C",
"S  c #5950A6",
"D  c #5656BE",
"F  c #7474AA",
"G  c #2A2AC3",
"H  c #2A2AC4",
"J  c #3434CF",
"K  c #3838D4",
"L  c #3838D5",
"P  c #0059C4",
"I  c #2356CF",
"U  c #0074D5",
"Y  c #4040DF",
"T  c #4E4EDF",
"R  c #4343E4",
"E  c #404EE4",
"W  c #4A4AED",
"Q  c #4D4DF2",
"!  c #5252FB",
"~  c #5555FF",
"^  c #956483",
"/  c #788CA5",
"(  c #0083C6",
")  c #0083D5",
"_  c #0083DF",
"`  c #2C84C7",
"'  c #2C89CA",
"]  c #1184E4",
"[  c #0095E4",
"{  c #0095EA",
"}  c #0095ED",
"|  c #009BE9",
" . c #4792CF",
".. c #838383",
"X. c #928484",
"o. c #958787",
"O. c #838992",
"+. c #95879E",
"@. c #959595",
"#. c #95959B",
"$. c #9B9B9B",
"%. c #9595A5",
"&. c #9B9BAA",
"*. c #8484B1",
"=. c #A5A5A5",
"-. c #A5A5AA",
";. c #AAAAAA",
":. c #BAAFAF",
">. c #E1AC86",
",. c #EDB490",
"<. c #C4B4B0",
"1. c #C6CACF",
"2. c #D5D2D2",
"3. c #E1D1C8",
"4. c #EDDCD4",
"5. c None",
/* pixels */
"5.5.5.5.5.5.5.5.5.5.5.5.5.5.5.5.5.} P h h P 5.5.5.5.P h h h h h h h h P 5.5.5.5.P h h P } 5.5.5.5.5.5.5.5.5.5.5.5.5.5.5.5.5.5.5.",
"5.5.5.5.5.5.5.5.5.5.5.5.5.5.5.5.5.} P k c I 5.5.5.5.I H H H H H H H H I 5.5.5.5.I c k P } 5.5.5.5.5.5.5.5.5.5.5.5.5.5.5.5.5.5.5.",
"5.5.5.5.5.5.5.5.5.5.5.5.5.5.5.5.5.} P c Y E I P P I E W W W W W W W W E I P P I E Y c P } 5.5.5.5.5.5.5.5.5.5.5.5.5.5.5.5.5.5.5.",
"5.5.5.5.5.5.5.5.5.5.5.5.5.5.5.5.5.} P H W W H k c L Q ! Q W W W W Q ! Q L c k H W W H P } 5.5.5.5.5.5.5.5.5.5.5.5.5.5.5.5.5.5.5.",
"5.5.5.5.5.5.5.5.5.5.5.5.5.5.5.5.5.} P H W W H c Y Q ! Q L H H H H L Q ! Q Y c H W W H P } 5.5.5.5.5.5.5.5.5.5.5.5.5.5.5.5.5.5.5.",
"5.5.5.5.5.5.5.5.5.5.5.5.5.5.5.5.5.} P c Y R J J R W W Y c h h h h c Y W W R J J R Y c P } 5.5.5.5.5.5.5.5.5.5.5.5.5.5.5.5.5.5.5.",
"5.5.5.5.5.5.5.5.5.5.5.5.5.5.5.5.5.} P k c J R R J H H c k h h h h k c H H J R R J c k P } 5.5.5.5.5.5.5.5.5.5.5.5.5.5.5.5.5.5.5.",
"5.5.5.5.5.5.5.5.5.5.5.5.5.5.5.5.5.} P h h c Y R J c k h h h h h h h h k c J R Y c h h P } 5.5.5.5.5.5.5.5.5.5.5.5.5.5.5.5.5.5.5.",
"5.5.5.5.5.5.5.5.5.5.5.5.5.5.5.5.5.} P h h k c J R Y c h h h h h h h h c Y R J c k h h P } 5.5.5.5.5.5.5.5.5.5.5.5.5.5.5.5.5.5.5.",
"5.5.5.5.5.5.5.5.5.5.5.5.5.5.5.5.5.} P h h k c L Q Q L c k h h h h k c L Q Q L c k h h P } 5.5.5.5.5.5.5.5.5.5.5.5.5.5.5.5.5.5.5.",
"5.5.5.5.5.5.5.5.5.5.5.5.5.5.5.5.5.} P h h c Y Q ! ! Q Y c h h h h c Y Q ! ! Q Y c h h P } 5.5.5.5.5.5.5.5.5.5.5.5.5.5.5.5.5.5.5.",
"5.5.5.5.5.5.5.5.5.5.5.5.5.5.5.5.5.} P k c L Q ~ ~ ! Q Y c h h h h c Y Q ! ~ ~ Q L c k P } 5.5.5.5.5.5.5.5.5.5.5.5.5.5.5.5.5.5.5.",
"5.5.5.5.5.5.5.5.5.5.5.5.5.5.5.5.5.} P c Y Q ! ~ ~ Q L c k h h h h k c L Q ~ ~ ! Q Y c P } 5.5.5.5.5.5.5.5.5.5.5.5.5.5.5.5.5.5.5.",
"5.5.5.5.5.5.5.5.5.5.5.5.5.5.5.5.5.] I L Q ~ ~ ! Q Y c h h h h h h h h c Y Q ! ~ ~ Q L I ] 5.5.5.5.5.5.5.5.5.5.5.5.5.5.5.5.5.5.5.",
"5.5.5.5.5.5.5.5.5.5.5.5.5.5.5.5.U I E Q ! ~ ~ Q L c k h h h h h h h h k c L Q ~ ~ ! Q E I U 5.5.5.5.5.5.5.5.5.5.5.5.5.5.5.5.5.5.",
"5.5.5.5.5.5.5.5.5.5.5.5.5.5.5.} P H W ~ ~ ! Q Y c h h h h k c c k h h h h c Y Q ! ~ ~ W H P } 5.5.5.5.5.5.5.5.5.5.5.5.5.5.5.5.5.",
"5.5.5.5.5.5.5.5.5.5.5.5.5.5.5.} P H W ~ ~ Q L c k h h h h c Y Y c h h h h k c L Q ~ ~ W H P } 5.5.5.5.5.5.5.5.5.5.5.5.5.5.5.5.5.",
"5.5.5.5.5.5.5.5.5.5.5.5.5.5.5.} P H W ! Q Y c h h h h k c L Q Q L c k h h h h c Y Q ! W H P } 5.5.5.5.5.5.5.5.5.5.5.5.5.5.5.5.5.",
"5.5.5.5.5.5.5.5.5.5.5.5.5.5.5.} P H W Q L c k h h h h c Y Q ! ! Q Y c h h h h k c L Q W H P } 5.5.5.5.5.5.5.5.5.5.5.5.5.5.5.5.5.",
"5.5.5.5.5.5.5.5.5.5.5.5.5.5.5.} P c Y Y c h h h h h h H W ~ ~ ~ ~ W H h h h h h h c Y Y c P } 5.5.5.5.5.5.5.5.5.5.5.5.5.5.5.5.5.",
"5.5.5.5.5.5.5.5.5.5.5.5.5.5.5.} P k c c k h h h g g g G W ~ ~ ~ ~ W G g g g h h h k c c k P } 5.5.5.5.5.5.5.5.5.5.5.5.5.5.5.5.5.",
"5.5.5.5.5.5.5.5.5.5.5.5.5.5.5.5.U B z k c H H c j j x K Q ~ ~ ~ ~ Q K x j j c H H c k z B U 5.5.5.5.5.5.5.5.5.5.5.5.5.5.5.5.5.5.",
"5.5.5.5.5.5.5.5.5.5.5.5.5.5.5.5.5._ B c Y W W Y c c Y Q ! ~ ~ ~ ~ ! Q Y c c Y W W Y c B _ 5.5.5.5.5.5.5.5.5.5.5.5.5.5.5.5.5.5.5.",
"5.5.5.5.5.5.5.5.5.5.5.5.5.5.5.5.5.] I L Q ! Q Y c c Y Q ! ~ ~ ~ ~ ! Q Y c c Y Q ! Q L I ] 5.5.5.5.5.5.5.5.5.5.5.5.5.5.5.5.5.5.5.",
"5.5.5.5.5.5.5.5.5.5.5.5.5.5.5.5.U I E Q ! Q K x k k c L Q ~ ~ ~ ~ Q L c k k x K Q ! Q E I U 5.5.5.5.5.5.5.5.5.5.5.5.5.5.5.5.5.5.",
"5.5.5.5.5.5.5.5.5.5.5.5.5.5.5.} P H W ! Q Y x g h h h c Y Q ! ! Q Y c h h h g x Y Q ! W H P } 5.5.5.5.5.5.5.5.5.5.5.5.5.5.5.5.5.",
"5.5.5.5.5.5.5.5.5.5.5.5.5.5.5.} P H W Q K x k h h h h k c L Q Q L c k h h h h k x K Q W H P } 5.5.5.5.5.5.5.5.5.5.5.5.5.5.5.5.5.",
"5.5.5.5.5.5.5.5.5.5.5.5.5.5.5.} P c Y Y x g h h h h h h h c Y Y c h h h h h h h g x Y Y c P } 5.5.5.5.5.5.5.5.5.5.5.5.5.5.5.5.5.",
"5.5.5.5.5.5.5.5.5.5.5.5.5.5.5.} P k c c k h h h h h h h h k c c k h h h h h h h h k c c k P } 5.5.5.5.5.5.5.5.5.5.5.5.5.5.5.5.5.",
"5.5.5.5.5.5.5.5.5.5.5.5.5.5.5.5.U P P P P P P B z k c c k h h h h k c c k z B P P P P P P U 5.5.5.5.5.5.5.5.5.5.5.5.5.5.5.5.5.5.",
"5.5.5.5.5.5.5.5.5.5.5.5.5.5.5.5.5.} } } } } } _ B c Y Y c h h h h c Y Y c B _ } } } } } } 5.5.5.5.5.5.5.5.5.5.5.5.5.5.5.5.5.5.5.",
"5.5.5.5.5.5.5.5.5.5.5.5.5.5.5.5.5.5.5.5.5.5.5.] I L Q Q L c k k c L Q Q L I ] 5.5.5.5.5.5.5.5.5.5.5.5.5.5.5.5.5.5.5.5.5.5.5.5.5.",
"5.5.5.5.5.5.5.5.5.5.5.5.5.5.5.5.5.5.5.5.5.5.U I E Q ! ! Q Y c c Y Q ! ! Q E I U 5.5.5.5.5.5.5.5.5.5.5.5.5.5.5.5.5.5.5.5.5.5.5.5.",
"5.5.5.5.5.5.5.5.5.5.5.5.5.5.5.5.5.5.5.5.5.) N H W ~ ~ ! Q Y c c Y Q ! ~ ~ W H N ) 5.5.5.5.5.5.5.5.5.5.5.5.5.5.5.5.5.5.5.5.5.5.5.",
"5.5.5.5.5.5.5.5.5.5.5.5.5.5.5.5.5.5.5.5.C m l H W ~ ~ Q L c k k c L Q ~ ~ W H l m C 5.5.5.5.5.5.5.5.5.5.5.5.5.5.5.5.5.5.5.5.5.5.",
"5.5.5.5.5.5.5.5.5.5.5.5.5.5.5.5.5.5.5.` > * d H W ! Q Y c h h h h c Y Q ! W H d * > ` 5.5.5.5.5.5.5.5.5.5.5.5.5.5.5.5.5.5.5.5.5.",
"5.5.5.5.5.5.5.5.5.5.5.5.5.5.5.5.5.5.C > 4 0 v H W Q L c k h h h h k c L Q W H v 0 4 > C 5.5.5.5.5.5.5.5.5.5.5.5.5.5.5.5.5.5.5.5.",
"5.5.5.5.5.5.5.5.5.5.5.5.5.5.5.5.5.5.n + q ^ b H W W H h h k c c k h h H W W H b ^ q + n 5.5.5.5.5.5.5.5.5.5.5.5.5.5.5.5.5.5.5.5.",
"5.5.5.5.5.5.5.5.5.5.5.5.5.5.5.5.5.5.n ; o.+.S H W W H h h c Y Y c h h H W W H S +.o.; n 5.5.5.5.5.5.5.5.5.5.5.5.5.5.5.5.5.5.5.5.",
"5.5.5.5.5.5.5.5.5.5.5.5.5.5.5.5.5.' A < $.&.F D T Y c h h H W W H h h c Y T D F &.$.< A ' 5.5.5.5.5.5.5.5.5.5.5.5.5.5.5.5.5.5.5.",
"5.5.5.5.5.5.5.5.5.5.5.5.5.5.5.5.C A O.$.=.-.&.*.D c k h h H W W H h h k c D *.&.-.=.$.O.A C 5.5.5.5.5.5.5.5.5.5.5.5.5.5.5.5.5.5.",
"5.5.5.5.5.5.5.5.5.5.5.5.5.5.5.5.n : @.;.;.;.;.%.Z s f h h c Y Y c h h f s Z %.;.;.;.;.@.: n 5.5.5.5.5.5.5.5.5.5.5.5.5.5.5.5.5.5.",
"5.5.5.5.5.5.5.5.5.5.5.5.5.5.5.5.n : @.;.;.;.;.#., & s h h k c c k h h s & , #.;.;.;.;.@.: n 5.5.5.5.5.5.5.5.5.5.5.5.5.5.5.5.5.5.",
"5.5.5.5.5.5.5.5.5.5.5.5.5.5.5.5.C A O.@.@.@.@.O.A m l h h h h h h h h l m A O.@.@.@.@.O.A C 5.5.5.5.5.5.5.5.5.5.5.5.5.5.5.5.5.5.",
"5.5.5.5.5.5.5.5.5.5.5.5.5.5.5.5.5.' A : : : : A ' ) N h h h h h h h h N ) ' A : : : : A ' 5.5.5.5.5.5.5.5.5.5.5.5.5.5.5.5.5.5.5.",
"5.5.5.5.5.5.5.5.5.5.5.5.5.5.5.5.5.5.C n n n n C | } P h h z B B z h h P } | C n n n n C 5.5.5.5.5.5.5.5.5.5.5.5.5.5.5.5.5.5.5.5.",
"5.5.5.5.5.5.5.5.5.5.5.5.5.5.5.5.5.5.5.5.5.5.5.5.5.} P h h B _ _ B h h P } 5.5.5.5.5.5.5.5.5.5.5.5.5.5.5.5.5.5.5.5.5.5.5.5.5.5.5.",
"5.5.5.5.5.5.5.5.5.5.5.5.5.5.5.5.5.5.5.5.5.5.5.5.5._ B z B U 5.5.U B z B _ 5.5.5.5.5.5.5.5.5.5.5.5.5.5.5.5.5.5.5.5.5.5.5.5.5.5.5.",
"5.5.5.5.5.5.5.5.5.5.5.5.5.5.5.5.5.5.5.5.5.5.5.5.U B z B _ 5.5.5.5._ B z B U 5.5.5.5.5.5.5.5.5.5.5.5.5.5.5.5.5.5.5.5.5.5.5.5.5.5.",
"5.5.5.5.5.5.5.5.5.5.5.5.5.5.5.5.5.5.5.5.5.5.5.} P h h P } 5.5.5.5.} P h h P } 5.5.5.5.5.5.5.5.5.5.5.5.5.5.5.5.5.5.5.5.5.5.5.5.5.",
"5.5.5.5.5.5.5.5.5.5.5.5.5.5.5.5.5.5.5.5.5.5.5.} P h h P } 5.5.5.5.} P h h P } 5.5.5.5.5.5.5.5.5.5.5.5.5.5.5.5.5.5.5.5.5.5.5.5.5.",
"5.5.5.5.5.5.5.5.5.5.5.5.5.5.5.5.5.5.5.5.5.5.5.{ V a a V { 5.5.5.5.{ V a a V { 5.5.5.5.5.5.5.5.5.5.5.5.5.5.5.5.5.5.5.5.5.5.5.5.5.",
"5.5.5.5.5.5.5.5.5.5.5.5.5.5.5.5.5.5.5.5.5.5.5.[ M $ $ M [ 5.5.5.5.[ M $ $ M [ 5.5.5.5.5.5.5.5.5.5.5.5.5.5.5.5.5.5.5.5.5.5.5.5.5.",
"5.5.5.5.5.5.5.5.5.5.5.5.5.5.5.5.5.5.5.5.5.5.| ' A : : A ' | 5.5.| ' A : : A ' | 5.5.5.5.5.5.5.5.5.5.5.5.5.5.5.5.5.5.5.5.5.5.5.5.",
"5.5.5.5.5.5.5.5.5.5.5.5.5.5.5.5.5.5.5.5.5.| C A O.@.@.O.A C 5.5.C A O.@.@.O.A C | 5.5.5.5.5.5.5.5.5.5.5.5.5.5.5.5.5.5.5.5.5.5.5.",
"5.5.5.5.5.5.5.5.5.5.5.5.5.5.5.5.5.5.5.5.| ( = - ..@.@...- n 5.5.n - ..@.@...- = ( | 5.5.5.5.5.5.5.5.5.5.5.5.5.5.5.5.5.5.5.5.5.5.",
"5.5.5.5.5.5.5.5.5.5.5.5.5.5.5.5.5.5.5.| C = % X - : : - X n 5.5.n X - : : - X % = C | 5.5.5.5.5.5.5.5.5.5.5.5.5.5.5.5.5.5.5.5.5.",
"5.5.5.5.5.5.5.5.5.5.5.5.5.5.5.5.5.5.|  ./ w 7 1 1 # @ O O > ` ` > O O @ # 1 1 7 w /  .| 5.5.5.5.5.5.5.5.5.5.5.5.5.5.5.5.5.5.5.5.",
"5.5.5.5.5.5.5.5.5.5.5.5.5.5.5.5.5.| C / 1.3.>.u u t 8 3 3 4 > > 4 3 3 8 t u u >.3.1./ C | 5.5.5.5.5.5.5.5.5.5.5.5.5.5.5.5.5.5.5.",
"5.5.5.5.5.5.5.5.5.5.5.5.5.5.5.5.| ` > X.2.4.,.i i y 9 5 5 3 O O 3 5 5 9 y i i ,.4.2.X.> ` | 5.5.5.5.5.5.5.5.5.5.5.5.5.5.5.5.5.5.",
"5.5.5.5.5.5.5.5.5.5.5.5.5.5.5.5.C > 4 e :.<.p r r 9 6 5 5 3 O O 3 5 5 6 9 r r p <.:.e 4 > C 5.5.5.5.5.5.5.5.5.5.5.5.5.5.5.5.5.5.",
"5.5.5.5.5.5.5.5.5.5.5.5.5.5.5.5.n o 2 q o.o.q 3 3 3 3 3 3 2 o o 2 3 3 3 3 3 3 q o.o.q 2 o n 5.5.5.5.5.5.5.5.5.5.5.5.5.5.5.5.5.5.",
"5.5.5.5.5.5.5.5.5.5.5.5.5.5.5.5.n . o + ; ; + O O O O O O o . . o O O O O O O + ; ; + o . n 5.5.5.5.5.5.5.5.5.5.5.5.5.5.5.5.5.5.",
"5.5.5.5.5.5.5.5.5.5.5.5.5.5.5.5.n                                                         n 5.5.5.5.5.5.5.5.5.5.5.5.5.5.5.5.5.5."
};
