/* XPM */
static char *result[] = {
/* columns rows colors chars-per-pixel */
"192 64 16 1 ",
"  c black",
". c #0C1134",
"X c gray50",
"o c #936A42",
"O c #009C00",
"+ c #E9941C",
"@ c #E3B75B",
"# c #003080",
"$ c #2533AF",
"% c #1655BF",
"& c #3848F0",
"* c #2C7AFE",
"= c #9198F7",
"- c #81AFFE",
"; c white",
": c None",
/* pixels */
"::::::::::::::::::::::::::::::::::::::::::::::::::::::::::::::::::::::::::::::::::::::::::::::::::::::::::::::::::::::::::::::::::::::::::::::::::::::::::::::::::::::::::::::::::::::::::::::::",
"::::::::::::::::::::::::::::::::::::::::::::::::::::::::::::::::::::::::::::::::::::::::::::::::::::::::::::::::::::::::::::::::::::::::::::::::::::::::::::::::::::::::::::::::::::::::::::::::",
"::::::::::::::::::::::::::::::::::::::::::::::::::::::::::::::::::::::::::::::::::::::::::::::::::::::::::::::::::::::::::::::::::::::::::::::::::::::::::::::::::::::::::::::::::::::::::::::::",
"::::::::::::::::::::::::::::::::::::::::::::::::::::::::::::::::::::::::::::::::::::::::::::::::::::::::::::::::::::::::::::::::::::::::::::::::::::::::::::::::::::::::::::::::::::::::::::::::",
"::::::::::::::::::::::::::::::::::::::::::::::::::::::::::::::::::::::::::::::::::::::::::::::::::::::::::::::::::::::::::::::::::::::::::::::::::::::::::::::::::::::::::::::::::::::::::::::::",
"::::::::::::::::::::::::::::::::::::::::::::::::::::::::::::::::::::::::::::::::::::::::::::::::::::::::::::::::::::::::::::::::::::::::::::::::::::::::::::::::::::::::::::::::::::::::::::::::",
"::::::::::::::::::::::::::::::::::::::::::::::::::::::::::::::::::::::::::::::::::::::::::::::::::::::::::::::::::::::::::::::::::::::::::::::::::::::::::::::::::::::::::::::::::::::::::::::::",
"::::::::::::::::::::::::::::::::::::::::::::::::::::::::::::::::::::::::::::::::::::::::::::::::::::::::::::::::::::::::::::::::::::::::::::::::::::::::::::::::::::::::::::::::::::::::::::::::",
"::::::::::::::::::::::::::::::::::::::::::::::::::::::::::::::::::::::::::::::::::::::::::::::::::::::::::::::::::::::::::::::::::::::::::::::::::::::::::::::::::::::::::::::::::::::::::::::::",
"::::::::::::::::::::::::::::::::::::::::::::::::::::::::::::::::::::::::::::::::::::::::::::::::::::::::::::::::::::::::::::::::::::::::::::::::::::::::::::::::::::::::::::::::::::::::::::::::",
"::::::::::::::::::::::::::::::::::::::::::::::::::::::::::::::::::::::::::::::::::::::::::::::::::::::::::::::::::::::::::::::::::::::::::::::::::::::::::::::::::::::::::::::::::::::::::::::::",
"::::::::::::::::::::::::::::::::::::::::::::::::::::::::::::::::::::::::::::::::::::::::::::::::::::::::::::::::::::::::::::::::::::::::::::::::::::::::::::::::::::::::::::::::::::::::::::::::",
"::::::::::::::::::::::::::::::::::::::::::::::::::::::::::::::::::::::::::::::::::::::::::::::::::::::::::::::::::::::::::::::::::::::::::::::::::::::::::::::::::::::::::::::::::::::::::::::::",
"::::::::::::::::::::::::::::::::::::::::::::::::::::::::::::::::::::::::::::::::::::::::::::::::::::::::::::::::::::::::::::::::::::::::::::::::::::::::::::::::::::::::::::::::::::::::::::::::",
"::::::::::::::::::::::::::::::::::::::::::::::::::::::::::::::::::::::::::::::::::::::::::::::::::::::::::::::::::::::::::::::::::::::::::::::::::::::::::::::::::::::::::::::::::::::::::::::::",
"::::::::::::::::::::::::::::::::::::::::::::::::::::::::::::::::::::::::::::::::::::::::::::::::::::::::::::::::::::::::::::::::::::::::::::::::::::::::::::::::::::::::::::::::::::::::::::::::",
"::::::::::::::::::::::::::::::::::::::::::::::;;;;;;;;;;;;;;;;;:::::::::::::::::::::::::::::::::::::::::::::::::::::::::::::::::::::::::::::::::::::::::::::::::::::::::::::::::::::::::::::::::",
"::::::::::::::::::::::::::::::::::::::::::::::;;;;;;;;;;;;;;;;;:::::::::::::::::::::::::::::::::::::::::::::::::::::::::::::::::::::::::::::::::::::::::::::::::::::::::::::::::::::::::::::::::",
"::::::::::::::::::::::::::::::::::::::::::::::;;;;;;;;;;;;;;;;;:::::::::::::::::::::::::::::::::::::::::::::::::::::::::::::::::::::::::::::::::::::::::::::::::::::::::::::::::::::::::::::::::",
"::::::::::::::::::::::::::::::::::::::::;;;;;;===...........===;;;;;;:::::::::::::::::::::::::::::::::::::::::::::::::::::::::::::::::::::::::::::::::::::::::::::::::::::::::::::::::::::::::::",
"::::::::::::::::::::::::::::::::::::::::;;;;;;===...........===;;;;;;:::::::::::::::::::::::::::::::::::::::::::::::::::::::::::::::::::::::::::::::::::::::::::::::::::::::::::::::::::::::::::",
"::::::::::::::::::::::::::::::::::::::::;;;;;;===...........===;;;;;;:::::::::::::::::::::::::::::::::::::::::::::::::::::::::::::::::::::::::::::::::::::::::::::::::::::::::::::::::::::::::::",
"::::::::::::::::::::::::::;;;;;;;;;;;;;;===......@@ooo&&&&&&......===;;:::::::::::::::::::::::::::::::::::::::::::::::::::::::::::::::::::::::::::::::::::::::::::::::::::::::::::::::::::::::::",
"::::::::::::::::::::::::::;;;;;;;;;;;;;;===......@@ooo&&&&&&......===;;:::::::::::::::::::::::::::::::::::::::::::::::::::::::::::::::::::::::::::::::::::::::::::::::::::::::::::::::::::::::::",
"::::::::::::::::::::::::::;;;;;;;;;;;;;;===......@@ooo&&&&&&......===;;:::::::::::::::::::::::::::::::::::::::::::::::::::::::::::::::::::::::::::::::::::::::::::::::::::::::::::::::::::::::::",
"#######################;;;===.....======...&&&ooo@@@@@$$$$$$$$$$$$...;;***######################################################################################::::::::::::::::::::::::::::::::",
"#######################;;;===.....======...&&&ooo@@@@@$$$$$$$$$$$$...;;***######################################################################################::::::::::::::::::::::::::::::::",
"###++++++++++++++++++++;;;...@@ooo......&&&&&&&&&$$$$$$$$$$$&&&&&&$$$..;;;++++++++++++++++          +++++++++++++++++                 +++%%%***%%%***##%%%###%%%::::::::::::::::::::::::::::::::",
"###++++++++++++++++++++;;;...@@ooo......&&&&&&&&&$$$$$$$$$$$&&&&&&$$$..;;;++++++++++++++++          +++++++++++++++++                 +++%%%***%%%***##%%%###%%%::::::::::::::::::::::::::::::::",
"###++++++++++++++++++++;;;...@@ooo......&&&&&&&&&$$$$$$$$$$$&&&&&&$$$..;;;++++++++++++++++          +++++++++++++++++                 +++%%%***%%%***##%%%###%%%::::::::::::::::::::::::::::::::",
"###%%%+++++++++++++++++;;;...oo@@@$$$&&&&&&$$$=====&&&&&&&&&$$$........;;;---++++++++++   XXX;;;;;XX    ++++++++++   XX;;;;;;;;;;;;XXX   +++%%%***%%%%%###%%%###::::::::::::::::::::::::::::::::",
"###%%%+++++++++++++++++;;;...oo@@@$$$&&&&&&$$$=====&&&&&&&&&$$$........;;;---++++++++++   XXX;;;;;XX    ++++++++++   XX;;;;;;;;;;;;XXX   +++%%%***%%%%%###%%%###::::::::::::::::::::::::::::::::",
"###%%%+++++++++++++++++;;;...oo@@@$$$&&&&&&$$$=====&&&&&&&&&$$$........;;;---++++++++++   XXX;;;;;XX    ++++++++++   XX;;;;;;;;;;;;XXX   +++%%%***%%%%%###%%%###::::::::::::::::::::::::::::::::",
":::###+++++++++++++++++;;;===..ooo&&&&&&$$$===;;;;;===&&&&&&&&&&&&&&&..===;;;++++++    XXX;;;XXXXX;;XXXX   +++++++   ;;XXXX      XX;;;   %%%***%%%***##%%%###%%%::::::::::::::::::::::::::::::::",
":::###+++++++++++++++++;;;===..ooo&&&&&&$$$===;;;;;===&&&&&&&&&&&&&&&..===;;;++++++    XXX;;;XXXXX;;XXXX   +++++++   ;;XXXX      XX;;;   %%%***%%%***##%%%###%%%::::::::::::::::::::::::::::::::",
":::###+++++++++++++++++;;;===..ooo&&&&&&$$$===;;;;;===&&&&&&&&&&&&&&&..===;;;++++++    XXX;;;XXXXX;;XXXX   +++++++               XX;;;   %%%***%%%***##%%%###%%%::::::::::::::::::::::::::::::::",
":::###%%%++++++++++++++---;;;..===;;;$$$$$$;;;;;;;;;;;&&&&&&&&&&&&$$$$$...;;;++++++    ;;;XXX     XX;;;;   +++++++               XX;;;   +++%%%***%%%%%###%%%###::::::::::::::::::::::::::::::::",
":::###%%%++++++++++++++---;;;..===;;;$$$$$$;;;;;;;;;;;&&&&&&&&&&&&$$$$$...;;;++++++    ;;;XXX     XX;;;;   +++++++               XX;;;   +++%%%***%%%%%###%%%###::::::::::::::::::::::::::::::::",
":::###%%%++++++++++++++---;;;..===;;;$$$$$$;;;;;;;;;;;&&&&&&&&&&&&$$$$$...;;;++++++    ;;;          ;;;;   ++++++++++++       XXX;;XXX   +++%%%***%%%%%###%%%###::::::::::::::::::::::::::::::::",
"::::::###+++++++++++++++++;;;..;;;OOO======;;;OOO;;;;;&&&&&&$$$......$$...;;;++++++    ;;;          ;;;;   ++++++++++++       XXX;;XXX   %%%***%%%***##%%%###%%%::::::::::::::::::::::::::::::::",
"::::::###+++++++++++++++++;;;..;;;OOO======;;;OOO;;;;;&&&&&&$$$......$$...;;;++++++    ;;;          ;;;;   ++++++++++++       XXX;;XXX   %%%***%%%***##%%%###%%%::::::::::::::::::::::::::::::::",
"::::::###+++++++++++++++++;;;..;;;OOO======;;;OOO;;;;;&&&&&&$$$......$$...;;;++++++    ;;;XXX     XX;;;;   ++++++++++  XXXX;;;;;;XX   +++%%%***%%%***##%%%###%%%::::::::::::::::::::::::::::::::",
"::::::###%%+++++++++++++++;;;==;;;   ;;;;;;;;;   ;;===&&&&&&&&&$$$........;;;++++++    ;;;XXX     XX;;;;   ++++++++++  XXXX;;;;;;XX   ++++++%%%***%%%%%###%%%###::::::::::::::::::::::::::::::::",
"::::::###%%+++++++++++++++;;;==;;;   ;;;;;;;;;   ;;===&&&&&&&&&$$$........;;;++++++    ;;;XXX     XX;;;;   ++++++++++  XXXX;;;;;;XX   ++++++%%%***%%%%%###%%%###::::::::::::::::::::::::::::::::",
"::::::###%%+++++++++++++++;;;==;;;   ;;;;;;;;;   ;;===&&&&&&&&&$$$........;;;++++++    XXX;;;XXXXX;;XXXX   +++++++   XX;;;;XXX           +++%%%***%%%%%###%%%###::::::::::::::::::::::::::::::::",
":::::::::##+++++++++++++++---;;;;;OOO;;;;;;;;;OOO;;ooo$$$$$$&&&&&&...==;;;---++++++    XXX;;;XXXXX;;XXXX   +++++++   XX;;;;XXX           %%%***%%%***##%%%###%%%::::::::::::::::::::::::::::::::",
":::::::::##+++++++++++++++---;;;;;OOO;;;;;;;;;OOO;;ooo$$$$$$&&&&&&...==;;;---++++++    XXX;;;XXXXX;;XXXX   +++++++   XX;;;;XXX           %%%***%%%***##%%%###%%%::::::::::::::::::::::::::::::::",
":::::::::##+++++++++++++++---;;;;;OOO;;;;;;;;;OOO;;ooo$$$$$$&&&&&&...==;;;---++++++++++   XXX;;;;;XX    ++++++++++   ;;;;;;;;;;;;;;;;;   %%%***%%%***##%%%###%%%::::::::::::::::::::::::::::::::",
":::::::::##%%%+++++++++++++++;;ooo   ooo@@@@@@@@@@@@@@$$$$$$$$$$$$$$$..;;;+++++++++++++   XXX;;;;;XX    ++++++++++   ;;;;;;;;;;;;;;;;;   +++%%%***%%%%%###%%%###::::::::::::::::::::::::::::::::",
":::::::::##%%%+++++++++++++++;;ooo   ooo@@@@@@@@@@@@@@$$$$$$$$$$$$$$$..;;;+++++++++++++   XXX;;;;;XX    ++++++++++   ;;;;;;;;;;;;;;;;;   +++%%%***%%%%%###%%%###::::::::::::::::::::::::::::::::",
":::::::::::###+++++++++++++++;;ooo@@@@@@@@@@@@@@@@@ooo............$$$..;;;+++++++++++++   XXX;;;;;XX    ++++++++++                       %%%***%%%***##%%%###%%%::::::::::::::::::::::::::::::::",
":::::::::::###+++++++++++++++;;ooo@@@@@@@@@@@@@@@@@ooo............$$$..;;;++++++++++++++++          ++++++++++++++                       %%%***%%%***##%%%###%%%::::::::::::::::::::::::::::::::",
":::::::::::###+++++++++++++++;;ooo@@@@@@@@@@@@@@@@@ooo............$$$..;;;++++++++++++++++          ++++++++++++++                       %%%***%%%***##%%%###%%%::::::::::::::::::::::::::::::::",
":::::::::::##################**;;;ooooooooooooooooo@@@;;;;;;;;;===...==;;;######################################################################################::::::::::::::::::::::::::::::::",
":::::::::::##################**;;;ooooooooooooooooo@@@;;;;;;;;;===...==;;;######################################################################################::::::::::::::::::::::::::::::::",
":::::::::::##################**;;;ooooooooooooooooo@@@;;;;;;;;;===...==;;;######################################################################################::::::::::::::::::::::::::::::::",
"::::::::::::::::::::::::::::::::::;;;;;;;;;;;;;;;;;;;;:::::::::;;;;;;;;:::::::::::::::::::::::::::::::::::::::::::::::::::::::::::::::::::::::::::::::::::::::::::::::::::::::::::::::::::::::::",
"::::::::::::::::::::::::::::::::::;;;;;;;;;;;;;;;;;;;;:::::::::;;;;;;;;:::::::::::::::::::::::::::::::::::::::::::::::::::::::::::::::::::::::::::::::::::::::::::::::::::::::::::::::::::::::::",
"::::::::::::::::::::::::::::::::::;;;;;;;;;;;;;;;;;;;;:::::::::;;;;;;;;:::::::::::::::::::::::::::::::::::::::::::::::::::::::::::::::::::::::::::::::::::::::::::::::::::::::::::::::::::::::::",
"::::::::::::::::::::::::::::::::::::::::::::::::::::::::::::::::::::::::::::::::::::::::::::::::::::::::::::::::::::::::::::::::::::::::::::::::::::::::::::::::::::::::::::::::::::::::::::::::",
"::::::::::::::::::::::::::::::::::::::::::::::::::::::::::::::::::::::::::::::::::::::::::::::::::::::::::::::::::::::::::::::::::::::::::::::::::::::::::::::::::::::::::::::::::::::::::::::::",
"::::::::::::::::::::::::::::::::::::::::::::::::::::::::::::::::::::::::::::::::::::::::::::::::::::::::::::::::::::::::::::::::::::::::::::::::::::::::::::::::::::::::::::::::::::::::::::::::",
"::::::::::::::::::::::::::::::::::::::::::::::::::::::::::::::::::::::::::::::::::::::::::::::::::::::::::::::::::::::::::::::::::::::::::::::::::::::::::::::::::::::::::::::::::::::::::::::::",
"::::::::::::::::::::::::::::::::::::::::::::::::::::::::::::::::::::::::::::::::::::::::::::::::::::::::::::::::::::::::::::::::::::::::::::::::::::::::::::::::::::::::::::::::::::::::::::::::"
};
