/* XPM */
static char *result[] = {
/* columns rows colors chars-per-pixel */
"192 64 15 1 ",
"  c black",
". c #0C1134",
"X c gray50",
"o c #936A42",
"O c #009C00",
"+ c #E3B75B",
"@ c #003080",
"# c #2533AF",
"$ c #1655BF",
"% c #3848F0",
"& c #2C7AFE",
"* c #9198F7",
"= c #81AFFE",
"- c white",
"; c None",
/* pixels */
";;;;;;;;;;;;;;;;;;;;;;;;;;;;;;;;;;;;;;;;;;;;;;;;;;;;;;;;;;;;;;;;;;;;;;;;;;;;;;;;;;;;;;;;;;;;;;;;;;;;;;;;;;;;;;;;;;;;;;;;;;;;;;;;;;;;;;;;;;;;;;;;;;;;;;;;;;;;;;;;;;;;;;;;;;;;;;;;;;;;;;;;;;;;;;;;",
";;;;;;;;;;;;;;;;;;;;;;;;;;;;;;;;;;;;;;;;;;;;;;;;;;;;;;;;;;;;;;;;;;;;;;;;;;;;;;;;;;;;;;;;;;;;;;;;;;;;;;;;;;;;;;;;;;;;;;;;;;;;;;;;;;;;;;;;;;;;;;;;;;;;;;;;;;;;;;;;;;;;;;;;;;;;;;;;;;;;;;;;;;;;;;;;",
";;;;;;;;;;;;;;;;;;;;;;;;;;;;;;;;;;;;;;;;;;;;;;;;;;;;;;;;;;;;;;;;;;;;;;;;;;;;;;;;;;;;;;;;;;;;;;;;;;;;;;;;;;;;;;;;;;;;;;;;;;;;;;;;;;;;;;;;;;;;;;;;;;;;;;;;;;;;;;;;;;;;;;;;;;;;;;;;;;;;;;;;;;;;;;;;",
";;;;;;;;;;;;;;;;;;;;;;;;;;;;;;;;;;;;;;;;;;;;;;;;;;;;;;;;;;;;;;;;;;;;;;;;;;;;;;;;;;;;;;;;;;;;;;;;;;;;;;;;;;;;;;;;;;;;;;;;;;;;;;;;;;;;;;;;;;;;;;;;;;;;;;;;;;;;;;;;;;;;;;;;;;;;;;;;;;;;;;;;;;;;;;;;",
";;;;;;;;;;;;;;;;;;;;;;;;;;;;;;;;;;;;;;;;;;;;;;;;;;;;;;;;;;;;;;;;;;;;;;;;;;;;;;;;;;;;;;;;;;;;;;;;;;;;;;;;;;;;;;;;;;;;;;;;;;;;;;;;;;;;;;;;;;;;;;;;;;;;;;;;;;;;;;;;;;;;;;;;;;;;;;;;;;;;;;;;;;;;;;;;",
";;;;;;;;;;;;;;;;;;;;;;;;;;;;;;;;;;;;;;;;;;;;;;;;;;;;;;;;;;;;;;;;;;;;;;;;;;;;;;;;;;;;;;;;;;;;;;;;;;;;;;;;;;;;;;;;;;;;;;;;;;;;;;;;;;;;;;;;;;;;;;;;;;;;;;;;;;;;;;;;;;;;;;;;;;;;;;;;;;;;;;;;;;;;;;;;",
";;;;;;;;;;;;;;;;;;;;;;;;;;;;;;;;;;;;;;;;;;;;;;;;;;;;;;;;;;;;;;;;;;;;;;;;;;;;;;;;;;;;;;;;;;;;;;;;;;;;;;;;;;;;;;;;;;;;;;;;;;;;;;;;;;;;;;;;;;;;;;;;;;;;;;;;;;;;;;;;;;;;;;;;;;;;;;;;;;;;;;;;;;;;;;;;",
";;;;;;;;;;;;;;;;;;;;;;;;;;;;;;;;;;;;;;;;;;;;;;;;;;;;;;;;;;;;;;;;;;;;;;;;;;;;;;;;;;;;;;;;;;;;;;;;;;;;;;;;;;;;;;;;;;;;;;;;;;;;;;;;;;;;;;;;;;;;;;;;;;;;;;;;;;;;;;;;;;;;;;;;;;;;;;;;;;;;;;;;;;;;;;;;",
";;;;;;;;;;;;;;;;;;;;;;;;;;;;;;;;;;;;;;;;;;;;;;;;;;;;;;;;;;;;;;;;;;;;;;;;;;;;;;;;;;;;;;;;;;;;;;;;;;;;;;;;;;;;;;;;;;;;;;;;;;;;;;;;;;;;;;;;;;;;;;;;;;;;;;;;;;;;;;;;;;;;;;;;;;;;;;;;;;;;;;;;;;;;;;;;",
";;;;;;;;;;;;;;;;;;;;;;;;;;;;;;;;;;;;;;;;;;;;;;;;;;;;;;;;;;;;;;;;;;;;;;;;;;;;;;;;;;;;;;;;;;;;;;;;;;;;;;;;;;;;;;;;;;;;;;;;;;;;;;;;;;;;;;;;;;;;;;;;;;;;;;;;;;;;;;;;;;;;;;;;;;;;;;;;;;;;;;;;;;;;;;;;",
";;;;;;;;;;;;;;;;;;;;;;;;;;;;;;;;;;;;;;;;;;;;;;;;;;;;;;;;;;;;;;;;;;;;;;;;;;;;;;;;;;;;;;;;;;;;;;;;;;;;;;;;;;;;;;;;;;;;;;;;;;;;;;;;;;;;;;;;;;;;;;;;;;;;;;;;;;;;;;;;;;;;;;;;;;;;;;;;;;;;;;;;;;;;;;;;",
";;;;;;;;;;;;;;;;;;;;;;;;;;;;;;;;;;;;;;;;;;;;;;;;;;;;;;;;;;;;;;;;;;;;;;;;;;;;;;;;;;;;;;;;;;;;;;;;;;;;;;;;;;;;;;;;;;;;;;;;;;;;;;;;;;;;;;;;;;;;;;;;;;;;;;;;;;;;;;;;;;;;;;;;;;;;;;;;;;;;;;;;;;;;;;;;",
";;;;;;;;;;;;;;;;;;;;;;;;;;;;;;;;;;;;;;;;;;;;;;;;;;;;;;;;;;;;;;;;;;;;;;;;;;;;;;;;;;;;;;;;;;;;;;;;;;;;;;;;;;;;;;;;;;;;;;;;;;;;;;;;;;;;;;;;;;;;;;;;;;;;;;;;;;;;;;;;;;;;;;;;;;;;;;;;;;;;;;;;;;;;;;;;",
";;;;;;;;;;;;;;;;;;;;;;;;;;;;;;;;;;;;;;;;;;;;;;;;;;;;;;;;;;;;;;;;;;;;;;;;;;;;;;;;;;;;;;;;;;;;;;;;;;;;;;;;;;;;;;;;;;;;;;;;;;;;;;;;;;;;;;;;;;;;;;;;;;;;;;;;;;;;;;;;;;;;;;;;;;;;;;;;;;;;;;;;;;;;;;;;",
";;;;;;;;;;;;;;;;;;;;;;;;;;;;;;;;;;;;;;;;;;;;;;;;;;;;;;;;;;;;;;;;;;;;;;;;;;;;;;;;;;;;;;;;;;;;;;;;;;;;;;;;;;;;;;;;;;;;;;;;;;;;;;;;;;;;;;;;;;;;;;;;;;;;;;;;;;;;;;;;;;;;;;;;;;;;;;;;;;;;;;;;;;;;;;;;",
";;;;;;;;;;;;;;;;;;;;;;;;;;;;;;;;;;;;;;;;;;;;;;;;;;;;;;;;;;;;;;;;;;;;;;;;;;;;;;;;;;;;;;;;;;;;;;;;;;;;;;;;;;;;;;;;;;;;;;;;;;;;;;;;;;;;;;;;;;;;;;;;;;;;;;;;;;;;;;;;;;;;;;;;;;;;;;;;;;;;;;;;;;;;;;;;",
";;;;;;;;;;;;;;;;;;;;;;;;;;;;;;;;;;;;;;;;;;;;;;-----------------;;;;;;;;;;;;;;;;;;;;;;;;;;;;;;;;;;;;;;;;;;;;;;;;;;;;;;;;;;;;;;;;;;;;;;;;;;;;;;;;;;;;;;;;;;;;;;;;;;;;;;;;;;;;;;;;;;;;;;;;;;;;;;;;;",
";;;;;;;;;;;;;;;;;;;;;;;;;;;;;;;;;;;;;;;;;;;;;;-----------------;;;;;;;;;;;;;;;;;;;;;;;;;;;;;;;;;;;;;;;;;;;;;;;;;;;;;;;;;;;;;;;;;;;;;;;;;;;;;;;;;;;;;;;;;;;;;;;;;;;;;;;;;;;;;;;;;;;;;;;;;;;;;;;;;",
";;;;;;;;;;;;;;;;;;;;;;;;;;;;;;;;;;;;;;;;;;;;;;-----------------;;;;;;;;;;;;;;;;;;;;;;;;;;;;;;;;;;;;;;;;;;;;;;;;;;;;;;;;;;;;;;;;;;;;;;;;;;;;;;;;;;;;;;;;;;;;;;;;;;;;;;;;;;;;;;;;;;;;;;;;;;;;;;;;;",
";;;;;;;;;;;;;;;;;;;;;;;;;;;;;;;;;;;;;;;;------***...........***------;;;;;;;;;;;;;;;;;;;;;;;;;;;;;;;;;;;;;;;;;;;;;;;;;;;;;;;;;;;;;;;;;;;;;;;;;;;;;;;;;;;;;;;;;;;;;;;;;;;;;;;;;;;;;;;;;;;;;;;;;;;",
";;;;;;;;;;;;;;;;;;;;;;;;;;;;;;;;;;;;;;;;------***...........***------;;;;;;;;;;;;;;;;;;;;;;;;;;;;;;;;;;;;;;;;;;;;;;;;;;;;;;;;;;;;;;;;;;;;;;;;;;;;;;;;;;;;;;;;;;;;;;;;;;;;;;;;;;;;;;;;;;;;;;;;;;;",
";;;;;;;;;;;;;;;;;;;;;;;;;;;;;;;;;;;;;;;;------***...........***------;;;;;;;;;;;;;;;;;;;;;;;;;;;;;;;;;;;;;;;;;;;;;;;;;;;;;;;;;;;;;;;;;;;;;;;;;;;;;;;;;;;;;;;;;;;;;;;;;;;;;;;;;;;;;;;;;;;;;;;;;;;",
";;;;;;;;;;;;;;;;;;;;;;;;;;--------------***......++ooo%%%%%%......***--;;;;;;;;;;;;;;;;;;;;;;;;;;;;;;;;;;;;;;;;;;;;;;;;;;;;;;;;;;;;;;;;;;;;;;;;;;;;;;;;;;;;;;;;;;;;;;;;;;;;;;;;;;;;;;;;;;;;;;;;;",
";;;;;;;;;;;;;;;;;;;;;;;;;;--------------***......++ooo%%%%%%......***--;;;;;;;;;;;;;;;;;;;;;;;;;;;;;;;;;;;;;;;;;;;;;;;;;;;;;;;;;;;;;;;;;;;;;;;;;;;;;;;;;;;;;;;;;;;;;;;;;;;;;;;;;;;;;;;;;;;;;;;;;",
";;;;;;;;;;;;;;;;;;;;;;;;;;--------------***......++ooo%%%%%%......***--;;;;;;;;;;;;;;;;;;;;;;;;;;;;;;;;;;;;;;;;;;;;;;;;;;;;;;;;;;;;;;;;;;;;;;;;;;;;;;;;;;;;;;;;;;;;;;;;;;;;;;;;;;;;;;;;;;;;;;;;;",
"@@@@@@@@@@@@@@@@@@@@@@@---***.....******...%%%ooo+++++############...--&&&@@@@@@@@@@@@@@@@@@@@@@@@@@@@@@@@@@@@@@@@@@@@@@@@@@@@@@@@@@@@@@@@@@@@@@@@@@@@@@@@@@@@@@;;;;;;;;;;;;;;;;;;;;;;;;;;;;;;;;",
"@@@@@@@@@@@@@@@@@@@@@@@---***.....******...%%%ooo+++++############...--&&&@@@@@@@@@@@@@@@@@@@@@@@@@@@@@@@@@@@@@@@@@@@@@@@@@@@@@@@@@@@@@@@@@@@@@@@@@@@@@@@@@@@@@@;;;;;;;;;;;;;;;;;;;;;;;;;;;;;;;;",
"@@@&&&&&&&&&&&&&&&&&&&&---...++ooo......%%%%%%%%%###########%%%%%%###..---&&&&&&&&&&&&&&&&          &&&&&&&&&&&&&                 &&&&&&&$$$&&&$$$&&&@@$$$@@@$$$;;;;;;;;;;;;;;;;;;;;;;;;;;;;;;;;",
"@@@&&&&&&&&&&&&&&&&&&&&---...++ooo......%%%%%%%%%###########%%%%%%###..---&&&&&&&&&&&&&&&&          &&&&&&&&&&&&&                 &&&&&&&$$$&&&$$$&&&@@$$$@@@$$$;;;;;;;;;;;;;;;;;;;;;;;;;;;;;;;;",
"@@@&&&&&&&&&&&&&&&&&&&&---...++ooo......%%%%%%%%%###########%%%%%%###..---&&&&&&&&&&&&&&&&          &&&&&&&&&&   X------------XXXX   &&&&$$$&&&$$$&&&@@$$$@@@$$$;;;;;;;;;;;;;;;;;;;;;;;;;;;;;;;;",
"@@@$$$&&&&&&&&&&&&&&&&&---...oo+++###%%%%%%###*****%%%%%%%%%###........---===&&&&&&&&&&   XXX-----XX    &&&&&&   X------------XXXX   &&&&&&&$$$&&&$$$$$@@@$$$@@@;;;;;;;;;;;;;;;;;;;;;;;;;;;;;;;;",
"@@@$$$&&&&&&&&&&&&&&&&&---...oo+++###%%%%%%###*****%%%%%%%%%###........---===&&&&&&&&&&   XXX-----XX    &&&&&&   X------------XXXX   &&&&&&&$$$&&&$$$$$@@@$$$@@@;;;;;;;;;;;;;;;;;;;;;;;;;;;;;;;;",
"@@@$$$&&&&&&&&&&&&&&&&&---...oo+++###%%%%%%###*****%%%%%%%%%###........---===&&&&&&&&&&   XXX-----XX    &&&&&&   -XXX       XX----   &&&&&&&$$$&&&$$$$$@@@$$$@@@;;;;;;;;;;;;;;;;;;;;;;;;;;;;;;;;",
";;;@@@&&&&&&&&&&&&&&&&&---***..ooo%%%%%%###***-----***%%%%%%%%%%%%%%%..***---&&&&&&    XXX---XXXXX--XXXX   &&&   -XXX       XX----   &&&&$$$&&&$$$&&&@@$$$@@@$$$;;;;;;;;;;;;;;;;;;;;;;;;;;;;;;;;",
";;;@@@&&&&&&&&&&&&&&&&&---***..ooo%%%%%%###***-----***%%%%%%%%%%%%%%%..***---&&&&&&    XXX---XXXXX--XXXX   &&&   -XXX       XX----   &&&&$$$&&&$$$&&&@@$$$@@@$$$;;;;;;;;;;;;;;;;;;;;;;;;;;;;;;;;",
";;;@@@&&&&&&&&&&&&&&&&&---***..ooo%%%%%%###***-----***%%%%%%%%%%%%%%%..***---&&&&&&    XXX---XXXXX--XXXX   &&&   -XXX       XX----   &&&&$$$&&&$$$&&&@@$$$@@@$$$;;;;;;;;;;;;;;;;;;;;;;;;;;;;;;;;",
";;;@@@$$$&&&&&&&&&&&&&&===---..***---######-----------%%%%%%%%%%%%#####...---&&&&&&    ---XXX     XX----   &&&              XX----   &&&&&&&$$$&&&$$$$$@@@$$$@@@;;;;;;;;;;;;;;;;;;;;;;;;;;;;;;;;",
";;;@@@$$$&&&&&&&&&&&&&&===---..***---######-----------%%%%%%%%%%%%#####...---&&&&&&    ---XXX     XX----   &&&              XX----   &&&&&&&$$$&&&$$$$$@@@$$$@@@;;;;;;;;;;;;;;;;;;;;;;;;;;;;;;;;",
";;;@@@$$$&&&&&&&&&&&&&&===---..***---######-----------%%%%%%%%%%%%#####...---&&&&&&    ---          ----   &&&              XX----   &&&&&&&$$$&&&$$$$$@@@$$$@@@;;;;;;;;;;;;;;;;;;;;;;;;;;;;;;;;",
";;;;;;@@@&&&&&&&&&&&&&&&&&---..---OOO******---OOO-----%%%%%%###......##...---&&&&&&    ---          ----   &&&&&&&   XXXX-----XXXX   &&&&$$$&&&$$$&&&@@$$$@@@$$$;;;;;;;;;;;;;;;;;;;;;;;;;;;;;;;;",
";;;;;;@@@&&&&&&&&&&&&&&&&&---..---OOO******---OOO-----%%%%%%###......##...---&&&&&&    ---          ----   &&&&&&&   XXXX-----XXXX   &&&&$$$&&&$$$&&&@@$$$@@@$$$;;;;;;;;;;;;;;;;;;;;;;;;;;;;;;;;",
";;;;;;@@@&&&&&&&&&&&&&&&&&---..---OOO******---OOO-----%%%%%%###......##...---&&&&&&    ---XXX     XX----   &&&              XX----   &&&&$$$&&&$$$&&&@@$$$@@@$$$;;;;;;;;;;;;;;;;;;;;;;;;;;;;;;;;",
";;;;;;@@@$$&&&&&&&&&&&&&&&---**---   ---------   --***%%%%%%%%%###........---&&&&&&    ---XXX     XX----   &&&              XX----   &&&&&&&$$$&&&$$$$$@@@$$$@@@;;;;;;;;;;;;;;;;;;;;;;;;;;;;;;;;",
";;;;;;@@@$$&&&&&&&&&&&&&&&---**---   ---------   --***%%%%%%%%%###........---&&&&&&    ---XXX     XX----   &&&              XX----   &&&&&&&$$$&&&$$$$$@@@$$$@@@;;;;;;;;;;;;;;;;;;;;;;;;;;;;;;;;",
";;;;;;@@@$$&&&&&&&&&&&&&&&---**---   ---------   --***%%%%%%%%%###........---&&&&&&    XXX---XXXXX--XXXX   &&&   -XXX       XX----   &&&&&&&$$$&&&$$$$$@@@$$$@@@;;;;;;;;;;;;;;;;;;;;;;;;;;;;;;;;",
";;;;;;;;;@@&&&&&&&&&&&&&&&===-----OOO---------OOO--ooo######%%%%%%...**---===&&&&&&    XXX---XXXXX--XXXX   &&&   -XXX       XX----   &&&&$$$&&&$$$&&&@@$$$@@@$$$;;;;;;;;;;;;;;;;;;;;;;;;;;;;;;;;",
";;;;;;;;;@@&&&&&&&&&&&&&&&===-----OOO---------OOO--ooo######%%%%%%...**---===&&&&&&    XXX---XXXXX--XXXX   &&&   -XXX       XX----   &&&&$$$&&&$$$&&&@@$$$@@@$$$;;;;;;;;;;;;;;;;;;;;;;;;;;;;;;;;",
";;;;;;;;;@@&&&&&&&&&&&&&&&===-----OOO---------OOO--ooo######%%%%%%...**---===&&&&&&&&&&   XXX-----XX    &&&&&&   -XXX       XX----   &&&&$$$&&&$$$&&&@@$$$@@@$$$;;;;;;;;;;;;;;;;;;;;;;;;;;;;;;;;",
";;;;;;;;;@@$$$&&&&&&&&&&&&&&&--ooo   ooo++++++++++++++###############..---&&&&&&&&&&&&&   XXX-----XX    &&&&&&   X------------XXXX   &&&&&&&$$$&&&$$$$$@@@$$$@@@;;;;;;;;;;;;;;;;;;;;;;;;;;;;;;;;",
";;;;;;;;;@@$$$&&&&&&&&&&&&&&&--ooo   ooo++++++++++++++###############..---&&&&&&&&&&&&&   XXX-----XX    &&&&&&   X------------XXXX   &&&&&&&$$$&&&$$$$$@@@$$$@@@;;;;;;;;;;;;;;;;;;;;;;;;;;;;;;;;",
";;;;;;;;;;;@@@&&&&&&&&&&&&&&&--ooo+++++++++++++++++ooo............###..---&&&&&&&&&&&&&   XXX-----XX    &&&&&&   X------------XXXX   &&&&$$$&&&$$$&&&@@$$$@@@$$$;;;;;;;;;;;;;;;;;;;;;;;;;;;;;;;;",
";;;;;;;;;;;@@@&&&&&&&&&&&&&&&--ooo+++++++++++++++++ooo............###..---&&&&&&&&&&&&&&&&          &&&&&&&&&&&&&                 &&&&&&&$$$&&&$$$&&&@@$$$@@@$$$;;;;;;;;;;;;;;;;;;;;;;;;;;;;;;;;",
";;;;;;;;;;;@@@&&&&&&&&&&&&&&&--ooo+++++++++++++++++ooo............###..---&&&&&&&&&&&&&&&&          &&&&&&&&&&&&&                 &&&&&&&$$$&&&$$$&&&@@$$$@@@$$$;;;;;;;;;;;;;;;;;;;;;;;;;;;;;;;;",
";;;;;;;;;;;@@@@@@@@@@@@@@@@@@&&---ooooooooooooooooo+++---------***...**---@@@@@@@@@@@@@@@@@@@@@@@@@@@@@@@@@@@@@@@@@@@@@@@@@@@@@@@@@@@@@@@@@@@@@@@@@@@@@@@@@@@@@@;;;;;;;;;;;;;;;;;;;;;;;;;;;;;;;;",
";;;;;;;;;;;@@@@@@@@@@@@@@@@@@&&---ooooooooooooooooo+++---------***...**---@@@@@@@@@@@@@@@@@@@@@@@@@@@@@@@@@@@@@@@@@@@@@@@@@@@@@@@@@@@@@@@@@@@@@@@@@@@@@@@@@@@@@@;;;;;;;;;;;;;;;;;;;;;;;;;;;;;;;;",
";;;;;;;;;;;@@@@@@@@@@@@@@@@@@&&---ooooooooooooooooo+++---------***...**---@@@@@@@@@@@@@@@@@@@@@@@@@@@@@@@@@@@@@@@@@@@@@@@@@@@@@@@@@@@@@@@@@@@@@@@@@@@@@@@@@@@@@@;;;;;;;;;;;;;;;;;;;;;;;;;;;;;;;;",
";;;;;;;;;;;;;;;;;;;;;;;;;;;;;;;;;;--------------------;;;;;;;;;--------;;;;;;;;;;;;;;;;;;;;;;;;;;;;;;;;;;;;;;;;;;;;;;;;;;;;;;;;;;;;;;;;;;;;;;;;;;;;;;;;;;;;;;;;;;;;;;;;;;;;;;;;;;;;;;;;;;;;;;;;;",
";;;;;;;;;;;;;;;;;;;;;;;;;;;;;;;;;;--------------------;;;;;;;;;--------;;;;;;;;;;;;;;;;;;;;;;;;;;;;;;;;;;;;;;;;;;;;;;;;;;;;;;;;;;;;;;;;;;;;;;;;;;;;;;;;;;;;;;;;;;;;;;;;;;;;;;;;;;;;;;;;;;;;;;;;;",
";;;;;;;;;;;;;;;;;;;;;;;;;;;;;;;;;;--------------------;;;;;;;;;--------;;;;;;;;;;;;;;;;;;;;;;;;;;;;;;;;;;;;;;;;;;;;;;;;;;;;;;;;;;;;;;;;;;;;;;;;;;;;;;;;;;;;;;;;;;;;;;;;;;;;;;;;;;;;;;;;;;;;;;;;;",
";;;;;;;;;;;;;;;;;;;;;;;;;;;;;;;;;;;;;;;;;;;;;;;;;;;;;;;;;;;;;;;;;;;;;;;;;;;;;;;;;;;;;;;;;;;;;;;;;;;;;;;;;;;;;;;;;;;;;;;;;;;;;;;;;;;;;;;;;;;;;;;;;;;;;;;;;;;;;;;;;;;;;;;;;;;;;;;;;;;;;;;;;;;;;;;;",
";;;;;;;;;;;;;;;;;;;;;;;;;;;;;;;;;;;;;;;;;;;;;;;;;;;;;;;;;;;;;;;;;;;;;;;;;;;;;;;;;;;;;;;;;;;;;;;;;;;;;;;;;;;;;;;;;;;;;;;;;;;;;;;;;;;;;;;;;;;;;;;;;;;;;;;;;;;;;;;;;;;;;;;;;;;;;;;;;;;;;;;;;;;;;;;;",
";;;;;;;;;;;;;;;;;;;;;;;;;;;;;;;;;;;;;;;;;;;;;;;;;;;;;;;;;;;;;;;;;;;;;;;;;;;;;;;;;;;;;;;;;;;;;;;;;;;;;;;;;;;;;;;;;;;;;;;;;;;;;;;;;;;;;;;;;;;;;;;;;;;;;;;;;;;;;;;;;;;;;;;;;;;;;;;;;;;;;;;;;;;;;;;;",
";;;;;;;;;;;;;;;;;;;;;;;;;;;;;;;;;;;;;;;;;;;;;;;;;;;;;;;;;;;;;;;;;;;;;;;;;;;;;;;;;;;;;;;;;;;;;;;;;;;;;;;;;;;;;;;;;;;;;;;;;;;;;;;;;;;;;;;;;;;;;;;;;;;;;;;;;;;;;;;;;;;;;;;;;;;;;;;;;;;;;;;;;;;;;;;;",
";;;;;;;;;;;;;;;;;;;;;;;;;;;;;;;;;;;;;;;;;;;;;;;;;;;;;;;;;;;;;;;;;;;;;;;;;;;;;;;;;;;;;;;;;;;;;;;;;;;;;;;;;;;;;;;;;;;;;;;;;;;;;;;;;;;;;;;;;;;;;;;;;;;;;;;;;;;;;;;;;;;;;;;;;;;;;;;;;;;;;;;;;;;;;;;;"
};
