/* XPM */
static char *result[] = {
/* columns rows colors chars-per-pixel */
"64 64 242 2 ",
"   c #050101",
".  c #0B0909",
"X  c #140000",
"o  c #1B0001",
"O  c #302D18",
"+  c #0F1232",
"@  c #281A38",
"#  c #373533",
"$  c #2E0000",
"%  c #480000",
"&  c #550000",
"*  c #570F15",
"=  c #780000",
"-  c #720B0B",
";  c #4A3130",
":  c #6B272E",
">  c #671921",
",  c #0B0E54",
"<  c #042E5C",
"1  c #323052",
"2  c #1F1E7E",
"3  c #1C1877",
"4  c #0B116A",
"5  c #201D7E",
"6  c #20177B",
"7  c #133476",
"8  c #2C2C76",
"9  c #322D72",
"0  c #4F2C49",
"q  c #752C53",
"w  c #4F1269",
"e  c #4A377B",
"r  c #4D3372",
"t  c #68396A",
"y  c #6B1E41",
"u  c #374A6E",
"i  c #20446A",
"p  c #474748",
"a  c #585858",
"s  c #564C4E",
"d  c #7A495B",
"f  c #755251",
"g  c #525473",
"h  c #78476B",
"j  c #754B7B",
"k  c #6D4874",
"l  c #656464",
"z  c #6D6D6C",
"x  c #7C7B7B",
"c  c #747478",
"v  c #6C616B",
"b  c #61615F",
"n  c #880202",
"m  c #990000",
"M  c #970000",
"N  c #831818",
"B  c #B90000",
"V  c #883430",
"C  c #872614",
"Z  c #CA0000",
"A  c #DB0101",
"S  c #D20000",
"D  c #DC1010",
"F  c #E20000",
"G  c #E01212",
"H  c #D22C2C",
"J  c #964D31",
"K  c #A05E3F",
"L  c #834B5C",
"P  c #885558",
"I  c #975B54",
"U  c #965445",
"Y  c #9B6556",
"T  c #AA694B",
"R  c #A76A56",
"E  c #B77859",
"W  c #B0704C",
"Q  c #865A75",
"!  c #8C5866",
"~  c #836766",
"^  c #98666A",
"/  c #857B7A",
"(  c #936E78",
")  c #A56A68",
"_  c #B0796D",
"`  c #C86D65",
"'  c #CA5B5B",
"]  c #84837E",
"[  c #BA8269",
"{  c #BA8479",
"}  c #C78768",
"|  c #CE9279",
" . c #DB9C7C",
".. c #D39577",
"X. c #C98E73",
"o. c #E19F7E",
"O. c #E1A07F",
"+. c #C1825F",
"@. c #1E1F80",
"#. c #171D81",
"$. c #231F84",
"%. c #1F2A86",
"&. c #1E2C88",
"*. c #1F2684",
"=. c #1D348E",
"-. c #1C3A94",
";. c #1B3C96",
":. c #063293",
">. c #222281",
",. c #2C2C8A",
"<. c #252B88",
"1. c #342D87",
"2. c #2C338A",
"3. c #35338A",
"4. c #283793",
"5. c #353594",
"6. c #3D3D9C",
"7. c #373897",
"8. c #3E3FA0",
"9. c #413F9E",
"0. c #473C95",
"q. c #4F3885",
"w. c #413FA0",
"e. c #1A449D",
"r. c #134898",
"t. c #054B8F",
"y. c #2C5897",
"u. c #314895",
"i. c #174BA5",
"p. c #0057A5",
"a. c #1453AE",
"s. c #0E5CB8",
"d. c #115AB5",
"f. c #185BB4",
"g. c #3D43A2",
"h. c #3A4CAB",
"j. c #354AA8",
"k. c #2B59A7",
"l. c #295EBC",
"z. c #275BB9",
"x. c #3557B5",
"c. c #314DAC",
"v. c #0261B8",
"b. c #1667BD",
"n. c #2662BD",
"m. c #3867BB",
"M. c #2F66B1",
"N. c #494799",
"B. c #554594",
"V. c #595297",
"C. c #4D5185",
"Z. c #63488C",
"A. c #685799",
"S. c #72538C",
"D. c #526698",
"F. c #767886",
"G. c #6A7798",
"H. c #747A94",
"J. c #716795",
"K. c #4241A1",
"L. c #4B4CAA",
"P. c #4548A6",
"I. c #5453A9",
"U. c #4857B1",
"Y. c #5454B3",
"T. c #5A58B4",
"R. c #5C5DBC",
"E. c #5857B6",
"W. c #4D54AF",
"Q. c #675EB5",
"!. c #436CBE",
"~. c #4574BD",
"^. c #5272B3",
"/. c #6565BC",
"(. c #7176AB",
"). c #016ECE",
"_. c #0667C9",
"`. c #1C66C4",
"'. c #1668C6",
"]. c #156CCA",
"[. c #1A6BC9",
"{. c #2666C2",
"}. c #2871C8",
"|. c #3571C4",
" X c #5E5EC1",
".X c #5171C4",
"XX c #6161C1",
"oX c #6C6CCC",
"OX c #6A6AC6",
"+X c #7777CA",
"@X c #7373D3",
"#X c #7B7BDB",
"$X c #6F6ECE",
"%X c #815D81",
"&X c #916D83",
"*X c #A67A87",
"=X c #8F76AD",
"-X c #7E8186",
";X c #5E86CE",
":X c #888888",
">X c #979596",
",X c #8B8B93",
"<X c #A49A9A",
"1X c #AE8B8E",
"2X c #8B8CAD",
"3X c #AA8AA6",
"4X c #A7A7A7",
"5X c #BDBDBD",
"6X c #B6B6B8",
"7X c #AAA7B3",
"8X c #A0A09E",
"9X c #DA9C83",
"0X c #CD8C84",
"qX c #D3A28B",
"wX c #E1A181",
"eX c #E0A78C",
"rX c #E0B19C",
"tX c #E1AC94",
"yX c #CEB9B3",
"uX c #E0BAAB",
"iX c #CEC2BD",
"pX c #E3C6BA",
"aX c #9494DE",
"sX c #8D8DD1",
"dX c #ABABC9",
"fX c #B9B8C6",
"gX c #B9B9DD",
"hX c #AFB0CF",
"jX c #8181E1",
"kX c #99AAD2",
"lX c #C6BEC3",
"zX c #C9C8CA",
"xX c #C9C9D8",
"cX c #D4D4D4",
"vX c #DDDDDD",
"bX c #DDD6D6",
"nX c #DACBC7",
"mX c #E1D5D0",
"MX c #CCCCE0",
"NX c #D9D9E1",
"BX c #E1E1E1",
"VX c None",
/* pixels */
"VXVXVXVXVXVXVXVXVXVXVXVXVXVXVXVXVXVXVXVXVXVXVXVXVXVXVXVXVXVXVXVXVXVXVXVXVXVXVXVXVXVXVXVXVXVXVXVXVXVXVXVXVXVXVXVXVXVXVXVXVXVXVXVX",
"VXVXVXVXVXVXVXVXVXVXVXVXVXVXVXVXVXVXVXVXVXVXVXVXVXVXVXVXVXVXVXVXVXVXVXVXVXVXVXVXVXVXVXVXVXVXVXVXVXVXVXVXVXVXVXVXVXVXVXVXVXVXVXVX",
"VXVXVXVXVXVXVXVXVXVXVXVXVXVXVXVXVXVXVXVX].[.'.].'.[.].VXVXVXVXVXVXVXVXVXVXVXVXVXVXVXVXVXVXVXVXVXVXVXVXVXVXVXVXVXVXVXVXVXVXVXVXVX",
"VXVXVXVXVXVXVXVXVXVXVXVXVXVXVXVXVXVXVX{.c.h.h.h.h.h.c.n.VXVXVXVXVXVXVXVXVXVXVXVXVXVXVXVXVXVXVXVXVXVXVXVXVXVXVXVXVXVXVXVXVXVXVXVX",
"VXVXVXVXVXVXVXVXVXVXVXVXVX'.l.l.l.l.l.x.K.w.w.w.L.Y.W.x.l.l.l.n.VXVXVXVXVXVXVXVXVXVXVXVXVXVXVXVXVXVXVXVXVXVXVXVXVXVXVXVXVXVXVXVX",
"VXVXVXVXVXVXVXVXVXVXVXVXVXx.g.g.g.K.g.K.w.w.w.w.Y.E.R.Y.P.P.P.h.{.VXVXVXVXVXVXVXVXVXVXVXVXVXVXVXVXVXVXVXVXVXVXVXVXVXVXVXVXVXVXVX",
"VXVXVXVXVXVXVXVXVXVXd.;.e.4.<.,.5.w.w.w.w.K.w.w.6.7.6.L.E.E.E.Y.U.c.x.`.VXVXVXVXVXs.i.VXVXVXVXVXVXVXVXVXVXVXVXVXVXVXVXVXVXVXVXVX",
"VXVXVXVXVXVXVXVXVXVXd.e.e.=.5 5 ,.5.5.7.7.8.w.w.<.q.Q A.Y.R. X XY.L.L.x.{.{.].VXs.e.-.VXVXVXVXVXVXVXVXVXVXVXVXVXVXVXVXVXVXVXVXVX",
"VXVXVXVXVXVXVXVXVXVXVXVXVXi.&.&.<.<.>.>.<.5.w.w.3.j 0X*X0.E. X X X XR.W.P.h.l.VX;.@.-.VXVXVXVXVXVXVXVXVXVXVXVXVXVXVXVXVXVXVXVXVX",
"VXVXVXVXVXVXVXVXVXVXVXVXVXVXs.d.d.d.-.2 @.,.,.3.k ) ..| *XA.L. X$X$XXXE.E.Y.U.c.<.2 -.VXVXVXVXVXVXVXVXVXVXVXVXVXVXVXVXVXVXVXVXVX",
"VXVXVXVXVXVXVXVXVXVXVXVXVXVXVXVXVXVXa.=.>.>.<.9 h E  .o. .*XS. X@X#XoXOXXXXXY.P.5.>.-.VXVXVXVXVXVXVXVXVXVXVXVXVXVXVXVXVXVXVXVXVX",
"VXVXVXVXVXVXVXVXVXVXVXVXVXVXVXVXVXVXVXa.,.7.5.1.L W ..o.9X0X*XQ.@XjX#X#X#XXXR.Y.K.1.-.VXVXVXVXVXVXVXVXVXVXVXVXVXVXVXVXVXVXVXVXVX",
"VXVXVXVXVXVXVXVXVXVXVXVXVXVXVXVXVXVX{.c.5.6.5.q.L T +.1X3X=X=X+X#XjX#X#X#X#XoX XY.P.8.'.VXVXVXVXVXVXVXVXVXVXVXVXVXVXVXVXVXVXVXVX",
"VXVXVXVXVXVXVXVXVXVXVXVXVXVXVX[.`.n.h.8.6.6.5.1.j I ^ J.XXOX#X#X#X#X#X#X#X#X$X X XI.h.`.VXVXVXVXVXVXVXVXVXVXVXVXVXVXVXVXVXVXVXVX",
"VXVXVXVXVXVXVXVXVXVXVXVXVXVX'.x.h.h.8.7.,.7.w.9.0.A.Q.Q.OX@X@XOXOXOXOXOX@X#X@XXX XY.h.`.VXVXVXVXVXVXVXVXVXVXVXVXVXVXVXVXVXVXVXVX",
"VXVXVXVXVXVXVXVXVXVXVXVXl.l.x.g.w.w.7.,.$.7.w.w.L.Y. XXXXX$XoXoXsXhXdXsX$X$X@XoXXXE.Y.x.`.VXVXVXVXVXVXVXVXVXVXVXVXVXVXVXVXVXVXVX",
"VXVXVXVXVXVXVXVXVXVXVXn.h.8.K.K.K.6.,.@.>.5.w.K.Y.R. X/. XXX X+XxXBXMXgXsX$X@X@XXX XR.Y.m.VXVXVXVXVXVXVXVXVXVXVXVXVXVXVXVXVXVXVX",
"VXVXVXVXVXVXVXVXVXVXl.h.K.w.K.K.K.6.,.2 >.6.K.K.E. XXX XXX XoXsXxXBXBXvXgXjX$XoXXXR./.$X.X].VXVXVXVXVXVXVXVXVXVXVXVXVXVXVXVXVXVX",
"VXVXVXVXVXVXVXVXVXl.h.9.7.5.5.5.6.6.,.@.>.5.K.K.L.R.R. X X XoXaXMXBXNXBXxX(.Y.E.XXXX/./..X].VXVXVXVXVXVXVXVXVXVXVXVXVXVXVXVXVXVX",
"VXVXVXVXVXVXVXVXz.j.9.5.<.$.>.>.2.7.,.@.<.7.9.K.w.L.R. X/. X$XaXMXBXBXBXzXg >.g.R.XXT.u i.VXVXVXVXVXVXVXVXVXVXVXVXVXVXVXVXVXVXVX",
"VXVXVXVXVXVXVXd.4.2.,.<.>.@.2 2 <.,.>.2 >.,.5.6.w.L. X X X XoXaXMXBXNXBX5Xa + 8 P.R.Y.1 t.VXVXVXVXVXVXVXVXVXVXVXVXVXVXVXVXVXVXVX",
"VXVXVXVXVXVXVXa.e.e.i.e.e.e.;.<.6 5 @.*.5 5 ,.6.w.P.Y.E.E. XoXaXMXBXBXBXfXa   1 L.I.N.1 t.VXVXVXVXVXVXVXVXVXVXVXVXVXVXVXVXVXVXVX",
"VXVXVXVXVXVXVXVXVXVXVXVXVXVXVX;.>.<.>.>.5 5 ,.6.8.w.w.P.L.E. X+XxXBXBXBXzXs   u +XG., @ r.VXVXVXVXVXVXVXVXVXVXVXVXVXVXVXVXVXVXVX",
"VXVXVXVXVXVXVXVXVXVXVXVXVXVXVXs.d.a.=.5 >.$.<.2.8.w.8.8.8.P.P.R.sXgXvXBXfXp   v hX2XO a D.VXVXVXVXVXVXVXVXVXVXVXVXVXVXVXVXVXVXVX",
"VXVXVXVXVXVXVXVXVXVXVXVXVXVXVXVXVXf.u.<.>.>.8 $.5.6.8.B.V.(.2X(.Q.sXMXNXzX:Xz >XiX8Xa l G.m.].VXVXVXVXVXVXVXVXVXVXVXVXVXVXVXVXVX",
"VXVXVXVXVXVXVXVXVXVXVXVXVXVXVXVXl.h.8.5.>.@.@.@.$.,.0.S.1X5XcXlX2X(.aXMXvXcXxXyX{ ( z p g -X;XVXVXVXVXVXVXVXVXVXVXVXVXVXVXVXVXVX",
"VXVXVXVXVXVXVXVXVXVXVXVXVX`.x.l.c.w.8.5.>.>.>.@.@.e j ) | uXpXpXfXhXgXNXBXBXmXuXX.R s O O g M.VXVXVXVXVXVXVXVXVXVXVXVXVXVXVXVXVX",
"VXVXVXVXVXVXVXVXVXVXVXVX'.x.g.K.w.6.7.5.>.@.5 >.#.r I } O.wXO.tXnXmXmXmXbXmXuXO.O.] 9 < < i v.VXVXVXVXVXVXVXVXVXVXVXVXVXVXVXVXVX",
"VXVXVXVXVXVXVXVXVXVXVX`.x.g.w.9.7.,.<.<.@.$.@.@.#.r I } wXO.O.O.tXrXrXtXrXrXeXO.O.>Xn.v.v.v.VXVXVXVXVXVXVXVXVXVXVXVXVXVXVXVXVXVX",
"VXVXVXVXVXVXVXVXVXVXVX`.g.7.5.5.,.@.2 2 8 5 >.@.@.e L ) X. .O.O.O.O.O.o. .} } } ` =X[.VXVXVXVXVXVXVXVXVXVXVXVXVXVXVXVXVXVXVXVXVX",
"VXVXVXVXVXVXVXVXVXVXVXn.j.5.$.>.@.5 >.>.@.@.$.@.5 8 9 t R .. . . . . . .} K K U L V.VXVXVXVXVXVXVXVXVXVXVXVXVXVXVXVXVXVXVXVXVXVX",
"VXVXVXVXVXVXVXVXVXVXl.j.2.>.5 5 @.$.5 >.@.@.@.2 4 , 6 q.h ) E E E E E E T J C L I.{.VXVXVXVXVXVXVXVXVXVXVXVXVXVXVXVXVXVXVXVXVXVX",
"VXVXVXVXVXVXVXVXVXVXn.c.i.i.i.i.i.e.&.5 5 5 *.@., , 4 , w t L L ! L J J V N q I.{.VXVXVXVXVXVXVXVXVXVXVXVXVXVXVXVXVXVXVXVXVXVXVX",
"VXVXVXVXVXVXVXVXVXVXVXVXVXVXVXVXVXVXe.<.&.*.@.>.9 r 1 ; 0 r q.q.0.j V V C V Z.|.VXVXVXVXVXVXVXVXVXVXVXVXVXVXVXVXVXVXVXVXVXVXVXVX",
"VXVXVXVXVXVXVXVXVXVXVXVXVXVXVXVXVXVXVXd.d.:.4 1.&X_ +.[ [ { &X0.j ) _ } E U h V.{.VXVXVXVXVXVXVXVXVXVXVXVXVXVXVXVXVXVXVXVXVXVXVX",
"VXVXVXVXVXVXVXVXVXVXVXVXVXVXVXVXVXVXVXVXn.A.S.( _ ........1X*XS.) } O.wX..E K h |.VXVXVXVXVXVXVXVXVXVXVXVXVXVXVXVXVXVXVXVXVXVXVX",
"VXVXVXVXVXVXVXVXVXVXVXVXVXVXVXVXVXVXVXf.V.{ 0X| { T R T ^ J.%X) X. .wXo.wX..` Q m.VXVXVXVXVXVXVXVXVXVXVXVXVXVXVXVXVXVXVXVXVXVXVX",
"VXVXVXVXVXVXVXVXVXVXVXVXVXVXVXVXVXVXd.J.*X[ } +.^ h t t t 0.S.T ..wXwXwXwXwX} ^ .XVXVXVXVXVXVXVXVXVXVXVXVXVXVXVXVXVXVXVXVXVXVXVX",
"VXVXVXVXVXVXVXVXVXVXVXVXVXVXVXVXVXVX;.&X..E U P t 3.C.J.J.B.j T }  .o.wX9X..W Q .XVXVXVXVXVXVXVXVXVXVXVXVXVXVXVXVXVXVXVXVXVXVXVX",
"VXVXVXVXVXVXVXVXVXVXVXVXVXVXVXVXVXVX4.&X..+.P k 1.C.,X6XfX(.S.Y T }  .o...W J h |.VXVXVXVXVXVXVXVXVXVXVXVXVXVXVXVXVXVXVXVXVXVXVX",
"VXVXVXVXVXVXVXVXVXVXVXVXVXVXVXVXVXa.=.Q { qX6X7XH.-X6XzX6XdX2XQ U W ` } E J - 0 u.b.VXVXVXVXVXVXVXVXVXVXVXVXVXVXVXVXVXVXVXVXVXVX",
"VXVXVXVXVXVXVXVXVXVXVXVXVXVXVXVXd.&.5 t R yXcXxX6X4XcX5X7XzXhXV.Q I Y Y U : * # p U.}.].VXVXVXVXVXVXVXVXVXVXVXVXVXVXVXVXVXVXVXVX",
"VXVXVXVXVXVXVXVXVXVXVXVXVXVXVXVXa.*.5 w U <X4X4X5XcXBXcXcXvXfXV.B.Z.V.Z.Z.r 1 p z -XG.|.VXVXVXVXVXVXVXVXVXVXVXVXVXVXVXVXVXVXVXVX",
"VXVXVXVXVXVXVXVXVXVXVXVXVXVXVXVXa.*.5 w t :X-Xx 5XBXBXcXzXzX7XP.5.2.1.2.3.9 1 a c -X-X.XVXVXVXVXVXVXVXVXVXVXVXVXVXVXVXVXVXVXVXVX",
"VXVXVXVXVXVXVXVXVXVXVXVXVXVXVXVXa.%.=.<.1.F.z l 6XBXvX5X4X8X,XP.4.2 , 8 8 1 p a c x -X|.VXVXVXVXVXVXVXVXVXVXVXVXVXVXVXVXVXVXVXVX",
"VXVXVXVXVXVXVXVXVXVXVXVXVXVXVXVXa.=.a.VXf.g b c 5XcX5X8X,X,XJ.P.a.i.3 3 9 p b z b a g M.VXVXVXVXVXVXVXVXVXVXVXVXVXVXVXVXVXVXVXVX",
"VXVXVXVXVXVXVXVXVXVXVXVXVXVXVXVXb.i.VXVXVXk.g c 6XiX8X:Xx F.D.x.[.d.&.@.8 p a z p u y.b.VXVXVXVXVXVXVXVXVXVXVXVXVXVXVXVXVXVXVXVX",
"VXVXVXVXVXVXVXVXVXVXVXVXVXVXVXVXVXVXVXVXVXVXb.g ,X>X:XF.F.V.x.'.).d.&.5 4 + # p u y.VXVXVXVXVXVXVXVXVXVXVXVXVXVXVXVXVXVXVXVXVXVX",
"VXVXVXVXVXVXVXVXVXVXVXVXVXVXVXVXVXVXVXVXVXVXVXM.D.z l l C.N.z.).).d.<.@.4 + O u k.b.VXVXVXVXVXVXVXVXVXVXVXVXVXVXVXVXVXVXVXVXVXVX",
"VXVXVXVXVXVXVXVXVXVXVXVXVXVXVXVXVXVXVXVXVXVXVXVXk.u u 9 2.j.l.).).d.*.@.8 < u y.'.VXVXVXVXVXVXVXVXVXVXVXVXVXVXVXVXVXVXVXVXVXVXVX",
"VXVXVXVXVXVXVXVXVXVXVXVXVXVXVXVXVXVXVXVXVXVXVXVXVXf.<.1.j.z.).).).d.%.@.;.v.VXVXVXVXVXVXVXVXVXVXVXVXVXVXVXVXVXVXVXVXVXVXVXVXVXVX",
"VXVXVXVXVXVXVXVXVXVXVXVXVXVXVXVXVXVXVXVXVXVXVXVXVXVX:.<.c._.).).).s.*.#.r.VXVXVXVXVXVXVXVXVXVXVXVXVXVXVXVXVXVXVXVXVXVXVXVXVXVXVX",
"VXVXVXVXVXVXVXVXVXVXVXVXVXVXVXVXVXVXVXVXVXVX].}..X~.G.(.(.;X;X].'.k.u.e y.m.m.m.].VXVXVXVXVXVXVXVXVXVXVXVXVXVXVXVXVXVXVXVXVXVXVX",
"VXVXVXVXVXVXVXVXVXVXVXVXVXVXVXVXVXVXVXVXVXVX.X-X2X7XzXzXcXMXkX}.y.g c c F.H.-X;X}.VXVXVXVXVXVXVXVXVXVXVXVXVXVXVXVXVXVXVXVXVXVXVX",
"VXVXVXVXVXVXVXVXVXVXVXVXVXVXVXVXVXVXVXVXVXVX!.&X:X8X5X5XzXzXkX{.7 p l z c ] ] H.|.VXVXVXVXVXVXVXVXVXVXVXVXVXVXVXVXVXVXVXVXVXVXVX",
"VXVXVXVXVXVXVXVXVXVXVXVXVXVXVXVXVXVXVXVXVXVX^.c x ] :X>X<X>X2X;Xu # p p a x / H.|.VXVXVXVXVXVXVXVXVXVXVXVXVXVXVXVXVXVXVXVXVXVXVX",
"VXVXVXVXVXVXVXVXVXVXVXVXVXVXVXVXVXVXVXVXVXp.g f ~ x ] ~ P P 3XgX>Xb 0 # b x z j m.VXVXVXVXVXVXVXVXVXVXVXVXVXVXVXVXVXVXVXVXVXVXVX",
"VXVXVXVXVXVXVXVXVXVXVXVXVXVXVXVXVXVXVXVXVX7 % - P ~ ~ ~ ( 1XyXbX8Xc J : p l s d ^.^.^.}.VXVXVXVXVXVXVXVXVXVXVXVXVXVXVXVXVXVXVXVX",
"VXVXVXVXVXVXVXVXVXVXVXVXVXVXVXVXVXVXVXVXVX7 & = - V V / 4XzXbXnX<X) H m > > ; s c F.H.m.}.{.VXVXVXVXVXVXVXVXVXVXVXVXVXVXVXVXVXVX",
"VXVXVXVXVXVXVXVXVXVXVXVXVXVXVXVXVXVXVXv.r.: - = = V ~ :X4X6XyX9X` H G S B B N ; s s s k Z.Z.m.VXVXVXVXVXVXVXVXVXVXVXVXVXVXVXVXVX",
"VXVXVXVXVXVXVXVXVXVXVXVXVXVXVXVXVXVXVXp.@ = n N V ~ / ,X<X1X` G F F F F F A B n n n n = = y V.U.U.I.m.'.VXVXVXVXVXVXVXVXVXVXVXVX",
"VXVXVXVXVXVXVXVXVXVXVXVXVXVXVXVXVXVXVXp.@ & = N f x ] ,X1X' G F A A A A A A S S S S Z = % * : q q q Z.{.VXVXVXVXVXVXVXVXVXVXVXVX",
"VXVXVXVXVXVXVXVXVXVXVXVXVXVXVXVXVXVXVXp.+ % & * p a a b v V m M M M M M M M m m m m n & X $ % & & & r n.VXVXVXVXVXVXVXVXVXVXVXVX",
"VXVXVXVXVXVXVXVXVXVXVXVXVXVXVXVXVXVXVXp.+           . . . X X X X X X X X o X X X X X               7 VXVXVXVXVXVXVXVXVXVXVXVXVX"
};
