/* XPM */
static char *result[] = {
/* columns rows colors chars-per-pixel */
"64 64 188 2 ",
"   c black",
".  c #2B1111",
"X  c #2C2C2C",
"o  c #4D2222",
"O  c #592A2A",
"+  c #593A3A",
"@  c #743B33",
"#  c #7F502A",
"$  c #002C47",
"%  c #23237A",
"&  c #111158",
"*  c #4E2360",
"=  c #004E78",
"-  c #4E4E4E",
";  c gray28",
":  c #595050",
">  c #4E567D",
",  c #786C7D",
"<  c #7C7B7B",
"1  c #686868",
"2  c #685050",
"3  c #8F5A31",
"4  c #954A4A",
"5  c #834E5F",
"6  c #834040",
"7  c #A3564D",
"8  c #B4684D",
"9  c #83406D",
"0  c #954A72",
"q  c #944E7E",
"w  c #9B5672",
"e  c #916D6B",
"r  c #B1666C",
"t  c #B76D6C",
"y  c #AA6672",
"u  c #B47662",
"i  c #896850",
"p  c #C47255",
"a  c #CC7C5D",
"s  c #C47D6B",
"d  c #98817C",
"f  c #D98759",
"g  c #CF8852",
"h  c #E2954B",
"j  c #ED9A55",
"k  c #EA995D",
"l  c #F29E55",
"z  c #FFAA55",
"x  c #FBA655",
"c  c #DA8D6C",
"v  c #DC926B",
"b  c #C7897E",
"n  c #D18976",
"m  c #E19572",
"M  c #E8986C",
"N  c #F2A56A",
"B  c #2C1196",
"V  c #2A2A89",
"C  c #0000AA",
"Z  c #1111B1",
"A  c #2C11A6",
"S  c #002CB1",
"D  c #2828AB",
"F  c #2323BE",
"G  c #3931B6",
"H  c #4E239D",
"J  c #592A9A",
"K  c #683A9A",
"L  c #5436B6",
"P  c #4A2BA6",
"I  c #6038B0",
"U  c #005989",
"Y  c #00599A",
"T  c #004EBE",
"R  c #0059B7",
"E  c #2C59BE",
"W  c #0074B1",
"Q  c #2360B1",
"!  c #7F458D",
"~  c #784E9E",
"^  c #7B539A",
"/  c #4E6C8C",
"(  c #74609E",
")  c #4E4EAA",
"_  c #4E59B1",
"`  c #7F77B1",
"'  c #7A50A6",
"]  c #2A2AC4",
"[  c #3838D5",
"{  c #0059C4",
"}  c #2356CF",
"|  c #3445D5",
" . c #0074D5",
".. c #2360D5",
"X. c #4343CB",
"o. c #4040DF",
"O. c #4742D7",
"+. c #694CD6",
"@. c #4B4BEC",
"#. c #444CE3",
"$. c #4D4DF2",
"%. c #5555FE",
"&. c #4268F2",
"*. c #4A72FF",
"=. c #406DE9",
"-. c #7272ED",
";. c #6B6BFF",
":. c #6666E4",
">. c #834083",
",. c #84438D",
"<. c #89599A",
"1. c #8C5692",
"2. c #904E97",
"3. c #9B6788",
"4. c #AA6E8D",
"5. c #B46C8C",
"6. c #B37C8C",
"7. c #AC7C90",
"8. c #9A75B0",
"9. c #997EDC",
"0. c #8A71DA",
"q. c #9968CC",
"w. c #788CA5",
"e. c #0083DF",
"r. c #0083C6",
"t. c #2C86C8",
"y. c #0095ED",
"u. c #0098E7",
"i. c #1190EA",
"p. c #279BFD",
"a. c #348BFB",
"s. c #2CA6F9",
"d. c #4990D2",
"f. c #7F92CC",
"g. c #688DD4",
"h. c #4E9EEB",
"j. c #4D91F3",
"k. c #7FB1E4",
"l. c #68B1F2",
"z. c #7FBEFB",
"x. c #59A6EB",
"c. c #858585",
"v. c #898989",
"b. c #92888F",
"n. c #BA9999",
"m. c #A99092",
"M. c #8686B8",
"N. c #8F90AF",
"B. c #ACACAC",
"V. c #B3B1BD",
"C. c #B490B3",
"Z. c #C78F8F",
"A. c #E69A8C",
"S. c #E9B397",
"D. c #ECB189",
"F. c #CCB6B4",
"G. c #CF92B3",
"H. c #9A9AC4",
"J. c #9A92CC",
"K. c #8B8BCF",
"L. c #83AAD5",
"P. c #95AAC4",
"I. c #B1BECF",
"U. c #B4B0CC",
"Y. c #ACBED5",
"T. c #BABAD5",
"R. c #8C8CFF",
"E. c #988FEA",
"W. c #B0B0F9",
"Q. c #C4C4C4",
"!. c #C6CACF",
"~. c #D8CCCC",
"^. c #D4D4D4",
"/. c #DCDADD",
"(. c #EAD3C9",
"). c #ECDCD6",
"_. c #E0CEC5",
"`. c #DCDFE4",
"'. c #CDCCFD",
"]. c #D1DFF2",
"[. c #E1E1E1",
"{. c #EDEDED",
"}. c #EAE4E6",
"|. c #E8E8FA",
" X c #F2F2F2",
".X c #FEFEFE",
"XX c #F2EAEA",
"oX c None",
/* pixels */
"oXoXoXoXoXoXoXoXoXoXoXoXoXoXoXoXoXoX{ C C { oXoXoXoX{ C C C C C C C C { oXoXoXoX{ C C { oXoXoXoXoXoXoXoXoXoXoXoXoXoXoXoXoXoXoXoX",
"oXoXoXoXoXoXoXoXoXoXoXoXoXoXoXoXoXoX{ C C { oXoXoXoX} ] ] ] ] ] ] ] ] } oXoXoXoXT C C { oXoXoXoXoXoXoXoXoXoXoXoXoXoXoXoXoXoXoXoX",
"oXoXoXoXoXoXoXoXoXoXoXoXoXoXoXoXoXoX{ C C S T { { } #.@.@.@.@.@.$.$.@.#.} { { T S C C { oXoXoXoXoXoXoXoXoXoXoXoXoXoXoXoXoXoXoXoX",
"oXoXoXoXoXoXoXoXoXoXoXoXoXoXoXoXoXoX{ A H H A Z ] [ $.%.%.%.%.%.%.%.%.$.[ F Z A H H A { oXoXoXoXoXoXoXoXoXoXoXoXoXoXoXoXoXoXoXoX",
"oXoXoXoXoXoXoXoXoXoXoXoXoXoXoXoXoXoX{ H >.>.H F [ $.%.%.%.%.%.%.%.%.%.%.$.#.F H >.>.H { oXoXoXoXoXoXoXoXoXoXoXoXoXoXoXoXoXoXoXoX",
"oXoXoXoXoXoXoXoXoXoXoXoXoXoXoXoXoXoX{ K y r ,.L #.$.%.%.%.%.%.%.%.%.%.%.$.O.L ,.r y K { oXoXoXoXoXoXoXoXoXoXoXoXoXoXoXoXoXoXoXoX",
"oXoXoXoXoXoXoXoXoXoXoXoXoXoXoXoXoXoX{ 2.s c p ,.L [ $.%.%.%.%.%.%.%.%.$.[ L ,.r f n <.{ oXoXoXoXoXoXoXoXoXoXoXoXoXoXoXoXoXoXoXoX",
"oXoXoXoXoXoXoXoXoXoXoXoXoXoXoXoXoXoX{ 2.m l p 0 I [ $.%.%.%.%.%.%.%.%.$.[ I q p k m <.{ oXoXoXoXoXoXoXoXoXoXoXoXoXoXoXoXoXoXoXoX",
"oXoXoXoXoXoXoXoXoXoXoXoXoXoXoXoXoXoX{ <.m k p 2.+.$.%.%.%.%.%.%.%.%.%.%.$.+.2.p l m <.{ oXoXoXoXoXoXoXoXoXoXoXoXoXoXoXoXoXoXoXoX",
"oXoXoXoXoXoXoXoXoXoXoXoXoXoXoXoXoXoX{ <.m M 5.q.E.R.;.%.%.%.%.%.%.%.%.;.R.E.8.5.M M <.{ oXoXoXoXoXoXoXoXoXoXoXoXoXoXoXoXoXoXoXoX",
"oXoXoXoXoXoXoXoXoXoXoXoXoXoXoXoXoXoX{ <.m A.q.E.'.'.R.%.%.%.%.%.%.%.%.R.'.'.E.q.A.m <.{ oXoXoXoXoXoXoXoXoXoXoXoXoXoXoXoXoXoXoXoX",
"oXoXoXoXoXoXoXoXoXoXoXoXoXoXoXoXoXoX{ ' Z.G.E.W.|.|.'.R.;.%.%.%.%.;.R.W.|.|.W.9.G.Z.' { oXoXoXoXoXoXoXoXoXoXoXoXoXoXoXoXoXoXoXoX",
"oXoXoXoXoXoXoXoXoXoXoXoXoXoXoXoXoXoX{ L 0.9.J.T.|..X|.'.R.%.%.%.%.R.'.|..X|.T.J.9.0.L { oXoXoXoXoXoXoXoXoXoXoXoXoXoXoXoXoXoXoXoX",
"oXoXoXoXoXoXoXoXoXoXoXoXoXoXoXoXoXoX} [ @.-.H.Q.{..X.X|.E.$.&.%.@.E.|..X.X{.Q.H.;.$.[ } oXoXoXoXoXoXoXoXoXoXoXoXoXoXoXoXoXoXoXoX",
"oXoXoXoXoXoXoXoXoXoXoXoXoXoXoXoX .} #.@.%.-.H.Q.{..X.X`.N.P @.$.P N.{..X.X{.Q.H.-.%.@.#.}  .oXoXoXoXoXoXoXoXoXoXoXoXoXoXoXoXoXoX",
"oXoXoXoXoXoXoXoXoXoXoXoXoXoXoXoX{ ] @.%.%.-.H.Q.{..X.X[.v.V #.#.V v.`..X.X{.Q.H.-.%.%.@.] { oXoXoXoXoXoXoXoXoXoXoXoXoXoXoXoXoXoX",
"oXoXoXoXoXoXoXoXoXoXoXoXoXoXoXoX{ ] @.%.%.-.H.Q.{..X.X[.v.V O.O.V v.[..X.X{.Q.H.-.%.%.@.] { oXoXoXoXoXoXoXoXoXoXoXoXoXoXoXoXoXoX",
"oXoXoXoXoXoXoXoXoXoXoXoXoXoXoXoX{ F o.$.%.-.H.Q.{..X.X[.v.% X.X.% v.[..X.X{.Q.H.-.%.$.o.F { oXoXoXoXoXoXoXoXoXoXoXoXoXoXoXoXoXoX",
"oXoXoXoXoXoXoXoXoXoXoXoXoXoXoXoX{ Z F [ $.-.H.Q.XX.X.X[.v.& % % & d /..X.X{.Q.H.-.$.[ F Z { oXoXoXoXoXoXoXoXoXoXoXoXoXoXoXoXoXoX",
"oXoXoXoXoXoXoXoXoXoXoXoXoXoXoXoX{ C C F [ :.K.U.^.{..X/.v.        w.`. X{.^.U.K.:.o.F C C { oXoXoXoXoXoXoXoXoXoXoXoXoXoXoXoXoXoX",
"oXoXoXoXoXoXoXoXoXoXoXoXoXoXoXoX{ C C Z ] O.:.0.C.F.XX).v.        c./.}.F.C.0.:.X.] Z C C { oXoXoXoXoXoXoXoXoXoXoXoXoXoXoXoXoXoX",
"oXoXoXoXoXoXoXoXoXoXoXoXoXoXoXoX .T S C C G +.q.4.A.(._.d o . . o d _.(.A.5.q.+.G C C S T  .oXoXoXoXoXoXoXoXoXoXoXoXoXoXoXoXoXoX",
"oXoXoXoXoXoXoXoXoXoXoXoXoXoXoXoXoXoXT C C P ~ 5.c N D.D.u 6 O o 6 u D.D.N c 5.2.P C C T oXoXoXoXoXoXoXoXoXoXoXoXoXoXoXoXoXoXoXoX",
"oXoXoXoXoXoXoXoXoXoXoXoXoXoXoXoXoXoX{ C C J 0 p j z z l g 8 3 3 8 g x z x k p 0 J C C { oXoXoXoXoXoXoXoXoXoXoXoXoXoXoXoXoXoXoXoX",
"oXoXoXoXoXoXoXoXoXoXoXoXoXoXoXoXoXoX{ C C J 0 p j x x x l h h h h l x z z j p 0 J C C { oXoXoXoXoXoXoXoXoXoXoXoXoXoXoXoXoXoXoXoX",
"oXoXoXoXoXoXoXoXoXoXoXoXoXoXoXoXoXoX{ C C H >.r f x x z z z x z z z z x l f r >.H C C { oXoXoXoXoXoXoXoXoXoXoXoXoXoXoXoXoXoXoXoX",
"oXoXoXoXoXoXoXoXoXoXoXoXoXoXoXoXoXoX{ C C A H ,.r f x x z z z z z z z j f r ,.H A C C { oXoXoXoXoXoXoXoXoXoXoXoXoXoXoXoXoXoXoXoX",
"oXoXoXoXoXoXoXoXoXoXoXoXoXoXoXoXoXoXT C C C C H >.y n m k j j j j j M n y >.H C C C C { oXoXoXoXoXoXoXoXoXoXoXoXoXoXoXoXoXoXoXoX",
"oXoXoXoXoXoXoXoXoXoXoXoXoXoXoXoX .T S C C C C A H K ^ 3.t p p p p t 3.^ K H A C C C C S T  .oXoXoXoXoXoXoXoXoXoXoXoXoXoXoXoXoXoX",
"oXoXoXoXoXoXoXoXoXoXoXoXoXoXoXoX .{ { { { { { { S C C H 9 4 4 4 4 9 H C C S T { { { { { {  .oXoXoXoXoXoXoXoXoXoXoXoXoXoXoXoXoXoX",
"oXoXoXoXoXoXoXoXoXoXoXoXoXoXoXoXoXy.y.y.y.y.y.e.T C C B * o O o O * B C C T e.y.y.y.y.y.y.oXoXoXoXoXoXoXoXoXoXoXoXoXoXoXoXoXoXoX",
"oXoXoXoXoXoXoXoXoXoXoXoXoXoXoXoXoXoXoXoXoXoXh.g.` ~ P B * @ 3 # @ * B P ~ ` g.h.oXoXoXoXoXoXoXoXoXoXoXoXoXoXoXoXoXoXoXoXoXoXoXoX",
"oXoXoXoXoXoXoXoXoXoXoXoXoXoXoXoXoXoXoXoXoXh.M.7.n Z.~ H 9 8 g g 7 9 H ^ b n 7.8.h.oXoXoXoXoXoXoXoXoXoXoXoXoXoXoXoXoXoXoXoXoXoXoX",
"oXoXoXoXoXoXoXoXoXoXoXoXoXoXoXoXoXoXoXs.h.f.6.a c b 1.! r g l j g r ,.1.b c s m.K.h.s.oXoXoXoXoXoXoXoXoXoXoXoXoXoXoXoXoXoXoXoXoX",
"oXoXoXoXoXoXoXoXoXoXoXoXoXoXoXoXoXoXoXh.M.6.v c 4.1.0 r f l z z l f r q ,.4.c c 7.M.h.oXoXoXoXoXoXoXoXoXoXoXoXoXoXoXoXoXoXoXoXoX",
"oXoXoXoXoXoXoXoXoXoXoXoXoXoXoXoXoXoXh.f.6.a c b ~ J 0 p j z z z z j p 0 J ~ Z.c a 7.f.h.oXoXoXoXoXoXoXoXoXoXoXoXoXoXoXoXoXoXoXoX",
"oXoXoXoXoXoXoXoXoXoXoXoXoXoXoXoXoXh.M.6.v c 4.^ H J 0 p j z z z x j p 0 J P ^ 4.v v m.w.h.oXoXoXoXoXoXoXoXoXoXoXoXoXoXoXoXoXoXoX",
"oXoXoXoXoXoXoXoXoXoXoXoXoXoXoXoXoXx.N.b S.S.8.) D J 0 p j z z z z j p 0 J D ) b.S.D.b 8.x.oXoXoXoXoXoXoXoXoXoXoXoXoXoXoXoXoXoXoX",
"oXoXoXoXoXoXoXoXoXoXoXoXoXoXoXoXoXx.N.F.).).B.M.) J 0 p j z z z z j p 0 J ) 8.U.).).F.H.x.oXoXoXoXoXoXoXoXoXoXoXoXoXoXoXoXoXoXoX",
"oXoXoXoXoXoXoXoXoXoXoXoXoXoXoXoXoXk.I.^. X X^.U.w.^ w p j z z z z j p 0 ( w.V.^. X X^.Y.L.oXoXoXoXoXoXoXoXoXoXoXoXoXoXoXoXoXoXoX",
"oXoXoXoXoXoXoXoXoXoXoXoXoXoXoXoXL.I.`. X.X.X X/.V.b.y p j z z z z l p y b.V.). X.X.X X`.I.L.oXoXoXoXoXoXoXoXoXoXoXoXoXoXoXoXoXoX",
"oXoXoXoXoXoXoXoXoXoXoXoXoXoXoXoXP.Q.{..X.X.X.X{.Q.B.3.t f j j j j f r 3.B.Q.{..X.X.X.X{.Q.P.oXoXoXoXoXoXoXoXoXoXoXoXoXoXoXoXoXoX",
"oXoXoXoXoXoXoXoXoXoXoXoXoXoXoXoXP.Q.{..X.X.X.X{.Q.N.( ! r p p p p r ! ( N.Q.{..X.X.X.X{.!.P.oXoXoXoXoXoXoXoXoXoXoXoXoXoXoXoXoXoX",
"oXoXoXoXoXoXoXoXoXoXoXoXoXoXoXoXL.I.`. X.X.X X`.Y.N._ H >.0 0 0 0 >.H _ M.I.`. X.X.X X`.Y.L.oXoXoXoXoXoXoXoXoXoXoXoXoXoXoXoXoXoX",
"oXoXoXoXoXoXoXoXoXoXoXoXoXoXoXoXoXL.I.^. X X^.I.k.h.E A H J J J J P A E d.k.Y./.{. X^.I.L.oXoXoXoXoXoXoXoXoXoXoXoXoXoXoXoXoXoXoX",
"oXoXoXoXoXoXoXoXoXoXoXoXoXoXoXoXoXoXL.Y.].].Y.L.oXi...F Z S T T S Z ] ..i.oXL.Y.].].Y.L.oXoXoXoXoXoXoXoXoXoXoXoXoXoXoXoXoXoXoXoX",
"oXoXoXoXoXoXoXoXoXoXoXoXoXoXoXoXoXoXoXl.z.z.l.oXoXoX&.o.F T e.e.T F o.=.oXoXoXl.z.z.l.oXoXoXoXoXoXoXoXoXoXoXoXoXoXoXoXoXoXoXoXoX",
"oXoXoXoXoXoXoXoXoXoXoXoXoXoXoXoXoXoXoXoXoXoXoXoXoXa.&.#.}  .oXoX .} #.&.a.oXoXoXoXoXoXoXoXoXoXoXoXoXoXoXoXoXoXoXoXoXoXoXoXoXoXoX",
"oXoXoXoXoXoXoXoXoXoXoXoXoXoXoXoXoXoXoXoXoXoXoXp.a.&.| } i.oXoXoXoXi.} | &.j.p.oXoXoXoXoXoXoXoXoXoXoXoXoXoXoXoXoXoXoXoXoXoXoXoXoX",
"oXoXoXoXoXoXoXoXoXoXoXoXoXoXoXoXoXoXoXoXoXoXoXp.*.@.] { y.oXoXoXoXy.{ ] @.*.p.oXoXoXoXoXoXoXoXoXoXoXoXoXoXoXoXoXoXoXoXoXoXoXoXoX",
"oXoXoXoXoXoXoXoXoXoXoXoXoXoXoXoXoXoXoXoXoXoXoXp.*.@.] { y.oXoXoXoXy.{ ] @.*.p.oXoXoXoXoXoXoXoXoXoXoXoXoXoXoXoXoXoXoXoXoXoXoXoXoX",
"oXoXoXoXoXoXoXoXoXoXoXoXoXoXoXoXoXoXoXoXoXoXoXs.=.O.D R u.oXoXoXoXy.R D [ =.p.oXoXoXoXoXoXoXoXoXoXoXoXoXoXoXoXoXoXoXoXoXoXoXoXoX",
"oXoXoXoXoXoXoXoXoXoXoXoXoXoXoXoXoXoXoXoXoXoXoXi.Q % & Y u.oXoXoXoXu.Y & % Q i.oXoXoXoXoXoXoXoXoXoXoXoXoXoXoXoXoXoXoXoXoXoXoXoXoX",
"oXoXoXoXoXoXoXoXoXoXoXoXoXoXoXoXoXoXoXoXoXoXoXd.w.( 1 > t.u.oXoXu.t./ 1 < w.d.oXoXoXoXoXoXoXoXoXoXoXoXoXoXoXoXoXoXoXoXoXoXoXoXoX",
"oXoXoXoXoXoXoXoXoXoXoXoXoXoXoXoXoXoXoXoXoXoXW w.Q.^.B.w.w.W oXoXW / v.V.^.!.w.W oXoXoXoXoXoXoXoXoXoXoXoXoXoXoXoXoXoXoXoXoXoXoXoX",
"oXoXoXoXoXoXoXoXoXoXoXoXoXoXoXoXoXoXoXoXoXr.= < Q.^.B.d ; U oXoXU ; w.B.^.Q.< = r.oXoXoXoXoXoXoXoXoXoXoXoXoXoXoXoXoXoXoXoXoXoXoX",
"oXoXoXoXoXoXoXoXoXoXoXoXoXoXoXoXoXoXoXoXW = $ ; < < 1 - X U oXoXU X - 1 w.< ; $ = W oXoXoXoXoXoXoXoXoXoXoXoXoXoXoXoXoXoXoXoXoXoX",
"oXoXoXoXoXoXoXoXoXoXoXoXoXoXoXoXoXoXoXd., 3 3 2 e v.v.< 2 > t.t.> 2 e v.d < i 3 3 , d.oXoXoXoXoXoXoXoXoXoXoXoXoXoXoXoXoXoXoXoXoX",
"oXoXoXoXoXoXoXoXoXoXoXoXoXoXoXoXoXoXW ( g h h D.^.[.[.~.m.5 > > 5 m.~.}.[._.m h h g , W oXoXoXoXoXoXoXoXoXoXoXoXoXoXoXoXoXoXoXoX",
"oXoXoXoXoXoXoXoXoXoXoXoXoXoXoXoXoXt.> 3 g j j D.(.XXXX~.n.7 + + i Z.~.}.{.(.D.j j f 3 / t.oXoXoXoXoXoXoXoXoXoXoXoXoXoXoXoXoXoXoX",
"oXoXoXoXoXoXoXoXoXoXoXoXoXoXoXoXW > 9 7 8 p p n Z.Z.n.n.n.v.: : d n.n.n.n.Z.n 8 p 8 7 5 > W oXoXoXoXoXoXoXoXoXoXoXoXoXoXoXoXoXoX",
"oXoXoXoXoXoXoXoXoXoXoXoXoXoXoXoXU o 3 4 4 4 4 4 4 4 4 e b.c.- - c.b.e 4 4 4 4 4 4 4 4 6 o U oXoXoXoXoXoXoXoXoXoXoXoXoXoXoXoXoXoX",
"oXoXoXoXoXoXoXoXoXoXoXoXoXoXoXoXU . o O O O O O O O O + : - X X : : + O O O O O O O O o . U oXoXoXoXoXoXoXoXoXoXoXoXoXoXoXoXoXoX",
"oXoXoXoXoXoXoXoXoXoXoXoXoXoXoXoXU                                                         U oXoXoXoXoXoXoXoXoXoXoXoXoXoXoXoXoXoX"
};
