/* XPM */
static char *result[] = {
/* columns rows colors chars-per-pixel */
"64 64 219 2 ",
"   c #000000",
".  c #0C0000",
"X  c #0C010B",
"o  c #1B0000",
"O  c #040317",
"+  c #181818",
"@  c #250000",
"#  c #2B0000",
"$  c #350000",
"%  c #3C0000",
"&  c #330E0E",
"*  c #370C15",
"=  c #0A0A32",
"-  c #35062B",
";  c #262626",
":  c #262629",
">  c #382929",
",  c #353535",
"<  c #3D3D3D",
"1  c #21233E",
"2  c #440000",
"3  c #4B0000",
"4  c #540000",
"5  c #5C0000",
"6  c #571B1B",
"7  c #630000",
"8  c #6C0000",
"9  c #730000",
"0  c #7B0000",
"q  c #770B0B",
"w  c #731C1C",
"e  c #443B3B",
"r  c #593939",
"t  c #512826",
"y  c #6E2D29",
"u  c #772718",
"i  c #6B473B",
"p  c #5F463A",
"a  c #19194B",
"s  c #151559",
"d  c #0E0E48",
"f  c #2B145B",
"g  c #2C2C54",
"h  c #19196A",
"j  c #1D1D77",
"k  c #281B6F",
"l  c #1B2778",
"z  c #08316E",
"x  c #27247C",
"c  c #36287E",
"v  c #3A3A6D",
"b  c #593874",
"n  c #47307A",
"m  c #613E73",
"M  c #783A47",
"N  c #424242",
"B  c #4A4A4A",
"V  c #4D4141",
"C  c #535353",
"Z  c #5B5B5B",
"A  c #5D4545",
"S  c #6F5351",
"D  c #53516C",
"F  c #784967",
"G  c #7D527B",
"H  c #704771",
"J  c #646363",
"K  c #6C6C6C",
"L  c #6A6363",
"P  c #757474",
"I  c #7C7C7C",
"U  c #676979",
"Y  c #800000",
"T  c #8D0000",
"R  c #980000",
"E  c #A90000",
"W  c #B10000",
"Q  c #BA0000",
"!  c #8B3A25",
"~  c #963029",
"^  c #C60000",
"/  c #DD0000",
"(  c #D40000",
")  c #E00000",
"_  c #DB3131",
"`  c #9E5D3E",
"'  c #98573B",
"]  c #914731",
"[  c #985B4B",
"{  c #834D5E",
"}  c #945A57",
"|  c #88535C",
" . c #AD564A",
".. c #906956",
"X. c #A16141",
"o. c #A76848",
"O. c #AA6B4C",
"+. c #AC6D55",
"@. c #B67759",
"#. c #BA7B5D",
"$. c #B27456",
"%. c #AB725B",
"&. c #865A77",
"*. c #8F5962",
"=. c #996567",
"-. c #92677C",
";. c #B87B64",
":. c #AC787D",
">. c #E05050",
",. c #E07777",
"<. c #CB6161",
"1. c #B88470",
"2. c #C58667",
"3. c #CB8E72",
"4. c #D19273",
"5. c #DB9B7B",
"6. c #D3967B",
"7. c #CE9178",
"8. c #1F2784",
"9. c #212180",
"0. c #292986",
"q. c #2D2D8B",
"w. c #292480",
"e. c #332B84",
"r. c #31318E",
"t. c #383885",
"y. c #343493",
"u. c #393996",
"i. c #3D3D9D",
"p. c #4A3883",
"a. c #4B3C8F",
"s. c #1254AB",
"d. c #0063BA",
"f. c #2A53A3",
"g. c #474889",
"h. c #5E4580",
"j. c #58428D",
"k. c #46429D",
"l. c #525298",
"z. c #564794",
"x. c #675397",
"c. c #694B88",
"v. c #777C8A",
"b. c #686297",
"n. c #4141A1",
"m. c #4B4BAA",
"M. c #4949A7",
"N. c #5252AC",
"B. c #5C5BA6",
"V. c #5454B3",
"C. c #5D5DBC",
"Z. c #5959B6",
"A. c #6C5DA3",
"S. c #466BB6",
"D. c #6762B8",
"F. c #706CAB",
"G. c #3D6CC2",
"H. c #006BC8",
"J. c #6161C1",
"K. c #6C6CCB",
"L. c #6868C7",
"P. c #7676CB",
"I. c #7575D5",
"U. c #7C7CDB",
"Y. c #7878D6",
"T. c #896385",
"R. c #956B85",
"E. c #916D93",
"W. c #A67785",
"Q. c #8D70A4",
"!. c #818181",
"~. c #8D8D8D",
"^. c #929292",
"/. c #9B9B9B",
"(. c #8C839B",
"). c #BA8582",
"_. c #AF9492",
"`. c #9291B6",
"'. c #8E8EA8",
"]. c #A889A8",
"[. c #A2A2A2",
"{. c #ABAAAA",
"}. c #B3B3B3",
"|. c #B9B8B8",
" X c #B4ABA8",
".X c #C18A81",
"XX c #C58484",
"oX c #D49883",
"OX c #D19393",
"+X c #E08989",
"@X c #E09898",
"#X c #E0A081",
"$X c #E0AE97",
"%X c #E0B39F",
"&X c #CCB0AB",
"*X c #E0BCBC",
"=X c #E0BDAF",
"-X c #DCA48A",
";X c #D6C2BB",
":X c #9494CA",
">X c #9C9CD8",
",X c #8B8BCC",
"<X c #AEAED1",
"1X c #8080E0",
"2X c #A3A3E0",
"3X c #C2C2C2",
"4X c #CBCBCB",
"5X c #CCC1C7",
"6X c #D4D4D4",
"7X c #D4D4DD",
"8X c #DBDBDB",
"9X c #CBC9D5",
"0X c #E0CBC4",
"qX c #E0D2CD",
"wX c #E0D9D9",
"eX c #CACAE0",
"rX c #D8D8E0",
"tX c gray88",
"yX c None",
/* pixels */
"yXyXyXyXyXyXyXyXyXyXyXyXyXyXyXyXyXyXyXyXyXyXyXyXyXn.n.n.n.n.n.n.n.yXyXyXyXyXyXyXyXyXyXyXyXyXyXyXyXyXyXyXyXyXyXyXyXyXyXyXyXyXyXyX",
"yXyXyXyXyXyXyXyXyXyXyXyXyXyXyXyXyXyXyXyXyXyXyXyXyXn.n.n.n.n.M.m.m.m.yXyXyXyXyXyXyXyXyXyXyXyXyXyXyXyXyXyXyXyXyXyXyXyXyXyXyXyXyXyX",
"yXyXyXyXyXyXyXyXyXyXyXyXyXyXyXyXyXyXn.n.n.n.n.n.n.n.n.n.n.n.V.J.J.V.n.n.n.n.n.yXyXyXyXyXyXyXyXyXyXyXyXyXyXyXyXyXyXyXyXyXyXyXyXyX",
"yXyXyXyXyXyXyXyXyXyXyXyXyXyXyXyXyX9.q.r.y.y.q.u.i.n.n.n.n.a.M.n.M.m.V.V.V.V.m.M.n.n.yXyXyXyXyXyXyXyXyXyXyXyXyXyXyXyXyXyXyXyXyXyX",
"yXyXyXyXyXyXyXyXyXyXyXyXyXyXyXyX9.9.9.9.9.9.9.y.u.n.i.n.n.n.r.e.p.z.Z.J.J.J.Z.M.n.M.yXyXyXyXyXyXyX9.9.yXyXyXyXyXyXyXyXyXyXyXyXyX",
"yXyXyXyXyXyXyXyXyXyXyXyXyXyXyX9.9.9.9.9.9.9.9.0.q.q.y.i.n.i.r.h.W.W.k.B.J.J.C.Z.V.Z.m.n.n.yXyXyX9.9.9.yXyXyXyXyXyXyXyXyXyXyXyXyX",
"yXyXyXyXyXyXyXyXyXyXyXyXyXyXyX9.9.9.9.9.9.9.9.9.9.9.0.u.u.i.p.&.6..Xc.A.Z.C.J.L.L.J.V.M.m.M.yXq.9.9.9.yXyXyXyXyXyXyXyXyXyXyXyXyX",
"yXyXyXyXyXyXyXyXyXyXyXyXyXyXyXyXyXyXyXyXyXyXyX9.9.9.9.0.0.0.F +.5.oXoXR.u.V.L.Y.K.J.J.C.C.V.n.r.9.9.9.yXyXyXyXyXyXyXyXyXyXyXyXyX",
"yXyXyXyXyXyXyXyXyXyXyXyXyXyXyXyXyXyXyXyXyXyXyXyX9.9.0.q.0.w.{ +.4.5.#X.XR.A.J.U.Y.K.I.K.L.C.m.n.q.0.9.yXyXyXyXyXyXyXyXyXyXyXyXyX",
"yXyXyXyXyXyXyXyXyXyXyXyXyXyXyXyXyXyXyXyXyXyXyXyXyX9.q.i.y.e.{ +.5.5.#X#X+XE.Z.Y.1X1X1XU.K.J.J.V.i.q.9.yXyXyXyXyXyXyXyXyXyXyXyXyX",
"yXyXyXyXyXyXyXyXyXyXyXyXyXyXyXyXyXyXyXyXyXyXyXyXi.u.u.n.y.e.{ +.#.XX].Q.Q.,XP.U.1X1X1XU.I.K.J.C.V.k.u.yXyXyXyXyXyXyXyXyXyXyXyXyX",
"yXyXyXyXyXyXyXyXyXyXyXyXyXyXyXyXyXyXyXyXyXyXyXn.n.i.n.a.y.e.{ } =.T.D.K.L.I.U.U.U.U.U.U.1XI.J.J.C.m.n.yXyXyXyXyXyXyXyXyXyXyXyXyX",
"yXyXyXyXyXyXyXyXyXyXyXyXyXyXyXyXyXyXyXyXn.n.n.n.i.r.y.i.i.u.a.x.A.A.J.K.Y.K.L.L.K.K.K.K.U.Y.J.J.J.m.n.yXyXyXyXyXyXyXyXyXyXyXyXyX",
"yXyXyXyXyXyXyXyXyXyXyXyXyXyXyXyXyXyXyXyXn.n.n.i.y.0.q.i.n.n.m.V.C.J.J.K.I.K.P.,X:X:XY.K.I.I.K.L.C.V.m.yXyXyXyXyXyXyXyXyXyXyXyXyX",
"yXyXyXyXyXyXyXyXyXyXyXyXyXyXyXyXyXyXn.n.n.i.n.r.9.9.q.i.n.n.V.C.J.J.J.J.L.J.,X9XrX7X2XU.K.K.U.K.J.J.Z.M.n.yXyXyXyXyXyXyXyXyXyXyX",
"yXyXyXyXyXyXyXyXyXyXyXyXyXyXyXyXyXn.i.n.n.n.n.y.9.9.q.i.n.M.V.C.J.J.J.C.J.K.>X7XtXtXeX<X,XK.I.K.J.J.J.J.J.yXyXyXyXyXyXyXyXyXyXyX",
"yXyXyXyXyXyXyXyXyXyXyXyXyXyXyXyXn.n.n.i.n.n.n.q.9.9.q.i.i.n.V.C.J.J.J.J.L.I.2X7XtXtXrXrX>XI.J.D.C.C.L.Y.U.yXyXyXyXyXyXyXyXyXyXyX",
"yXyXyXyXyXyXyXyXyXyXyXyXyXyXyXn.u.q.q.q.q.u.n.r.9.9.q.i.n.n.M.V.C.C.J.C.J.I.2X7XtXtXtX6X'.l.m.Z.J.J.C.l.l.yXyXyXyXyXyXyXyXyXyXyX",
"yXyXyXyXyXyXyXyXyXyXyXyXyXyXyXu.q.9.9.9.9.q.u.r.9.9.q.i.n.n.n.M.C.C.J.J.L.I.2X7XtXtXtX4XP s r.M.C.C.N.g   yXyXyXyXyXyXyXyXyXyXyX",
"yXyXyXyXyXyXyXyXyXyXyXyXyXn.u.q.0.9.9.9.9.9.q.9.9.9.q.i.n.n.n.M.C.J.J.J.L.I.2XrXtXtXtX4XI = a t.m.Z.N.g   yXyXyXyXyXyXyXyXyXyXyX",
"yXyXyXyXyXyXyXyXyXyXyXyXyXu.y.9.9.9.9.9.9.9.9.9.9.9.0.y.i.i.n.M.V.V.V.C.J.I.>X7XtXtXtX4XP     g.Z.N.g.1   yXyXyXyXyXyXyXyXyXyXyX",
"yXyXyXyXyXyXyXyXyXyXyX9.9.9.9.9.j 9.9.9.9.9.9.9.9.9.9.9.y.n.n.n.n.n.n.V.J.J.:X7XtXtXtX4XI     B.Y.g.= O   yXyXyXyXyXyXyXyXyXyXyX",
"yXyXyXyXyXyXyXyXyXyXyXyXyXyXyXyXyXyXyXyXyXyXyX9.9.9.9.9.0.y.i.i.n.i.n.m.V.V.F.<XeXtXtX4XP     '.<X(.C ;   yXyXyXyXyXyXyXyXyXyXyX",
"yXyXyXyXyXyXyXyXyXyXyXyXyXyXyXyXyXyXyXyXyXyXyX0.9.9.9.9.9.9.y.i.n.k.M.N.B.B.B.D.>XrXtX6X!.B N {.8X[.K N : yXyXyXyXyXyXyXyXyXyXyX",
"yXyXyXyXyXyXyXyXyXyXyXyXyXyXyXyXyXyXyXyXn.n.i.i.u.0.9.9.9.9.0.y.i.c.&.[.5X<X<XD.P.<X7X8X5X|.|.}.[.P C J K yXyXyXyXyXyXyXyXyXyXyX",
"yXyXyXyXyXyXyXyXyXyXyXyXyXyXyXyXyXyXyXyXn.i.u.u.u.0.9.9.j 9.9.e.a.T.$.&XqXqX5X`.,X2XeXtXtX8X8X{.K N < K P yXyXyXyXyXyXyXyXyXyXyX",
"yXyXyXyXyXyXyXyXyXyXyXyXyXyXyXyXyXyXn.n.n.u.0.0.9.9.9.9.9.9.x n | ;.7.#X$X$X=X4X6X7XtXtXtXqX%X1., ; + , < yXyXyXyXyXyXyXyXyXyXyX",
"yXyXyXyXyXyXyXyXyXyXyXyXyXyXyXyXyXyXu.u.y.q.8.9.9.9.9.9.9.9.9.n } #.oX#X#X#X$X=X0X0X0X0X0X=X#X2...p ; ; ; yXyXyXyXyXyXyXyXyXyXyX",
"yXyXyXyXyXyXyXyXyXyXyXyXyXyXyXyXyXn.q.9.9.9.9.9.9.9.j 9.9.9.9.b [ #.5.#X#X5.#X#X#X#X#X#X#X5.5.5.4...< N N yXyXyXyXyXyXyXyXyXyXyX",
"yXyXyXyXyXyXyXyXyXyXyXyXyXyXyXi.u.q.0.9.9.9.9.9.9.9.9.9.9.9.9.c m =.1.6.#X#X#X#X5.5.#X5.3.2.2.#.+.S < N C I yXyXyXyXyXyXyXyXyXyX",
"yXyXyXyXyXyXyXyXyXyXyXyXyXyXyXn.y.x p.h.h.h.h.h.h.h.h.h.p.j 0.0.j m [ ;.5.5.5.5.5.5.5.4.O.` ` ] w p B N Z v.yXyXyXyXyXyXyXyXyXyX",
"yXyXyXyXyXyXyXyXyXyXyXyXyXyXyXn.y.p.W.1.XX)..X.X)..X.X.XR.9.r.y.0.n m *.@.@.@.#.@.@.$.$.] ! ! y r L K B D 1.yXyXyXyXyXyXyXyXyXyX",
"yXyXyXyXyXyXyXyXyXyXyXyXyXyX(.Q.T.T.1.4.4.4.4.4.4.4.4.4.R.q.a.c.m b m | ` ' [ &.-.-.T.G M w 8 t B P P J K I yXyXyXyXyXyXyXyXyXyX",
"yXyXyXI ^.[.[./.[.^.!.!.~./._.oXoX6.;.O.O.O.o.O.O.O.o.O.&.a.&.} [ [ [ [ ` ! H Z.G.G.G.S.D > & , B K I I I I yXyXyXyXyXyXyXyXyXyX",
"yXyX~.~.{.3X3X3X3X{.^.~./.}.&X3.2.2.@.X.` ` [ | { F F F &.G } o.;.2.#.2.#.` { x.l.F.b.b.D N C B < Z P I I K yXyXyXyXyXyXyXyXyXyX",
"yX!.~.[.3XtXtXtXtX4X[./.{.6X3X%.X.X.yXyXyXyXyX9.9.j 9.j F [ X.$.4.#X#X#X5.$.] ! ] X.X.[ p Z I Z + , C P K N yXyXyXyXyXyXyXyXyXyX",
"yX^.{.4X6XtXtXtXtX6X4X/.!.[.{.yXyXyXyXyXyXyX9.9.9.9.9.9.F X.;.4.5.5.#X#X5.4.#.y u ! ! ! t N Z B , Z L J Z yXyXyXyXyXyXyXyXyXyXyX",
"yX/.|.tX8X6X6X8XtX8X6X/.Z P -.yXyXyXyXyXyX9.9.9.j 0.9.9.F X.3.#X#X#X#X#X5.#X4.i 7 Y Y 0 5 t N N B K P C yXyXyXyXyXyXyXyXyXyXyXyX",
"yX~.}.8X4X}.}.3X8X4X}.^.P yXyXyXyXyXyXyX9.9.9.9.9.9.9.j F X.3.#X#X#X5.#X#X5.5.yXyXyXyXyXyXyXyXyXyXyXyXyXyXyXyXyXyXyXyXyXyXyXyXyX",
"yXI [.4X3X}./.[.3X|.^.~.!.yXyXyXyXyXyXyX9.9.9.9.9.9.9.9.m | :.XX4.4.4.5.5.4.4.yXyXyXyXyXyXyXyXyXyXyXyXyXyXyXyXyXyXyXyXyXyXyXyXyX",
"yX!.~.[.3X4X~.P /./.!.yXyXyXyXyXyXyXyXyX9.9.9.9.9.9.9.9.x e.z.x.=.o.o.2.5.;.o.yXyXyXyXyXyXyXyXyXyXyXyXyXyXyXyXyXyXyX) ) / T   yX",
"yXyX~.^.[.{.~.!.^.^.yXyXyXyXyXyXyXyXyX9.9.9.9.h s x 8.x 9.x 0.a.G &.c.R.W.T.G yXyXyXyXyXyXyXyXyXyXyXyXyXyXyXyXyXyX) ) ) / T   yX",
"yXyXyX!.J C ~.^.!.!.yXyXyXyXyX0 7 - f j j x e.g 1 l 8.x j 9.9.0.i.n.a.n.i.n.n.yXyXyXyXyXyXyXyXyXyXyXyXyXyXyXyXyX) ) ) ) / T   yX",
"yXyXyXyXyXyXyXyXyXyXyXyXyXyX9 5 3 - h x f C b.U U f.s.z h 9.9.0.q.q.q.q.q.q.y.u.n.n.yXyXyXyXyXyXyXyXyXyXyX) ) ) ) ) ) ) / T   yX",
"yXyXyXyXyXyXyXyXyXyXyXyXyX0 8 3 # O f k - C P T.v.G.d.z l 9.8.j j j j j 9.9.q.u.u.u.u.yXyXyXyXyXyXyXyXyX@X,.>.) ) ) ) ( ^ T   yX",
"yXyXyXyXyXyXyXyXyXyXyXyXyXY 9 2 # X - - 3 t r K v.S.H.d.s.9.9.j d = = s yXyXyXq.0.q.u.n.n.`.8XyXyXyXyXtXwXqX+X) ) ) ) W 8 yXyXyX",
"yXyXyXyXyXyXyXyXyXyXyXyXyX9 7 2 # o 4 5 2 $ # J v.S.s.s.s.k j s =     yXyXyXyX9.9.9.y.u.u.`.7XtXyXyX}.8XtXtX*X+X>.) ) E   yXyXyX",
"yXyXyXyXyXyXyXyXyXyXyXY 0 4 2 % # @ 7 9 4 $ . J v.g.8.8.9.j d O     yXyXyXyXyXyXyXyX9.9.9.'.8X8X8X{.[.6XtXtXwXqX,.) ) E   yXyXyX",
"yXyXyXyXyXyXyXyXyXyXyXY 0 4 $ # 3 7 0 0 8 6 : C J v j h s s d yXyXyXyXyXyXyXyXyXyXyXv v h.[.8XtX8X/.=.OX*XtXtXwX*XOX] R yXyXyXyX",
"yXyXyXyXyXyXyXyXyXyXyXY 0 4 $ . 5 Y 0 Y Y y e < g v h =     yXyXyXyXyXyXyXyXyXyXyXyXB Z I {.8XwX6X).E / +XwXwXtX8X|.C   yXyXyXyX",
"yXyXyXyXyXyXyXyXyXyXyXY 0 4 $ . 5 Y Y 0 Y y < , : yXyXyXyXyXyXyXyXyXyXyXyXyXyXyXyXyXP I ~.}.7X4X}.;.( / >.+X0X8X3X/.g   yXyXyXyX",
"yXyXyXyXyXyXyXyXyXyXyX9 8 4 $ . 5 Y Y 0 9 y < ;   yXyXyXyXyXyXyXyXyXyXyXyXyXyXyXyXyXyX!.~.[.5X&X).>./ / ) / @X4X[.I e yXyXyXyXyX",
"yXyXyXyXyXyXyXyXyXyX0 7 3 2 $ . 5 Y Y q 3 & yXyXyXyXyXyXyXyXyXyXyXyXyXyXyXyXyXyXyXyXyXyXZ S }  .>._ ) ) ) ) XX[.K N yXyXyXyXyXyX",
"yXyXyXyXyXyXyXyXyXyXY 7 % $ & : A S y 5 $ yXyXyXyXyXyXyXyXyXyXyXyXyXyXyXyXyXyXyXyXyXyXyX, t q Q ) / ) ) ( ^ } P C yXyXyXyXyXyXyX",
"yXyXyXyXyXyXyXyXyXyXY 7 % o : < J I B   yXyXyXyXyXyXyXyXyXyXyXyXyXyXyXyXyXyXyXyXyXyXyXyX  3 0 Q / / ) / Q Y 5   yXyXyXyXyXyXyXyX",
"yXyXyXyXyXyXyXyXyXyX0 5 % o ; < K -.B   yXyXyXyXyXyXyXyXyXyXyXyXyXyXyXyXyXyXyXyXyXyXyXyX  3 0 R W W W W T 5 2 yXyXyXyXyXyXyXyXyX",
"yXyXyXyXyXyXyXyXyX0 0 5 % $ t e L K B   yXyXyXyXyXyXyXyXyXyXyXyXyXyXyXyXyXyXyXyXyXyXyXyX  3 8 0 Y Y Y 9 5 . yXyXyXyXyXyXyXyXyXyX",
"yXyXyXyXyXyXyXyXY 8 4 % $ 7 q w r N , yXyXyXyXyXyXyXyXyXyXyXyXyXyXyXyXyXyXyXyXyXyXyXyXyXyX$ 2 8 Y Y 9 4 % yXyXyXyXyXyXyXyXyXyXyX",
"yXyXyXyXyXyXyXyXY 8 % @ $ 9 9 8 4   yXyXyXyXyXyXyXyXyXyXyXyXyXyXyXyXyXyXyXyXyXyXyXyXyXyXyXyX  4 8 8 7 $ yXyXyXyXyXyXyXyXyXyXyXyX",
"yXyXyXyXyXyXyXyXY 8 % # $ 8 8 $ @ yXyXyXyXyXyXyXyXyXyXyXyXyXyXyXyXyXyXyXyXyXyXyXyXyXyXyXyXyXyX@ # # # yXyXyXyXyXyXyXyXyXyXyXyXyX",
"yXyXyXyXyXyXyXyX7 4 # 3 5 5 4 @ yXyXyXyXyXyXyXyXyXyXyXyXyXyXyXyXyXyXyXyXyXyXyXyXyXyXyXyXyXyXyXyX    yXyXyXyXyXyXyXyXyXyXyXyXyXyX",
"yXyXyXyXyXyXyXyX% $ @ 7 9 2   yXyXyXyXyXyXyXyXyXyXyXyXyXyXyXyXyXyXyXyXyXyXyXyXyXyXyXyXyXyXyXyXyXyXyXyXyXyXyXyXyXyXyXyXyXyXyXyXyX",
"yXyXyXyXyXyXyXyX@ 3 8 5 3 $ yXyXyXyXyXyXyXyXyXyXyXyXyXyXyXyXyXyXyXyXyXyXyXyXyXyXyXyXyXyXyXyXyXyXyXyXyXyXyXyXyXyXyXyXyXyXyXyXyXyX",
"yXyXyXyXyXyXyXyX  4 Y 4   yXyXyXyXyXyXyXyXyXyXyXyXyXyXyXyXyXyXyXyXyXyXyXyXyXyXyXyXyXyXyXyXyXyXyXyXyXyXyXyXyXyXyXyXyXyXyXyXyXyXyX"
};
