/* XPM */
static char *result[] = {
/* columns rows colors chars-per-pixel */
"64 64 14 1 ",
"  c black",
". c gray25",
"X c #800000",
"o c #E00000",
"O c #A06040",
"+ c #202080",
"@ c #4040A0",
"# c #6060C0",
"$ c #808080",
"% c #A0A0A0",
"& c #E0A080",
"* c #8080E0",
"= c gray88",
"- c None",
/* pixels */
"---------------------@@@@@@@@@----------------------------------",
"------------------@@@OOO######@@@@@-------++--------------------",
"------------------@@@OOO######@@@@@-------++--------------------",
"-----------------@+++&&&OO#########@@@---+++--------------------",
"---------------++++++&&&&&O###**#######+++++--------------------",
"---------------++++++&&&&&O###**#######+++++--------------------",
"------------------+++&&&########***######@++--------------------",
"--------$==$--$%%---+OO###====**#**#**===*++---%$$-$$=$$--------",
"--------$==$--$%%---+OO###====**#**#**===*++---%$$-$$=$$--------",
"------$$%..=.. ==---+@@@========###*======@@---=  .==.%%$-------",
"------%%.%%$==$==-@@@@@*========*@@*======@@---=$$=$$%..%-------",
"------%%.%%$==$==-@@@@@*========*@@*======@@---=$$=$$%..%-------",
"------..%$$%%%=%%@+++@@*=========**=======**@--%==%%%$%%.-------",
"-----$==$===%%===++++@@*==================**@--===%===$$=$$-----",
"-----$==$===%%===++++@@*==================**@--===%===$$=$$-----",
"------$$%=====%==++++++*===== $$====$$ ===**+--=%%====%%$-------",
"--------$..%%%.$$++++++*===== $$====$$ ===**+--$..%%%.$$--------",
"--------$..%%%.$$++++++*===== $$====$$ ===**+--$..%%%.$$--------",
"-----------.$$%OO++++++*==================**+--O%%$..-----------",
"------------%%=XX&+++++@**===============*@@+OOX==%-------------",
"------------%%=XX&+++++@**===============*@@+OOX==%-------------",
"-----------------O&&+++OOO&===&&&$$ $$=&&OOOXXX-----------------",
"-----------------+OO&++O&&&&&&&&&     &&&&OOX-------------------",
"-----------------+OO&++O&&&&&&&&&     &&&&OOX-------------------",
"---------------+++++O&&OOO&&&&&&&&&&&&&&&OXX--------------------",
"---------------++++++OO&XXOOO&&&&  &&&&OOX----------------------",
"---------------++++++OO&XXOOO&&&&  &&&&OOX----------------------",
"---------------++++++++O&&+XXO&&&  &OOXXX-----------------------",
"---------------+++-----+OO&++XXXO&&XXX+++-----------------------",
"---------------+++-----+OO&++XXXO&&XXX+++-----------------------",
"---------------++-------++OOO+XXXXXX+++-------------------------",
"-----------------------++++++@OOOOOOOO+-------------------------",
"-----------------------++++++@OOOOOOOO+-------------------------",
"---------------------++++++@@O&&&&&&&&O-------------------------",
"---------------------++++++@@O&&&&&&&&&-------------------------",
"---------------------++++++@@O&&&&&&&&&-------------------------",
"--------------------+++++++@@O&&&&&&&&&-------------------------",
"--------------------+-----+++@OO&&&&OO+-------------------------",
"--------------------+-----+++@OO&&&&OO+-------------------------",
"-----------------------+++ ++@@@OOOO+++-------------------------",
"---------------------------@@+      @@+@@-----------------------",
"---------------------------@@+      @@+@@-----------------------",
"---------------------  %$$@++ --------+@@-----------------------",
"-------------------- %%=@@+  ---------$++%----------------------",
"-------------------- %%=@@+  ---------$++%----------------------",
"------------------  X%%=++=XX-------  .++@==--------------------",
"----------------- XXo%%====  ------ XX%===%%--------------------",
"----------------- XXo%%====  ------ XX%===%%--------------------",
"----------------- XXooo%%%X  ------ XXX%%%==o-------------------",
"---------------  $%%=oooXXX  ------ XXXXXoooooo-----------------",
"---------------  $%%=oooXXX  ------ XXXXXoooooo-----------------",
"---------------  $=====$XX -------- XXXXXXoo====----------------",
"-------------- XXoooo==%$$ ---------  XXXX%%===ooo--------------",
"-------------- XXoooo==%$$ ---------  XXXX%%===ooo--------------",
"-------------- XXoooooo%  ------------ XX$%%%oooooo-------------",
"-------------- XXooooooX  -------------  $$$ooooooo-------------",
"-------------- XXooooooX  -------------  $$$ooooooo-------------",
"-------------- XXooooXX -----------------   XXXoooooo-----------",
"-------------- XXXooX  ---------------------   XXXooo-----------",
"-------------- XXXooX  ---------------------   XXXooo-----------",
"-------------- XXXXX --------------------------   XXXX----------",
"-------------- XXX  ------------------------------    ----------",
"-------------- XXX  ------------------------------    ----------",
"---------------   ----------------------------------------------"
};
