/* XPM */
static char *result[] = {
/* columns rows colors chars-per-pixel */
"192 64 16 1 ",
"  c black",
". c #0C1134",
"X c gray50",
"o c #F21313",
"O c #936A42",
"+ c #009C00",
"@ c #E3B75B",
"# c #003080",
"$ c #2533AF",
"% c #1655BF",
"& c #3848F0",
"* c #2C7AFE",
"= c #9198F7",
"- c #81AFFE",
"; c white",
": c None",
/* pixels */
"::::::::::::::::::::::::::::::::::::::::::::::::::::::::::::::::::::::::::::::::::::::::::::::::::::::::::::::::::::::::::::::::::::::::::::::::::::::::::::::::::::::::::::::::::::::::::::::::",
"::::::::::::::::::::::::::::::::::::::::::::::::::::::::::::::::::::::::::::::::::::::::::::::::::::::::::::::::::::::::::::::::::::::::::::::::::::::::::::::::::::::::::::::::::::::::::::::::",
"::::::::::::::::::::::::::::::::::::::::::::::::::::::::::::::::::::::::::::::::::::::::::::::::::::::::::::::::::::::::::::::::::::::::::::::::::::::::::::::::::::::::::::::::::::::::::::::::",
"::::::::::::::::::::::::::::::::::::::::::::::::::::::::::::::::::::::::::::::::::::::::::::::::::::::::::::::::::::::::::::::::::::::::::::::::::::::::::::::::::::::::::::::::::::::::::::::::",
"::::::::::::::::::::::::::::::::::::::::::::::::::::::::::::::::::::::::::::::::::::::::::::::::::::::::::::::::::::::::::::::::::::::::::::::::::::::::::::::::::::::::::::::::::::::::::::::::",
"::::::::::::::::::::::::::::::::::::::::::::::::::::::::::::::::::::::::::::::::::::::::::::::::::::::::::::::::::::::::::::::::::::::::::::::::::::::::::::::::::::::::::::::::::::::::::::::::",
"::::::::::::::::::::::::::::::::::::::::::::::::::::::::::::::::::::::::::::::::::::::::::::::::::::::::::::::::::::::::::::::::::::::::::::::::::::::::::::::::::::::::::::::::::::::::::::::::",
"::::::::::::::::::::::::::::::::::::::::::::::::::::::::::::::::::::::::::::::::::::::::::::::::::::::::::::::::::::::::::::::::::::::::::::::::::::::::::::::::::::::::::::::::::::::::::::::::",
"::::::::::::::::::::::::::::::::::::::::::::::::::::::::::::::::::::::::::::::::::::::::::::::::::::::::::::::::::::::::::::::::::::::::::::::::::::::::::::::::::::::::::::::::::::::::::::::::",
"::::::::::::::::::::::::::::::::::::::::::::::::::::::::::::::::::::::::::::::::::::::::::::::::::::::::::::::::::::::::::::::::::::::::::::::::::::::::::::::::::::::::::::::::::::::::::::::::",
"::::::::::::::::::::::::::::::::::::::::::::::::::::::::::::::::::::::::::::::::::::::::::::::::::::::::::::::::::::::::::::::::::::::::::::::::::::::::::::::::::::::::::::::::::::::::::::::::",
"::::::::::::::::::::::::::::::::::::::::::::::::::::::::::::::::::::::::::::::::::::::::::::::::::::::::::::::::::::::::::::::::::::::::::::::::::::::::::::::::::::::::::::::::::::::::::::::::",
"::::::::::::::::::::::::::::::::::::::::::::::::::::::::::::::::::::::::::::::::::::::::::::::::::::::::::::::::::::::::::::::::::::::::::::::::::::::::::::::::::::::::::::::::::::::::::::::::",
"::::::::::::::::::::::::::::::::::::::::::::::::::::::::::::::::::::::::::::::::::::::::::::::::::::::::::::::::::::::::::::::::::::::::::::::::::::::::::::::::::::::::::::::::::::::::::::::::",
"::::::::::::::::::::::::::::::::::::::::::::::::::::::::::::::::::::::::::::::::::::::::::::::::::::::::::::::::::::::::::::::::::::::::::::::::::::::::::::::::::::::::::::::::::::::::::::::::",
"::::::::::::::::::::::::::::::::::::::::::::::::::::::::::::::::::::::::::::::::::::::::::::::::::::::::::::::::::::::::::::::::::::::::::::::::::::::::::::::::::::::::::::::::::::::::::::::::",
"::::::::::::::::::::::::::::::::::::::::::::::;;;;;;;;;;;;;;;;;:::::::::::::::::::::::::::::::::::::::::::::::::::::::::::::::::::::::::::::::::::::::::::::::::::::::::::::::::::::::::::::::::",
"::::::::::::::::::::::::::::::::::::::::::::::;;;;;;;;;;;;;;;;;:::::::::::::::::::::::::::::::::::::::::::::::::::::::::::::::::::::::::::::::::::::::::::::::::::::::::::::::::::::::::::::::::",
"::::::::::::::::::::::::::::::::::::::::::::::;;;;;;;;;;;;;;;;;:::::::::::::::::::::::::::::::::::::::::::::::::::::::::::::::::::::::::::::::::::::::::::::::::::::::::::::::::::::::::::::::::",
"::::::::::::::::::::::::::::::::::::::::;;;;;;===...........===;;;;;;:::::::::::::::::::::::::::::::::::::::::::::::::::::::::::::::::::::::::::::::::::::::::::::::::::::::::::::::::::::::::::",
"::::::::::::::::::::::::::::::::::::::::;;;;;;===...........===;;;;;;:::::::::::::::::::::::::::::::::::::::::::::::::::::::::::::::::::::::::::::::::::::::::::::::::::::::::::::::::::::::::::",
"::::::::::::::::::::::::::::::::::::::::;;;;;;===...........===;;;;;;:::::::::::::::::::::::::::::::::::::::::::::::::::::::::::::::::::::::::::::::::::::::::::::::::::::::::::::::::::::::::::",
"::::::::::::::::::::::::::;;;;;;;;;;;;;;===......@@OOO&&&&&&......===;;:::::::::::::::::::::::::::::::::::::::::::::::::::::::::::::::::::::::::::::::::::::::::::::::::::::::::::::::::::::::::",
"::::::::::::::::::::::::::;;;;;;;;;;;;;;===......@@OOO&&&&&&......===;;:::::::::::::::::::::::::::::::::::::::::::::::::::::::::::::::::::::::::::::::::::::::::::::::::::::::::::::::::::::::::",
"::::::::::::::::::::::::::;;;;;;;;;;;;;;===......@@OOO&&&&&&......===;;:::::::::::::::::::::::::::::::::::::::::::::::::::::::::::::::::::::::::::::::::::::::::::::::::::::::::::::::::::::::::",
"#######################;;;===.....======...&&&OOO@@@@@$$$$$$$$$$$$...;;***######################################################################################::::::::::::::::::::::::::::::::",
"#######################;;;===.....======...&&&OOO@@@@@$$$$$$$$$$$$...;;***######################################################################################::::::::::::::::::::::::::::::::",
"###oooooooooooooooooooo;;;...@@OOO......&&&&&&&&&$$$$$$$$$$$&&&&&&$$$..;;;oooooooooooooooo          ooooooooooooooooooooo            oooo%%%***%%%***##%%%###%%%::::::::::::::::::::::::::::::::",
"###oooooooooooooooooooo;;;...@@OOO......&&&&&&&&&$$$$$$$$$$$&&&&&&$$$..;;;oooooooooooooooo          ooooooooooooooooooooo            oooo%%%***%%%***##%%%###%%%::::::::::::::::::::::::::::::::",
"###oooooooooooooooooooo;;;...@@OOO......&&&&&&&&&$$$$$$$$$$$&&&&&&$$$..;;;oooooooooooooooo          ooooooooooooooooooooo            oooo%%%***%%%***##%%%###%%%::::::::::::::::::::::::::::::::",
"###%%%ooooooooooooooooo;;;...OO@@@$$$&&&&&&$$$=====&&&&&&&&&$$$........;;;---oooooooooo   XXX;;;;;XX    oooooooooooo     XXX;;;;;;   ooooooo%%%***%%%%%###%%%###::::::::::::::::::::::::::::::::",
"###%%%ooooooooooooooooo;;;...OO@@@$$$&&&&&&$$$=====&&&&&&&&&$$$........;;;---oooooooooo   XXX;;;;;XX    oooooooooooo     XXX;;;;;;   ooooooo%%%***%%%%%###%%%###::::::::::::::::::::::::::::::::",
"###%%%ooooooooooooooooo;;;...OO@@@$$$&&&&&&$$$=====&&&&&&&&&$$$........;;;---oooooooooo   XXX;;;;;XX    oooooooooooo  ;;;;;;;;;;;;   ooooooo%%%***%%%%%###%%%###::::::::::::::::::::::::::::::::",
":::###ooooooooooooooooo;;;===..OOO&&&&&&$$$===;;;;;===&&&&&&&&&&&&&&&..===;;;oooooo    XXX;;;XXXXX;;XXXX   ooooooooo  ;;;;;;;;;;;;   oooo%%%***%%%***##%%%###%%%::::::::::::::::::::::::::::::::",
":::###ooooooooooooooooo;;;===..OOO&&&&&&$$$===;;;;;===&&&&&&&&&&&&&&&..===;;;oooooo    XXX;;;XXXXX;;XXXX   ooooooooo  ;;;;;;;;;;;;   oooo%%%***%%%***##%%%###%%%::::::::::::::::::::::::::::::::",
":::###ooooooooooooooooo;;;===..OOO&&&&&&$$$===;;;;;===&&&&&&&&&&&&&&&..===;;;oooooo    XXX;;;XXXXX;;XXXX   ooooooooo        ;;;;;;   oooo%%%***%%%***##%%%###%%%::::::::::::::::::::::::::::::::",
":::###%%%oooooooooooooo---;;;..===;;;$$$$$$;;;;;;;;;;;&&&&&&&&&&&&$$$$$...;;;oooooo    ;;;XXX     XX;;;;   ooooooooo        ;;;;;;   ooooooo%%%***%%%%%###%%%###::::::::::::::::::::::::::::::::",
":::###%%%oooooooooooooo---;;;..===;;;$$$$$$;;;;;;;;;;;&&&&&&&&&&&&$$$$$...;;;oooooo    ;;;XXX     XX;;;;   ooooooooo        ;;;;;;   ooooooo%%%***%%%%%###%%%###::::::::::::::::::::::::::::::::",
":::###%%%oooooooooooooo---;;;..===;;;$$$$$$;;;;;;;;;;;&&&&&&&&&&&&$$$$$...;;;oooooo    ;;;          ;;;;   ooooooooo        ;;;;;;   ooooooo%%%***%%%%%###%%%###::::::::::::::::::::::::::::::::",
"::::::###ooooooooooooooooo;;;..;;;+++======;;;+++;;;;;&&&&&&$$$......$$...;;;oooooo    ;;;          ;;;;   oooooooooooooo   ;;;;;;   oooo%%%***%%%***##%%%###%%%::::::::::::::::::::::::::::::::",
"::::::###ooooooooooooooooo;;;..;;;+++======;;;+++;;;;;&&&&&&$$$......$$...;;;oooooo    ;;;          ;;;;   oooooooooooooo   ;;;;;;   oooo%%%***%%%***##%%%###%%%::::::::::::::::::::::::::::::::",
"::::::###ooooooooooooooooo;;;..;;;+++======;;;+++;;;;;&&&&&&$$$......$$...;;;oooooo    ;;;XXX     XX;;;;   oooooooooooooo   ;;;;;;   oooo%%%***%%%***##%%%###%%%::::::::::::::::::::::::::::::::",
"::::::###%%ooooooooooooooo;;;==;;;   ;;;;;;;;;   ;;===&&&&&&&&&$$$........;;;oooooo    ;;;XXX     XX;;;;   oooooooooooooo   ;;;;;;   ooooooo%%%***%%%%%###%%%###::::::::::::::::::::::::::::::::",
"::::::###%%ooooooooooooooo;;;==;;;   ;;;;;;;;;   ;;===&&&&&&&&&$$$........;;;oooooo    ;;;XXX     XX;;;;   oooooooooooooo   ;;;;;;   ooooooo%%%***%%%%%###%%%###::::::::::::::::::::::::::::::::",
"::::::###%%ooooooooooooooo;;;==;;;   ;;;;;;;;;   ;;===&&&&&&&&&$$$........;;;oooooo    XXX;;;XXXXX;;XXXX   oooooooooooooo   ;;;;;;   ooooooo%%%***%%%%%###%%%###::::::::::::::::::::::::::::::::",
":::::::::##ooooooooooooooo---;;;;;+++;;;;;;;;;+++;;OOO$$$$$$&&&&&&...==;;;---oooooo    XXX;;;XXXXX;;XXXX   oooooooooooooo   ;;;;;;   oooo%%%***%%%***##%%%###%%%::::::::::::::::::::::::::::::::",
":::::::::##ooooooooooooooo---;;;;;+++;;;;;;;;;+++;;OOO$$$$$$&&&&&&...==;;;---oooooo    XXX;;;XXXXX;;XXXX   oooooooooooooo   ;;;;;;   oooo%%%***%%%***##%%%###%%%::::::::::::::::::::::::::::::::",
":::::::::##ooooooooooooooo---;;;;;+++;;;;;;;;;+++;;OOO$$$$$$&&&&&&...==;;;---oooooooooo   XXX;;;;;XX    ooooooooooooooooo   ;;;;;;   oooo%%%***%%%***##%%%###%%%::::::::::::::::::::::::::::::::",
":::::::::##%%%ooooooooooooooo;;OOO   OOO@@@@@@@@@@@@@@$$$$$$$$$$$$$$$..;;;ooooooooooooo   XXX;;;;;XX    ooooooooooooooooo   ;;;;;;   ooooooo%%%***%%%%%###%%%###::::::::::::::::::::::::::::::::",
":::::::::##%%%ooooooooooooooo;;OOO   OOO@@@@@@@@@@@@@@$$$$$$$$$$$$$$$..;;;ooooooooooooo   XXX;;;;;XX    ooooooooooooooooo   ;;;;;;   ooooooo%%%***%%%%%###%%%###::::::::::::::::::::::::::::::::",
":::::::::::###ooooooooooooooo;;OOO@@@@@@@@@@@@@@@@@OOO............$$$..;;;ooooooooooooo   XXX;;;;;XX    ooooooooooooooooo            oooo%%%***%%%***##%%%###%%%::::::::::::::::::::::::::::::::",
":::::::::::###ooooooooooooooo;;OOO@@@@@@@@@@@@@@@@@OOO............$$$..;;;oooooooooooooooo          ooooooooooooooooooooo            oooo%%%***%%%***##%%%###%%%::::::::::::::::::::::::::::::::",
":::::::::::###ooooooooooooooo;;OOO@@@@@@@@@@@@@@@@@OOO............$$$..;;;oooooooooooooooo          ooooooooooooooooooooo            oooo%%%***%%%***##%%%###%%%::::::::::::::::::::::::::::::::",
":::::::::::##################**;;;OOOOOOOOOOOOOOOOO@@@;;;;;;;;;===...==;;;######################################################################################::::::::::::::::::::::::::::::::",
":::::::::::##################**;;;OOOOOOOOOOOOOOOOO@@@;;;;;;;;;===...==;;;######################################################################################::::::::::::::::::::::::::::::::",
":::::::::::##################**;;;OOOOOOOOOOOOOOOOO@@@;;;;;;;;;===...==;;;######################################################################################::::::::::::::::::::::::::::::::",
"::::::::::::::::::::::::::::::::::;;;;;;;;;;;;;;;;;;;;:::::::::;;;;;;;;:::::::::::::::::::::::::::::::::::::::::::::::::::::::::::::::::::::::::::::::::::::::::::::::::::::::::::::::::::::::::",
"::::::::::::::::::::::::::::::::::;;;;;;;;;;;;;;;;;;;;:::::::::;;;;;;;;:::::::::::::::::::::::::::::::::::::::::::::::::::::::::::::::::::::::::::::::::::::::::::::::::::::::::::::::::::::::::",
"::::::::::::::::::::::::::::::::::;;;;;;;;;;;;;;;;;;;;:::::::::;;;;;;;;:::::::::::::::::::::::::::::::::::::::::::::::::::::::::::::::::::::::::::::::::::::::::::::::::::::::::::::::::::::::::",
"::::::::::::::::::::::::::::::::::::::::::::::::::::::::::::::::::::::::::::::::::::::::::::::::::::::::::::::::::::::::::::::::::::::::::::::::::::::::::::::::::::::::::::::::::::::::::::::::",
"::::::::::::::::::::::::::::::::::::::::::::::::::::::::::::::::::::::::::::::::::::::::::::::::::::::::::::::::::::::::::::::::::::::::::::::::::::::::::::::::::::::::::::::::::::::::::::::::",
"::::::::::::::::::::::::::::::::::::::::::::::::::::::::::::::::::::::::::::::::::::::::::::::::::::::::::::::::::::::::::::::::::::::::::::::::::::::::::::::::::::::::::::::::::::::::::::::::",
"::::::::::::::::::::::::::::::::::::::::::::::::::::::::::::::::::::::::::::::::::::::::::::::::::::::::::::::::::::::::::::::::::::::::::::::::::::::::::::::::::::::::::::::::::::::::::::::::",
"::::::::::::::::::::::::::::::::::::::::::::::::::::::::::::::::::::::::::::::::::::::::::::::::::::::::::::::::::::::::::::::::::::::::::::::::::::::::::::::::::::::::::::::::::::::::::::::::"
};
