/* XPM */
static char *result[] = {
/* columns rows colors chars-per-pixel */
"64 64 245 2 ",
"   c #1E1E1E",
".  c #252427",
"X  c #35343C",
"o  c #2E2B34",
"O  c #3C1C1D",
"+  c #511A16",
"@  c #78090C",
"#  c #751A24",
"$  c #43292E",
"%  c #792C3D",
"&  c #6F2836",
"*  c #4B321E",
"=  c #393A44",
"-  c #563745",
";  c #763747",
":  c #6F3142",
">  c #444449",
",  c #474555",
"<  c #564A5C",
"1  c #704753",
"2  c #565468",
"3  c #57576A",
"4  c #675978",
"5  c #6D4C65",
"6  c #656578",
"7  c #7A667A",
"8  c #7D7278",
"9  c #890E14",
"0  c #861C26",
"q  c #822933",
"w  c #B4151C",
"e  c #D21820",
"r  c #8B570C",
"t  c #955B0B",
"y  c #885719",
"u  c #955B12",
"i  c #975D17",
"p  c #AE6409",
"a  c #A76106",
"s  c #B8690B",
"d  c #BA6A1A",
"f  c #BD7518",
"g  c #A96913",
"h  c #8F5D30",
"j  c #986232",
"k  c #A96527",
"l  c #B96925",
"z  c #A96835",
"x  c #BA6C36",
"c  c #B6762F",
"v  c #C56D09",
"b  c #D87707",
"n  c #C36D18",
"m  c #C97613",
"M  c #D67A18",
"N  c #CB760E",
"B  c #C9742A",
"V  c #D77827",
"C  c #CA7535",
"Z  c #D27733",
"A  c #833947",
"S  c #D63A49",
"D  c #8A4B52",
"F  c #8B6349",
"G  c #976648",
"H  c #8D6957",
"J  c #986C59",
"K  c #BB7648",
"L  c #B06F51",
"P  c #8A5368",
"I  c #967977",
"U  c #916E6E",
"Y  c #A97667",
"T  c #B77B68",
"R  c #A47979",
"E  c #B16D79",
"W  c #AC5A71",
"Q  c #D44C5B",
"!  c #CB7C56",
"~  c #CA7B4A",
"^  c #C17963",
"/  c #D25869",
"(  c #B9813B",
")  c #DC841B",
"_  c #CC831F",
"`  c #E4861A",
"'  c #E18416",
"]  c #C98427",
"[  c #DA8927",
"{  c #D99336",
"}  c #D48A32",
"|  c #E39225",
" . c #ED9A2A",
".. c #EA9526",
"X. c #EC9D38",
"o. c #E58F2C",
"O. c #F4A32D",
"+. c #F8A92E",
"@. c #EEA535",
"#. c #F3A533",
"$. c #FAAE35",
"%. c #F6AB3B",
"&. c #F5A93B",
"*. c #FCB036",
"=. c #FCB03D",
"-. c #B88550",
";. c #9B8577",
":. c #B38567",
">. c #B78576",
",. c #AB816E",
"<. c #D48549",
"1. c #D89344",
"2. c #D59759",
"3. c #C78850",
"4. c #E69845",
"5. c #F6AC43",
"6. c #FBB144",
"7. c #FCB34C",
"8. c #F3AD57",
"9. c #EEAA53",
"0. c #CB8668",
"q. c #D79769",
"w. c #CB8874",
"e. c #C99A79",
"r. c #D79B79",
"t. c #CC8F6A",
"y. c #DDA473",
"u. c #FAB868",
"i. c #F8BA75",
"p. c #E7AB72",
"a. c #E09F5E",
"s. c #FAC07F",
"d. c #6D6D8C",
"f. c #676784",
"g. c #77768C",
"h. c #737392",
"j. c #7D7D9C",
"k. c #7B7893",
"l. c #7B6E83",
"z. c #89758C",
"x. c #887A93",
"c. c #92768A",
"v. c #B47889",
"b. c #C97C93",
"n. c #9B858A",
"m. c #87859B",
"M. c #9A8997",
"N. c #979499",
"B. c #83838F",
"V. c #A68588",
"C. c #B88B8B",
"Z. c #A18C96",
"A. c #A7939A",
"S. c #B69498",
"D. c #B2938E",
"F. c #8484A2",
"G. c #8D8DAA",
"H. c #8B89A5",
"J. c #9292AD",
"K. c #9A95A8",
"L. c #9494B3",
"P. c #9B9AB5",
"I. c #9C9CBB",
"U. c #9E97B6",
"Y. c #968DA6",
"T. c #A899A8",
"R. c #B59BA8",
"E. c #A29CB5",
"W. c #A08BA0",
"Q. c #BAA6A8",
"!. c #A2A2BD",
"~. c #AAA4BB",
"^. c #A8A4B7",
"/. c #B8A8B9",
"(. c #B4B4BC",
"). c #ABA4AE",
"_. c #C48C82",
"`. c #C89889",
"'. c #CA9195",
"]. c #D5AB97",
"[. c #D7AA8F",
"{. c #E8B48C",
"}. c #C7A5A6",
"|. c #C8B4A8",
" X c #D6B4A9",
".X c #C5ACB4",
"XX c #C9B6BA",
"oX c #D4BABF",
"OX c #C89DA2",
"+X c #FAC387",
"@X c #F9C99A",
"#X c #EBC09A",
"$X c #F8CCA3",
"%X c #E5CAB8",
"&X c #F7D6B9",
"*X c #EEC9A9",
"=X c #A4A4C3",
"-X c #ACABC5",
";X c #ABABCA",
":X c #A7A9C7",
">X c #B5ADC5",
",X c #B3B2C4",
"<X c #BAB4C6",
"1X c #B3B3CC",
"2X c #BBBAC9",
"3X c #B4B4D3",
"4X c #BCBCD4",
"5X c #BDBDDD",
"6X c #B7B7D5",
"7X c #9FA2C1",
"8X c #C4B7C7",
"9X c #C8B6CD",
"0X c #BFC0D6",
"qX c #C4C4CE",
"wX c #C7C2C7",
"eX c #D9C9C8",
"rX c #C3C3D5",
"tX c #CCCAD5",
"yX c #C3C3DC",
"uX c #CBCBDC",
"iX c #CAC6D7",
"pX c #D3D2DC",
"aX c #D8D5D9",
"sX c #D2CCD6",
"dX c #F8DEC8",
"fX c #E5D6D2",
"gX c #F6E6DA",
"hX c #F8E1CE",
"jX c #C2C2E1",
"kX c #CDCDE3",
"lX c #D4D4E4",
"zX c #DBDAE4",
"xX c #DCDCE9",
"cX c #DBD7E6",
"vX c #D2CEE2",
"bX c #E4E4EC",
"nX c #EAEAED",
"mX c #E6E3E5",
"MX c #F5EEEA",
"NX c #F6EBE2",
"BX c #F5F0EC",
"VX c #EDEDF1",
"CX c #F4F4F4",
"ZX c #E5DEE3",
"AX c None",
/* pixels */
"AXAXAXAXAXAXAXAXAXAXAXAXAXAXAXAXAXAXAXAXAXAXAXAXAXAXAXAXAXAXAXAXAXAXAXAXAXAXAXAXAXAXAXAXAXAXAXAXAXAXAXAXAXAXAXAXAXAXAXAXAXAXAXAX",
"AXAXAXAXAXAXAXAXAXAXAXAXAXAXAXAXAXAXAXAXAXAXAXAXAXAXAXAXAXAXAX} ! <.AXAXAXAXAXAXAXAXAXAXAXAXAXAXAXAXAXAXAXAXAXAXAXAXAXAXAXAXAXAX",
"AXAXAXAXAXAXAXAXAXAXAXAXAXAXAXAXAXAXAXAXAXAXAXAXAXAXAXAXAXAXAXAX<.V ` AXAXAXAXAXAXAXAXAXAXAXAXAXAXAXAXAXAXAXAXAXAXAXAXAXAXAXAXAX",
"AXAXAXAXAXAXAXAXAXAXAXAXAXAXAXAXAXAXAXAXAXAXAXAXAXAXAXAX*.i.&X%Xe.<.o.` AXAXAXAXAXAXAXAXAXAXAXAXAXAXAXAXAXAXu r r AXAXAXAXAXAXAX",
"AXAXAXAXAXAXAXAXAXAXAXAXAXAXAXAXAXAXAXAXAXAXAXAXAXAXAXO.O.8.@X%X|.e.1.| [ AXAXAXAXAXAXAXAXAXAXAXAXAXAXAXAXf f g t y AXAXAXAXAXAX",
"AXAXAXAXAXAXAXAXAXAXAXAXAXAXAXAXAXAXAXAXAXAXAXAXAXAXM M V { p.#X%X|.2.| | c AXAXAXAXAXAXAXAXAXAXAXi g m } 4.{ B p i AXAXAXAXAXAX",
"AXAXAXAXAXAXAXAXAXAXAXAXAXAXAXAXAXAXAXAXAXAXAXAXAXV M v v s B q.{.[.1.] _ f n M AXAXAXV V V V V m n ] [ 4.r.r.<.d i AXAXAXAXAXAX",
"AXAXAXAXAXAXAXAXAXAXAXAXAXAXAXAXAXAXAXAXAXAXAXAXAXAXAXu t t i z 3.1.{ _ f M ) ` ` ` ..` ` ` ' M M o.1.a.[.].'.0.d u AXAXAXAXAXAX",
"AXAXAXAXAXAXAXAXAXAXAXAXAXAXAXAXAXAXAXAXAXAXAXAXAXAXAXy r r r j z ] [ ) ) | O.O.O. .#.&.5.X.| `  .4.t.D.}.8X}.w.l u AXAXAXAXAXAX",
"AXAXAXAXAXAXAXAXAXAXAXAXAXAXAXAXAXAXAXAXAXAXAXAXAXAXAXy t a c -.`.e.4.| ..#.*.$.$.$.8.i.+Xu.#...@.a.S.E.-XqX9Xr.l u AXAXAXAXAXAX",
"AXAXAXAXAXAXAXAXAXAXAXAXAXAXAXAXAXAXAXAXAXAXAXAXAXAXAXi p N { p. X*X8.+.+.=.*.*.*.*.u.@X&Xs.6.+.5.p.XX>X1XiXeXr.l i AXAXAXAXAXAX",
"AXAXAXAXAXAXAXAXAXAXAXAXAXAXAXAXAXAXAXAXAXAXAXAXAXAXAXn _ | X.a.[.{.8.*.=.*.*.*.*.=.7.+X@Xi.=.$.7.{.8X3X3X9XXXC.z AXAXAXAXAXAXAX",
"AXAXAXAXAXAXAXAXAXAXAXAXAXAXAXAXAXAXAXAXAXAXAXAXAXAXAXV [ | [ B -.{ @.@.@.O.+.*.*.$.#.5.9.4.@.$.6.i. X>X>X>XR.Y h AXAXAXAXAXAXAX",
"AXAXAXAXAXAXAXAXAXAXAXAXAXAXAXAXAXAXAXAXAXAXAXAXAXAXAXM m f g s f | @.{ ] [  .*.*.#.o.] c ( { @.$.8.r.'.R.S.w.G h AXAXAXAXAXAXAX",
"AXAXAXAXAXAXAXAXAXAXAXAXAXAXAXAXAXAXAXAXAXAXAXAXAXAXAXl p t a v ) | 1.:.R K { #.$.O.] Y I I :.1.#.#.4.q.w.T z i h AXAXAXAXAXAXAX",
"AXAXAXAXAXAXAXAXAXAXAXAXAXAXAXAXAXAXAXAXAXAXAXAXAXAXAXj u t s M | 1.,.M.N.,.1.&.*.1.:.M.E.E.T.:.1.#.&.4.~ x u y AXAXAXAXAXAXAXAX",
"AXAXAXAXAXAXAXAXAXAXAXAXAXAXAXAXAXAXAXAXAXAXAXAXAXAXAXAXy i v b o.t.A.!.-XT.e.5.%.a.S.!.3X3X-XA.t.X.O. .M p r y AXAXAXAXAXAXAXAX",
"AXAXAXAXAXAXAXAXAXAXAXAXAXAXAXAXAXAXAXAXAXAXAXAXAXAXAXAXAXi v b ~ `./.5XrX8X].8.6.{.XX9XkXkXyX/._.<. . .M p t AXAXAXAXAXAXAXAXAX",
"AXAXAXAXAXAXAXAXAXAXAXAXAXAXAXAXAXAXAXAXAXAXAXAXAXAXAXAXAXAXN b Z '.9XlXxXsX Xu.6.{.8XpXbXbXxX2XA.} .. .) a u AXAXAXAXAXAXAXAXAX",
"AXAXAXAXAXAXAXAXAXAXAXAXAXAXAXAXAXAXAXAXAXAXAXAXAXAXAXAXAXAXs v Z _./.lXnXZX%Xu.5.y..XpXVXCXnXaXQ.-.| ..M p r AXAXAXAXAXAXAXAXAX",
"AXAXAXAXAXAXAXAXAXAXAXAXAXAXAXAXAXAXAXAXAXAXAXAXAXAXAXAXAXAXt p Z ^ R.vXVXMX&Xu.%.y.Q.uXVXCXCXmXQ.-.| | N a r AXAXAXAXAXAXAXAXAX",
"AXAXAXAXAXAXAXAXAXAXAXAXAXAXAXAXAXAXAXAXAXAXAXAXAXAXAXAXAXAXh a C _.>XcXCXBX&Xu.5.y.(.pXCXCXCXmXQ.K m ] c j h AXAXAXAXAXAXAXAXAX",
"AXAXAXAXAXAXAXAXAXAXAXAXAXAXAXAXAXAXAXAXAXAXAXAXAXAXAXAXAXAXU k C w./.aXCXBX&Xu.@.r.|.pXVXCXVXzXQ.z B t.D.D.M.AXAXAXAXAXAXAXAXAX",
"AXAXAXAXAXAXAXAXAXAXAXAXAXAXAXAXAXAXAXAXAXAXAXAXE.7X=X:X;X1XA.Y K L M.qXnXBX&Xu.| ~ n.wXnXCXnXtX).:.t.].eXwX,X=XAXAXAXAXAXAXAXAX",
"AXAXAXAXAXAXAXAXAXAXAXAXAXAXAXAXAXAXAXL.AXAXAXAXAX=X=X;X3X6X>XR.D.I 8 (.zXnX&Xa.M x U (.MXCXxX0X~.R.}.XXtXyX6X:XAXAXAXAXAXAXAXAX",
"AXAXAXAXAXAXAXAXAXAXAXAXAXAXAXAXAXAXj.G.I.7XAXAXAX=X:X;X5X5XyXrX<XY.B.!.rXaX Xt.3.T n.8XnXVXzXrXrXyXuXyXrX4XAXAXAXAXAXAXAXAXAXAX",
"AXAXAXAXAXAXAXAXAXAXAXAXAXAXAXAXAXAXh.j.G.I.I.I.I.7X=X;X3XjXlXxXxX9X!.!.;X^.Z.R S./.2XpXbXbXzXzXbXbXbXbXzXkX6X:XAXAXAXAXAXAXAXAX",
"AXAXAXAXAXAXAXAXAXAXAXAXAXAXAXAXAXAXAXd.j.G.G.L.I.7X=X:X3X6XlXbXVXZXtX0X2XP.m.N.2XkXcXbXVXbXbXVXCXCXCXVXxXkX4X:X=XAXAXAXAXAXAXAX",
"AXAXAXAXAXAXAXAXAXAXAXAXAXAXAXAXAXAXAXAXh.h.h.j.L.I.=X3X3X;XyXcXnXVXnXbXzXyX1X1XpXVXVXCXCXCXVXCXCXCXVXbXlXjXAXAXAX=XAXAXAXAXAXAX",
"AXAXAXAXAXAXAXAXAXAXAXAXAXAXjXjX5X3X:XI.F.f.f.d.x.L.7X:X:X;XrXcXxXbXVXCXVXbXxXzXnXCXCXCXCXCXCXCXCXVXbXxXlXrX;XAXAXAXAXAXAXAXAXAX",
"AXAXAXAXAXAXAXAXAXAXAXAXkXlXlXlXkXyXrX1X!.H.j.j.j.G.L.7X=X3XjXvXtXtXxXbXVXVXVXCXCXCXCXCXCXCXVXVXbXxXlXlXlXrX;XAXAXAXAXAXAXAXAXAX",
"AXAXAXAXAXAXAXAX:X3XjXkXxXbXbXbXbXbXbXzXuX6X1X:XI.G.G.L.;X3X6X>XA.).2XtXzXnXVXCXVXCXCXCXCXVXbXcXuXyX4X5X4X4X3X:XAXAXAXAXAXAXAXAX",
"AXAXAXAXAXAXAXAX=X3X5XzXnXCXCXCXCXCXCXCXnXxXzXzXtX1XI.=X;X3X;XK.I U N.T.(.sXzXzXxXbXxXxXzXlXlXyX3XAXAXAX;X3X3X:XAXAXAXAXAXAXAXAX",
"AXAXAXAXAXAXAXAXAX:X0XzXnXCXCXCXCXCXCXCXCXVXVXBXbXzXyXyX6X;XE.M.U h F ;.N.~.-X,X4X5XyX4X1X,X-XAXAXAXAXAXAXAXAXAXAXAXAXAXAXAXAXAX",
"AXAXAXAXAXAXAXAXAX:X1XtXlXxXVXCXCXCXCXCXCXCXCXCXCXnXbXcXkX-XY.c.1 y H n.E.I.L.G.G.I.;X1X~.N.I H AXAXAXAXAXAXAXAXAXAXAXAXAXAXAXAX",
"AXAXAXAXAXAXAXAXAX0X0XrXkXxXVXCXCXCXCXCXCXCXCXBXgXgXgXZXlX,Xc.F y r H Z.~.=XL.F.F.G.=X:X~.>.c k j AXAXAXAXAXAXAXAXAXAXAXAXAXAXAX",
"AXAXAXAXAXAXkXjXkXxXmXbXnXnXCXCXCXCXCXCXCXCXCXNX&X@X@XeXiX9XZ.F y y h U T.>X-XI.L.:X3X:XT.e.1.B k G AXAXAXAXAXAXAXAXAXAXAXAXAXAX",
"AXAXAXAXAXkXlXxXbXVXCXCXCXCXCXCXCXCXCXCXCXCXCXNX&X+Xi.{. XOXS.I F y F n./.iXuX3X3X5XuXtXXX X`.T x L U AXAXAXAXAXAXAXAXAXAXAXAXAX",
"AXAXAXjXjXlXbXbXbXVXVXCXCXCXCXCXCXCXCXCXCXCXCXCXgX&Xu.8.8.q._.V.J h H A.2XzXcXkXkXlXbXnXzXqX).c.Y T Z.m.AXAXAXAXAXAXAXAXAXAXAXAX",
"AXAXAXAXAXyXrXkXlXcXbXVXCXCXCXCXCXCXCXCXCXCXCXCXMX&Xu.$.$.4.a.0.K k G I /.uXxXbXbXVXVXbXpX~.m.k.M.}.8X(.H.AXAXAXAXAXAXAXAXAXAXAX",
"AXAXAXAXAXAX;X3XyXjXlXxXzXbXCXCXCXCXCXCXCXCXCXCXBXhX@Xu.=.*.@.} ~ T I I D.qXbXCXCXCXVXzX1XH.m.E.,XtXpX4XJ.h.AXAXAXAXAXAXAXAXAXAX",
"AXAXAXAXAXAXAXAXAXAX0XrXrXpXbXCXCXCXCXBXMXBXCXCXCXMXdX+X=.*.%.a.>.W.T.Z.S.sXnXCXCXCXnXuX!.x.K.tXzXzXlX0X!.G.j.AXAXAXAXAXAXAXAXAX",
"AXAXAXAXAXAXAXAXAXjXyXpXpXlXnXCXCXCXCXdX&XdXNXCXCXCXgX@X7.=.a.>.T.=X;X~./.tXmXCXBXbXaX.XC.I T.qXpXuXyXuXrX,X!.7XAXAXAXAXAXAXAXAX",
"AXAXAXAXAXAXAXAX5X5XyXzXbXbXCXCXCXCXNX&X+X+X&XgXNXgXhX$Xi.8.e.A.-X3X1X1X>X(.wXaXZXfX.X`.! K R E.1XrXkXxXbXzXyX4X1XAXAXAXAXAXAXAX",
"AXAXAXAXAXAXAXAXAX3X6XrXkXxXnXCXCXCXBXhX@Xi.s.@X@X@X$X&X*Xi.`.~.3X5X3X3X/.'._.'.[.[.w.<.V B Y M.2XzXbXVXCXnXbXzXtX1XAXAXAXAXAXAX",
"AXAXAXAXAXAXAXAXAXAX!.:X6XuXlXxXnXVXCXBX&Xu.=.6.6.7.s.$X*X[.Q.1X5X5X5X3X/.w.C G L K x n v n L M.qXVXCXCXCXCXnXzXpXrX^.AXAXAXAXAX",
"AXAXAXAXAXAXAXAXAXAXAXAXAXAX4X0XkXbXCXBXdX+X7.*.*.*.7.u.y.D.^.3X5X5X5X5X/.w.n G P U G k p n ^ v.wXnXCXCXCXVXbXpXpXtX~.m.AXAXAXAX",
"AXAXAXAXAXAXAXAXAXAXAXAXAXAXAX;X0XlXmXBXNX&Xs.6.*.*.$.%.2.n.I.3X3X3X5X3XOX^ l J m.M.8 1 k n C T Q.pXnXmXpXlXlXlXuXrX-XL.j.AXAXAX",
"AXAXAXAXAXAXAXAXAXAXAXAXAXAXAXAXAXjXpXaXmXgX$X5.$.*.*.&.2.n.I.3X:X:X3X3XOX^ n E T.P.k.7 J C M ! S.8XzXaX,X;XuXxXpX1X=XP.j.AXAXAX",
"AXAXAXAXAXAXAXAXAXAXAXAXAXAXAXAXAXAX(.Q.eXfX#X4.O.*.$.5.2.n.I.:XL.U.3X;XR.^ Z ^ S.Y.k.z.v.! V C ,.^.pXqXJ.F.(.zXpX!.J.F.AXAXAXAX",
"AXAXAXAXAXAXAXAXAXAXAXAXAXAXAXAXAXAXAX;.Q.|.r.o...+.$.=.q.c.L.I.x.F.L.L.W.v.^ L I z.6 8 v.! M x U N.2X(.x.d.^.aXrXP.k.AXAXAXAXAX",
"AXAXAXAXAXAXAXAXAXAXAXAXAXAXAXAXAXAXAXAX;.:.c M ' ..#.&.q.M.L.L.F.h.h.h.x.M.R D q : > 1 J L 0.,.n.Y.P.H.d.f.K.iX2Xm.AXAXAXAXAXAX",
"AXAXAXAXAXAXAXAXAXAXAXAXAXAXAXAXAXAXAXAXAXG k n b ' ` 4.`.Q.;X:XI.j.f.f.l.P P q 9 @ O * 1 v.}.XXwX,XY.h.f.f.x.T.A.AXAXAXAXAXAXAX",
"AXAXAXAXAXAXAXAXAXAXAXAXAXAXAXAXAXAXAXAXAXAXj k v n C 0.OX9X5X5X;XG.d.4 5 ; # 9 @ @ + O < x.,XpXaXqXY.f.4 4 5 A 1 AXAXAXAXAXAXAX",
"AXAXAXAXAXAXAXAXAXAXAXAXAXAXAXAXAXAXAXAXAXAXAXAXk G Y S.>X9XjX5X6X7Xh.5 % @ @ 9 q ; 1 1 5 d.v.9X2X/.x.7 4 1 : # # O AXAXAXAXAXAX",
"AXAXAXAXAXAXAXAXAXAXAXAXAXAXAXAXAXAXAXAXAXAXAXAXH I M.E.3X5XjXjX5X3Xx.5 q @ 9 A U c.M.M.c.c.v.b.b.v.W P ; : q ; & . AXAXAXAXAXAX",
"AXAXAXAXAXAXAXAXAXAXAXAXAXAXAXAXAXAXAXAXAXAXAXAXAXL.7X3X5XjXjXjX5X3XE.z.P A A c.T.,XrX0X8X'./ S S e S w 0 # : ; , o AXAXAXAXAXAX",
"AXAXAXAXAXAXAXAXAXAXAXAXAXAXAXAXAXAXAXAXAXAXAXAXAX7X:X3X5X5XjX5X5X3XI.H.z.7 c.~.tXzXbXbXcX9Xb.Q e w w w 9 # : - = AXAXAXAXAXAXAX",
"AXAXAXAXAXAXAXAXAXAXAXAXAXAXAXAXAXAXAXAXAXAXAXAXAXL.I.;X3X6X3X6X3X:XG.j.h.d.G.6XxXCXCXCXnXvX9Xb.Q e 9 0 ; ; : X o AXAXAXAXAXAXAX",
"AXAXAXAXAXAXAXAXAXAXAXAXAXAXAXAXAXAXAXAXAXAXAXAXAXh.j.G.I.7X7X7XU.x.f.2 < < k.>XzXVXCXCXnXvX9X.Xv.D A 5 5 5 < = AXAXAXAXAXAXAXAX",
"AXAXAXAXAXAXAXAXAXAXAXAXAXAXAXAXAXAXAXAXAXAXAXAXAX2 3 f.h.g.g.k.d.6 X .   = 6 J.tXbXVXCXnXlX4X1XE.c.c.l.2 , , = AXAXAXAXAXAXAXAX",
"AXAXAXAXAXAXAXAXAXAXAXAXAXAXAXAXAXAXAXAXAXAXAXAXAXAX= = > , > > > = .     o 2 j.!.qXaXaXpX2X7XL.G.H.x.d., o o AXAXAXAXAXAXAXAXAX",
"AXAXAXAXAXAXAXAXAXAXAXAXAXAXAXAXAXAXAXAXAXAXAXAXAXAXAXAXAXAXAXAXAXAXAXAXAXAXAXAXg.B.N.N.N.B.g.6 6 6 4 4 AXAXAXAXAXAXAXAXAXAXAXAX",
"AXAXAXAXAXAXAXAXAXAXAXAXAXAXAXAXAXAXAXAXAXAXAXAXAXAXAXAXAXAXAXAXAXAXAXAXAXAXAXAXAX> > > > = X X X X X AXAXAXAXAXAXAXAXAXAXAXAXAX"
};
