/* XPM */
static char *result[] = {
/* columns rows colors chars-per-pixel */
"64 64 104 2 ",
"   c #A67C3E",
".  c #A87D3F",
"X  c #8E7349",
"o  c #9F7944",
"O  c #95764C",
"+  c #97784F",
"@  c #9C7A4E",
"#  c #987750",
"$  c #967A54",
"%  c #9D7C54",
"&  c #9E7C58",
"*  c #A67D44",
"=  c #A97E45",
"-  c #A57C4A",
";  c #A97E4B",
":  c #A37D54",
">  c #AD7F50",
",  c #A17B58",
"<  c #A9823E",
"1  c #9D845E",
"2  c #A68144",
"3  c #AB8245",
"4  c #AF8845",
"5  c #A6814C",
"6  c #AD834A",
"7  c #AE894B",
"8  c #B08447",
"9  c #B18A46",
"0  c #B2864C",
"q  c #B38B4D",
"w  c #B88C4F",
"e  c #B6914E",
"r  c #B9924F",
"t  c #A58454",
"y  c #AC8352",
"u  c #A68A56",
"i  c #AC8953",
"p  c #AB865B",
"a  c #A7885E",
"s  c #AC8B5C",
"d  c #B38652",
"f  c #B58C52",
"g  c #B98D54",
"h  c #B58C5A",
"j  c #B98F5A",
"k  c #AE925E",
"l  c #B69254",
"z  c #BB9355",
"x  c #BE9955",
"c  c #B5925B",
"v  c #BD945A",
"b  c #BE995B",
"n  c #958161",
"m  c #9C8562",
"M  c #AA8762",
"N  c #AC8B63",
"B  c #B98F60",
"V  c #AE9162",
"C  c #B49463",
"Z  c #BC9463",
"A  c #B59A66",
"S  c #BC9C65",
"D  c #B6956C",
"F  c #BB966B",
"G  c #B49B6B",
"H  c #BB9D6B",
"J  c #B49A73",
"K  c #BC9D73",
"L  c #BEA066",
"P  c #BCA06C",
"I  c #BEA173",
"U  c #BBA47D",
"Y  c #C09557",
"T  c #C19B56",
"R  c #C1965A",
"E  c #C8965E",
"W  c #C49B5C",
"Q  c #C89D5E",
"!  c #C6A15D",
"~  c #C9A25E",
"^  c #C09663",
"/  c #C59D62",
"(  c #C99E62",
")  c #C09768",
"_  c #C29D6B",
"`  c #C89E6A",
"'  c #C39E71",
"]  c #C19E78",
"[  c #C6A162",
"{  c #CBA262",
"}  c #CEA864",
"|  c #C4A26D",
" . c #CCA46A",
".. c #CDA96B",
"X. c #D0A466",
"o. c #D0A963",
"O. c #D0A669",
"+. c #C5A373",
"@. c #C9A374",
"#. c #C6A57A",
"$. c #C9A67C",
"%. c #C7A97B",
"&. c #C9AA7C",
"*. c #BCA884",
/* pixels */
"*.U J A A C A C C D C C C C C V A G H H H P P G L P P L P H G P H H H H H P P G A C k u u u k A L | P P G A H A A A A G P A J J ",
"U I G A S A c C Z c C c C c c A A S S S L S S H L L L L H P L H H H H K K _ P | S C s i t i c A L | | L / S S S L L S S A P I U ",
"' H S S S c h c c j g c c b b c b S S / S / / [ L [ L b [ / ^ _ _ _ _ _ _ _ | | _ c y t 5 7 v /  .....[ [ _ W / [ [ [ W / _ I U ",
"' _ ^ b l i f g z z v x b b b b W W W ! [ [ ! ! ! ! ! b b W ^ _ _ F Z Z Z b Z ` ` c i ; 6 6 z / { }  .[ / W W Q ! ! W W W / +.#.",
"H _ W g 7 6 7 z Y Y W W W W W W W ~ [ { { [ [ W x T x v z v ^ _ ) B B h h h j v R j d 6 6 0 g W { { { ( ( W W Q Q Q W W W ( ' #.",
"_ _ R w 6 2 0 z E W W Q W W W W W [ [ [ ~ [ ~ ~ T T x x z z v b v j h h d h j v ^ c f > 6 0 g b ! ~ { { ( ( Q { ~ ~ Q Q W ( @.$.",
"_ _ R g 6 6 i x Q Q Q Q ~ W ! W ! ~ [ [ [ ~ [ ~ ! W R x z z j h j h h j h f g v v j d 6 - 6 g b W ! [  .( ( ( { o.~ Q Q ( ` @.$.",
"| _ R z 7 7 l R ( ( { [ [ ! ! W W Q W ! W W W ~ [ ~ ! R v z f f h f h j v j v b R c d 6 6 i g b W W ( ( ` W W W ~ Q Q R Q ( ' #.",
"_ ` ( R v z v / ( X.X.[ { { Q [ ~ W ~ ! W W W [ ( { [ W v z q 6 0 f j ^ / W W / / v f ; 6 6 g W W / b v z v v W Q W R z z v C D ",
"_ _ ( / b / / ( ( ( { { { { { { { ~ / W W ~ W W Q [ [ / b z 0 3 6 0 x [ O.[ { } / v f 6 5 6 g b [ / v f d f z b W Y l f q i p a ",
"_ ` (  .[ | [ ( ( ( ( { { } { o.{ { [ [ ~ W ! W W / / W x g 7 2 3 w z ( o.o.o.o.[ R f - - 6 h R ( / z 6 6 f l z R x l f 7 i p a ",
"_ _ { {  .[ [ [ Q Q ( { { { [ { [ [ W W W W W W W W W b z z q 4 9 r Y ~ o.o.o.o.[ v f 6 ; 6 g v / W c f f g l v R z z l f f s N ",
"_ _ Q ( [ [ [ W W W W W Q ! ! / W W R R R b R R W b b v v v z w z z T ~ o.~ o.~ ~ R f ; = 6 f c W b v h z v v S b b z c l c D D ",
"_ ` ( / W b S R W W W b R R W R R x x x z z z v b v v v b R R b W W ~ ~ ! ! T Q W R f 6 - 6 f v v v v v v v v b S b b v c c D D ",
"_ ` ( R v v v v R R v z z v z x z l f z l e g g v v v j b R / ( ! / W [ ! T T T W x d 6 6 y f v v v v c c v v v b v v v v c F J ",
"F ` ( R v b b v z z z z v z z l l w f l z z z v v j v j v v R R W W W W T W W R x g 0 6 ; 6 d g g h v g v v v R Z W ) v j c F K ",
"Z b R z z c z l w 9 f f z g g f f 7 f f f f z g g d g g g h g g g Y g Y j v R R j d 8 = ; ; 0 f f g f f f g g l h v j j g j D D ",
"h d 0 4 3 7 7 7 3 2 2 6 0 6 6 6 6 6 6 6 6 6 6 6 > > ; 8 ; ; ; > > > > > 0 0 0 d d 0 ; = = ; ; 6 6 6 6 5 6 3 6 6 6 6 ; ; ; > M M ",
"y y = . 2 2 2 6 2 = * = 6 6 6 6 6 6 ; = = * - * * * = = = = = * = = * * * * = ; 8 8 = = = * = ; 6 3 6 5 = * = = = ; = * - > , M ",
"y 6 =   < 2 2 3 2 2 2 2 = 5 2 6 6 6 6 5 2 - * = = = ; = = = ; = ; * * o * * = ; 6 0 ; ; = = 6 8 8 3 6 6 6 6 2 = ; = ; ; > > B N ",
"f q 9 < 2 4 7 e q 7 6 6 = 6 6 6 6 d f 6 6 6 6 d q 0 d 0 d 0 0 q > > > 8 ; = 8 d f f d d f g d d f q f f f q 9 0 8 0 > d d h B J ",
"c z r 9 7 e e e e e l q 6 6 ; 8 d f f g g c g v j R Y j j R j R Y d d w q f g j j R g g g j v R R v R v v g g g g g d d h B F ] ",
"^ W x r e e e e r r z z 0 6 = 0 q g v v b b Z W ^ R / R Q E R ^ ^ R Y Y j R R ^ W W v g g R R W / ( ( W R R Y v v g d g j ^ ' ] ",
"/ W x x e x r e r z x z 6 = = 3 q v v v R ^ W ^ R / R / / ( / / R R R Y R R ( ( ( ^ v g j v R ( ( ( ( W W R R R R R j j R ) ' ] ",
"_ [ T T x x x x x T x x 0 = * 8 d g v R v b R R v ^ R ^ / ( / R ^ R R R R / / ( W R g g z v R ( { { ( ( Q Q E Q W R R v ^ ` ' ] ",
"[ [ ~ T x x T T T T T x 8 = * ; f v R v v v v v v R R Q Q ( ( ( ( Q R R R R / R W Y g g g R W Q { { X.( ( Q Q Q ( ( W R ^ ( ' $.",
"X.X.o.~ ! ! T ! ! W ! l 8 = = q j R R R v g f g z R R Q ( ( { { ( ( Q W R Y R R Y Y z r z Y Y Q ( { X.o.{ { ~ ~ ( Q Q ( ( ` @.$.",
"O.o.o.~ ! ! ! ! ! ! ! x 0 = 6 g R ( / R z f q f v R W ( ( X.{ o.( { ( Q W z w g Y Y Y r z z T Q Q { { X.o.X.o.~ { X.{ ( ( ` @.$.",
" .` { ( ! ! ! [ { { / v 0 3 8 g ^ ( ^ R g g g z R W Q { { { ~ { { [ ~ ~ Q Y z T T z z z Y T T ~ ~ o.Q ~ ! T ~ ~ { { { [ ( ( ` #.",
"_ ` R W S b b W [ [ ( R q 8 6 f R R R v g z R W ( ( { { { ~ ~ W ~ ~ ~ ~ ~ ~ ~ W W T T z T T W W ~ ~ T Y r T T T ~ [ ! R R W _ I ",
"Z Z g z z l c c W / W v q ; 8 g v ^ R R W Q ( { ( { X.{ { ~ ~ Q ! ~ ~ ~ ~ ~ { ~ W W T T W W ~ ~ ~ ~ T 9 9 r r z T R x z z x S H ",
"B j g w f f f l z b v z 8 ; 8 f R / ( ( ( { O.X.{ { X.~ ~ { ~ Q ~ ~ ~ ~ } } { } ~ ! ! W ~ ~ ~ ~ ~ ~ T < < < < 9 r z z r e z Z A ",
"C l e e e e 7 e z R R g 8 = = w g ^ ( ( ( { { { ( ~ { [ [ ! ! ! W ~ [ ~ { { ~ ~ [ ~ ~ ~ ~ ! ! ! W W r < < < 4 9 e z w w e z S G ",
"Z b r x l l l x T W W Y 8 = = 8 g v R W ( / ( Q Q Q [ ( ! ! W W T ! Q ~ { ~ ~ ~ W ! ! W W W W W T T r 9 4 3 9 e r z z z z b H | ",
"/ W x x x b x ! ! { Q R q = . = 0 g j Y R z Y R Q Q ( ( W W W R W W ~ ~ ~ W ~ W W ~ Q W ~ W W T x z z w w w z x T b x v W [ +.#.",
"/ / ! ! ! ! ! ! ~ { X.R w > . 8 q g R z R z z R ( ( ( [ [ [ / ! W ~ [ [ [ [ Q [ W ( [ [ Q / W b v z x x v z z b W W W W W [ @.&.",
"S / W Q ~ [ ~ ! } ! ~ R w w 8 8 0 g Y Y z g Y R W ( ` W / / W W / / [ / [ [ W / / / ( / / W W W v x b R R b v W / W / W / [ #.$.",
"c R z T b ! ! ! ! W z z 8 8 = = 8 w w w g q w g R R R v v v v z v v b W R R b v x b x v v z z z g f z v x z z x v v v z v R H ' ",
"h f q w z c l z z z w 3 = = . = 8 8 = w 0 0 0 d f g f f f f i f f f g l z f f w e f w l f q 9 q q 9 f f q w q f l g f f f g Z D ",
"p 6 8 8 q e i q q 9 3 . . . < . . = = = 8 3 3 6 0 6 0 6 6 6 6 6 6 6 6 q 6 9 6 6 6 6 6 6 6 6 0 6 6 6 7 q 6 6 6 7 q 7 6 6 6 f N C ",
"y > = = 6 5 5 6 6 2 =     . = = . = = 3 = . = 3 ; 3 ; ; 3 = = = = ; 6 2 6 2 2 = 2 3 3 2 2 ; 3 3 6 2 6 2 2 * * = 2 6 6 = 5 6 p N ",
"p y ; ; = * 2 2 2 = = . 3 3 3 4 = 8 3 3 8 3 < 3 3 2 6 3 6 = = = 6 2 6 0 6 6 6 0 3 6 6 3 2 2 6 6 6 7 6 6 2 * 2 = = 6 2 6 6 6 s N ",
"Z B d 0 2 o o 5 7 f 6 4 8 w g g w q w g w 9 q 8 7 f f f q 6 2 4 6 q f z z l f z z g q q q f w l z l z z z q q f f f 6 6 6 f c C ",
") Z j d 2 o o 6 f f q q r z R Y Y Y Y z z z w w q g z z f 6 6 6 7 f v W W R b W W R z z z v x x x x R W R z z v v g f q f j C D ",
") ) z q 6 2 2 7 q l f z v W W R R W W R x x z z g z v x f 0 3 3 6 l x W / / W / ^ W W / / / W W R R W R v v x x b z z f f j Z K ",
"_ / R r 7 2 7 7 e e z x R W W W R W W W R R b z x b R b z 9 3 2 7 w v W ( _ ` ^ ^ W ( {  .( W T v x T b v z z R R v z z x b S K ",
"_ ( W x l e e l l z R W ! [ [ R W ! [ Q W b b R W W W b z 6 3 . 4 w v / / ` R B b ^ _  . .{ R z r z x x x z v b W R v v v b _ +.",
" .( W ! b x x b W x W / / [ ! W W W W [ W W W W ( [ [ W z 9 2 = 3 f x / ( _ j h f h /  . .[ z w 9 9 z z v z x b ! W W b W / +.#.",
" .{ X.~ ! ! ! ! ! b W [ [ [ [ W ! ~ ~ [ [ / W W / {  ./ x q 2 2 4 f v / ` ^ j p y h ) {  .W g 9 3 4 w z z l x R W [ W W W [ +.#.",
"@. .X.~ } } } } ! b W / [ / [ ~ ~ ~ { } { ( ^ ^ / [  .( R f 6 2 3 q x / ` ^ h d d f ^ `  .W z 9 < < 9 r z g z v W W R b W / | #.",
" . .~ ~ [ } } ! x l b W ^ W W ~ ~ ~ ~ { [ / R b / [ [ [ R e 8 3 3 f v / ` ^ j h d j / [  .W z q 4 4 q z z l x R W W W R b / | +.",
" .{ X.Q b [ [ W x e c c v x T W ! ~ ~ ~ ( ^ v v W ( { [ R f 4 2 3 q z W ( ^ ^ c b Z _ [  .! T r 9 9 e l z f x R W / W b W [ | +.",
"@.` [ ( W / ! b f 6 y f l z z x ! ! ! ~ ^ v f g v W ( / R l 4 = 3 q v W ( ^ / W ^ / / [ ~ E E Y r e r z z r z T / W W b W [ +.#.",
"@.` ( / S [ S b i 2 6 f f z r x T ~ ! ~ W g h f g W / W v r 4 3 4 9 x W ( W W / ( ( [ / T E T T z z z z z z Y W ! W / W W [ +.%.",
"' ` _ W W / S b f 3 6 7 q z Y T T ~ ~ [ W z f f l R / W R l 4 2 8 0 z W Q R R Q [ Q Q W Y E E Y z z Y Y Y z Y W W [ / W / [ +.%.",
"K Z R R W ! b b l l w z z Y T T ~ ~ ~ [ W R j Y b W / W x w 4 = 3 w z R Q R Y W Q Q W R Y Y Y Y Y T R Q Q W T R v x z z W [ | %.",
"V c l x x W ! x x b W W R T Q T W E Q Q Q W W Q Q ( Q R Y w 8 8 8 8 Y Y E Y Y Y Y Y Y Y E Y E E ( E X.X.X.( E Y g 0 4 f z / +.&.",
"V c l R ! ! ! b b b W W ! W Q Q W W T Q W Q Q Q Q { ( W Y w w = 8 0 > Y Y Y Y Y Y E g E Y E E E ( ( ( X.X.X.E R g 9 6 w z [ +.&.",
"V s c R Q Q W W b b ! W Q T T Q W W W R W W W E Q Q Q E Y Y w > 8 8 w Y Y Y Y Y g g Y Y w E E E E E E ( X.E E R g q 0 f x W | %.",
"s s f x R T v x b b x x Y Y Y Y Y Y R R Y Y Y Y Y Y Y Y Y w q 0 8 0 w Y d Y d > w w 8 Y w g w E E E E E E ( R g w 8 8 q l b P I ",
"a p 6 f z j g h h g g z w g g w f f g f g f f f q g g f f 0 0 6 ; > d d d d w d > > d > > > d > d Y g d j j g d 6 ; 2 5 i c C D ",
"a t @ ; t y t y t t i 6 6 6 6 6 6 6 6 y 6 y 6 6 - ; y y 6 6 ; ; > ; > > > > > > > > > > > = > > > > > > > d > > - o @ 2 5 t a N ",
"1 1 O + : , : % % 1 @ @ - @ @ - @ - % - % : @ % @ : : : : : : : ; : : : , , > > : : , , ; - , , > , > > : : : : % % + @ O 1 1 m ",
"1 $ X + $ & $ $ $ + $ + + + + $ # # + # # # % % % % % % % % , % , , , , , , , , , , , , , , , , , , , , , & % & % % $ 1 O $ n 1 "
};
